<ttFont>
          <CharString index="0">
            30 26 23 26 33 -28 12 -22 -41 -53 -22 -60 -81 71 -65 141 hvcurveto
            858 269 rmoveto
            8 29 4 30 30 vvcurveto
            71 -15 71 -26 67 vhcurveto
            64 62 -45 callgsubr
            rlinecurve
            64 38 42 17 43 17 -111 -103 -281 -308 -564 -691 rrcurveto
            -394 5 rmoveto
            -185 65 -92 131 139 vvcurveto
            124 -1 107 111 128 hhcurveto
            164 139 -109 -158 68 hvcurveto
            -133 -129 -103 -96 -92 -78 rrcurveto
            35 -11 rmoveto
            83 72 101 92 122 117 rrcurveto
            21 -59 12 -65 -68 vvcurveto
            -30 -7 -46 -16 -41 vhcurveto
            -2 -23 -24 -1 -23 hhcurveto
            -94 -82 11 20 -70 hvcurveto
            endchar
          </CharString>
          <CharString index="1">
            rmoveto
            79 146 74 200 163 hvcurveto
            10 -4 rlineto
            -104 -127 -17 -35 -46 vvcurveto
            -39 32 -23 68 203 250 308 83 75 -8 callsubr
            -75 -67 -245 -305 -180 hhcurveto
            -21 -10 13 19 35 34 61 86 101 hvcurveto
            337 406 rlineto
            -3 -17 -40 -1 -18 hhcurveto
            -22 -25 4 4 -13 hvcurveto
            -28 -35 -28 -36 -42 -50 -30 callgsubr
            -55 31 -69 -138 -155 -51 callgsubr
            -82 37 -49 86 vhcurveto
            4 30 rmoveto
            -31 -14 14 38 64 41 94 100 120 hvcurveto
            return
          </CharString>
          <CharString index="2">
            -99 callsubr
            -95 callsubr
            -35 callsubr
          </CharString>
          <CharString index="3">
            -106 callgsubr
            530 386 -24 callsubr
            return
          </CharString>
          <CharString index="4">
            237 344 211 212 205 91 30 12 25 10 39 9 rrcurveto
            34 38 -2 3 51 hvcurveto
            25 1 8 9 9 vvcurveto
            8 -11 6 -26 vhcurveto
            -36 -33 -7 -33 hhcurveto
            -29 -28 5 2 -31 hvcurveto
            4 -28 -28 3 -31 hhcurveto
            -607 -507 -408 -376 -137 58 -73 75 -35 hvcurveto
            -257 -215 -145 -82 -154 hhcurveto
            -111 -66 51 64 -6 50 callgsubr
            13 -7 17 0 17 2 30 2 25 27 -4 25 -3 33 -30 10 -22 -2 -41 -4 -49 -28 6 -61 rrcurveto
            -78 8 79 -66 139 hhcurveto
            return
          </CharString>
          <CharString index="5">
            rmoveto
            -37 -11 17 19 hvcurveto
            -3 85 103 102 44 55 89 109 120 145 113 121 rrcurveto
            -2 -11 -42 -1 -19 hhcurveto
            -25 -38 3 3 -17 hvcurveto
            -62 -67 -56 -74 -52 -61 -148 -173 -83 -107 5 -98 rrcurveto
            -50 1 34 -51 87 hhcurveto
            41 57 12 41 68 hvcurveto
            68 41 70 61 86 93 -38 -66 -14 -49 2 -48 rrcurveto
            -53 1 40 -32 54 hhcurveto
            193 286 41 callsubr
            41 hvcurveto
            17 callsubr
            -37 -278 -342 -178 hhcurveto
            -48 -3 20 16 -1 hvcurveto
            25 9 16 64 75 vhcurveto
            112 137 184 232 118 129 rrcurveto
            -2 -17 -24 -1 -31 hhcurveto
            -29 -9 6 callsubr
            -64 -76 -55 -65 -46 -57 -16 -19 -17 -20 -29 -36 -134 -165 -114 -101 -89 -60 rrcurveto
            -42 -64 -62 -15 -27 hhcurveto
            endchar
          </CharString>
          <CharString index="6">
            -104 callgsubr
            -25 -29 -27 -33 -32 -39 rrcurveto
            -41 callsubr
          </CharString>
          <CharString index="7">
            -28 callsubr
            -92 callsubr
            rrcurveto
            hintmask 1010101111000000
            -83 callgsubr
            hintmask 1100011111000000
            -94 callsubr
            hintmask 1011001111000000
            -71 callsubr
          </CharString>
          <CharString index="8">
            rmoveto
            -49 2 33 -35 64 hhcurveto
            96 189 77 247 291 hvcurveto
            -37 -60 -36 -77 4 -89 rrcurveto
            -65 2 54 -33 59 hhcurveto
            97 130 85 62 68 hvcurveto
            2 3 3 7 9 vvcurveto
            -1 9 -2 6 -4 2 rrcurveto
            -77 -75 -129 -80 -82 hhcurveto
            -44 -36 18 48 -2 hvcurveto
            -4 103 108 149 184 196 127 131 462 542 29 38 rrcurveto
            -145 hlineto
            -281 -321 -273 -324 -78 -99 rrcurveto
            -326 -262 -290 -156 -122 hhcurveto
            -46 -19 19 30 -1 hvcurveto
            -2 49 44 66 294 301 429 446 83 196 -3 124 rrcurveto
            95 -5 -83 52 -120 hhcurveto
            return
          </CharString>
          <CharString index="9">
            rmoveto
            -90 callsubr
            rrcurveto
            80 -5 -59 35 -70 -62 callgsubr
            rrcurveto
            -75 6 51 -58 112 hhcurveto
            26 30 rmoveto
            -61 -22 51 36 hvcurveto
            -23 callgsubr
            return
          </CharString>
          <CharString index="10">
            rmoveto
            -20 -31 2 44 71 182 187 61 70 hvcurveto
            93 100 34 54 139 124 rrcurveto
            -2 -18 -23 -1 -30 hhcurveto
            -31 -13 6 callsubr
            -100 -101 -89 -88 -61 -75 rrcurveto
            -146 -206 -25 -57 -71 vvcurveto
            -51 38 -32 74 162 215 154 120 113 vhcurveto
            11 -4 -165 -212 -132 -169 -110 -135 rlinecurve
            -549 -231 -159 -133 -108 vvcurveto
            -31 30 -36 57 224 146 78 474 376 vhcurveto
            402 189 85 102 278 333 -21 17 rcurveline
            -256 -313 -84 -107 -369 -177 94 120 108 143 127 172 348 429 rcurveline
            -3 -17 -38 47 callsubr
            3 -14 hvcurveto
            -54 -67 -75 -94 -136 -149 rrcurveto
            -164 -134 -210 -178 -180 hhcurveto
            51 -315 rmoveto
            -384 -315 -118 -85 -149 hhcurveto
            -42 -17 25 15 113 184 121 457 195 hvcurveto
            endchar
          </CharString>
          <CharString index="11">
            -87 callgsubr
            219 274 352 39 38 6 callgsubr
            -21 -19 -296 -360 48 callgsubr
            endchar
          </CharString>
          <CharString index="12">
            -341 -361 -291 -211 9 hvcurveto
            -75 3 56 -45 97 hhcurveto
            185 213 157 237 113 hvcurveto
            27 59 11 56 -2 22 rrcurveto
            12 -2 6 -6 -5 -4 -7 -23 -10 vhcurveto
            -212 -92 -298 -277 -155 hhcurveto
            -58 -42 35 66 -2 hvcurveto
            179 -8 337 282 310 hhcurveto
            124 73 -35 -89 5 hvcurveto
            2 -75 -66 -102 -277 -261 return
          </CharString>
          <CharString index="13">
            12 11 -1 13 hhcurveto
            298 234 160 209 74 -73 64 -83 -219 -199 -238 -240 -22 hvcurveto
            -127 20 -68 76 -2 107 rrcurveto
            544 620 rmoveto
            14 vlineto
            203 283 309 276 167 102 -72 -91 -230 -379 -141 -299 -53 -50 2 6 -47 vhcurveto
            59 -132 rmoveto
            88 -6 68 -38 1 -22 rrcurveto
            return
          </CharString>
          <CharString index="14">
            10 7 10 4 6 -7 4 -8 12 hvcurveto
            -20 20 -13 40 49 vvcurveto
            79 14 48 11 26 vhcurveto
            5 12 1 6 8 vvcurveto
            5 -4 3 -4 -11 -10 -7 -42 -38 vhcurveto
            -92 -87 -85 -67 -104 -78 rrcurveto
            -42 -32 -1 -5 -8 vvcurveto
            return
          </CharString>
          <CharString index="15">
            -68 callgsubr
            -88 callgsubr
            return
          </CharString>
          <CharString index="16">
            -13 -6 -4 -5 -5 vvcurveto
            -4 3 -3 8 11 23 7 10 22 vhcurveto
            210 101 144 181 -2 124 rrcurveto
            113 -1 -73 65 -140 hhcurveto
            -226 -3 -235 -140 -354 -367 -264 -272 -319 -383 -126 -153 147 259 71 117 81 220 74 201 21 101 30 105 16 56 16 49 33 56 14 26 rcurveline
            3 5 1 2 6 vvcurveto
            5 -4 4 -5 -7 -5 -6 -16 -13 vhcurveto
            -21 -32 -222 -286 -418 -472 rrcurveto
            -417 -371 -217 -136 -124 hhcurveto
            -109 -50 3 callsubr
            -2 18 hhcurveto
            29 27 24 26 return
          </CharString>
          <CharString index="17">
            119 130 81 112 99 hvcurveto
            -21 12 23 -9 30 hhcurveto
            103 148 179 49 51 0 callgsubr
            -26 -26 -153 -191 -99 hhcurveto
            -26 -15 12 17 -4 hvcurveto
            86 107 56 131 -6 114 return
          </CharString>
          <CharString index="18">
            rmoveto
            -62 51 -41 75 229 240 321 70 74 vhcurveto
            -20 17 rlineto
            -53 -49 -269 -321 -162 hhcurveto
            -22 -16 12 35 95 187 228 146 113 hvcurveto
            21 17 8 9 7 vvcurveto
            4 -3 10 -25 1 vhcurveto
            -76 5 -220 40 26 vvcurveto
            19 7 21 11 13 vhcurveto
            12 20 15 19 31 vvcurveto
            27 -21 19 -32 -57 -43 -62 -64 11 vhcurveto
            4 -20 14 -16 24 -15 -28 -57 -54 -79 -67 -84 rrcurveto
            -64 -80 -14 -9 -5 vvcurveto
            -2 -6 1 -13 4 2 2 3 14 -3 80 94 78 89 50 80 27 54 59 -27 98 -22 136 -22 rrcurveto
            -267 -179 -167 -154 -107 vvcurveto
            return
          </CharString>
          <CharString index="19">
            129 78 96 131 74 vvcurveto
            38 -18 17 -25 -31 -16 -23 -48 -6 vhcurveto
            -11 -75 -10 -37 -19 -32 -32 -51 -54 -41 -39 -22 rrcurveto
            -17 -12 -8 -2 -8 vvcurveto
            return
          </CharString>
          <CharString index="20">
            -48 -59 -49 -60 -51 -64 rrcurveto
            2 19 16 4 23 hhcurveto
            26 49 -4 -2 41 hvcurveto
            171 226 165 35 154 70 107 104 rlinecurve
            80 78 64 83 8 115 rrcurveto
            return
          </CharString>
          <CharString index="21">
            8 -31 13 -29 18 -25 rrcurveto
            -6 hlineto
            -343 -264 -231 -259 6 hvcurveto
            2 -136 114 -105 183 -20 rrcurveto
            -29 vlineto
            3 -77 18 -123 39 -43 rrcurveto
            -13 12 6 -1 6 hhcurveto
            6 6 5 4 5 -3 2 -7 8 hvcurveto
            return
          </CharString>
          <CharString index="22">
            -65 callgsubr
            -49 -69 -87 -149 -384 -586 -8 17 -6 17 -3 15 -39 callsubr
            -37 13 -70 40 -62 -91 -137 -39 callgsubr
            234 4 callgsubr
            return
          </CharString>
          <CharString index="23">
            407 675 729 433 178 76 -76 -109 -59 -24 -77 -17 -21 vhcurveto
            -8 -11 -2 -3 -4 vvcurveto
            -8 2 -2 6 7 8 10 14 11 vhcurveto
            21 31 24 82 50 vvcurveto
            return
          </CharString>
          <CharString index="24">
            861 -91 callgsubr
            return
          </CharString>
          <CharString index="25">
            9 -12 8 -9 6 3 9 5 -7 9 -2 4 rrcurveto
            -36 53 -10 76 52 vvcurveto
            371 332 326 254 105 65 -53 -115 -22 callgsubr
            return
          </CharString>
          <CharString index="26">
            rmoveto
            -15 25 14 -8 10 hhcurveto
            -82 callgsubr
            return
          </CharString>
          <CharString index="27">
            rrcurveto
            16 6 4 4 2 vvcurveto
            8 -5 1 -13 -34 -63 -15 -52 -98 vhcurveto
            -148 -78 -203 -154 -500 -485 return
          </CharString>
          <CharString index="28">
            316 655 467 413 27 44 -3 -5 34 vhcurveto
            -221 -42 -308 -199 -382 -525 -57 -79 -53 -69 -49 -60 rrcurveto
            return
          </CharString>
          <CharString index="29">
            rmoveto
            33 -30 14 -20 -41 -49 -36 -59 -108 119 -66 151 310 399 302 514 274 vhcurveto
            202 382 175 220 165 65 29 10 rcurveline
            13 3 3 5 4 vvcurveto
            7 -5 5 -12 -53 -128 -66 -163 -144 vhcurveto
            -536 -481 -219 -114 -87 hhcurveto
            -47 -20 32 39 73 102 120 161 157 hvcurveto
            247 226 55 128 104 vvcurveto
            106 -112 42 -135 -330 -397 -327 -222 -71 39 -47 79 204 374 346 187 -20 vhcurveto
            10 -2 -5 7 -4 hhcurveto
            -3 -1 -2 -12 -6 hvcurveto
            -73 -21 -305 -421 -209 hhcurveto
            -62 -29 31 54 191 388 321 310 129 67 -36 -73 -37 -25 -43 -212 -208 hvcurveto
            -177 -180 -141 -215 -125 vvcurveto
            return
          </CharString>
          <CharString index="30">
            3 -52 -15 -64 -32 -67 rrcurveto
            -41 -13 -55 -49 -83 vvcurveto
            -4 vlineto
            -40 -48 -47 -44 -52 -37 rrcurveto
            -44 -61 -65 -29 -47 hhcurveto
            return
          </CharString>
          <CharString index="31">
            -197 -220 -16 -64 -54 vvcurveto
            -47 62 -30 74 229 250 41 callsubr
            39 -8 callsubr
            -38 -34 -249 -342 -204 hhcurveto
            -42 -30 10 13 17 4 9 68 72 hvcurveto
            -31 callgsubr
            -41 -47 -11 -42 -64 hvcurveto
            -96 -64 -133 -127 -208 -234 -5 11 rcurveline
            return
          </CharString>
          <CharString index="32">
            -76 callgsubr
            -62 99 -104 113 -65 hvcurveto
            return
          </CharString>
          <CharString index="33">
            1482 rmoveto
            -1 callgsubr
            -75 callsubr
            return
          </CharString>
          <CharString index="34">
            884 -81 callsubr
            return
          </CharString>
          <CharString index="35">
            -48 callgsubr
            -77 -98 -69 -87 -62 -75 rrcurveto
            -577 -239 -157 -136 -110 vvcurveto
            -31 30 -36 59 224 159 77 505 420 vhcurveto
            362 171 159 109 253 314 -20 17 rcurveline
            -234 -294 -152 -112 -331 -160 93 113 105 35 callsubr
            -347 -419 -118 -63 -143 -1 rrcurveto
            -42 -16 25 15 115 185 1 callgsubr
          </CharString>
          <CharString index="36">
            -19 callgsubr
            -71 callgsubr
          </CharString>
          <CharString index="37">
            -23 callsubr
            154 -102 68 -107 -306 -320 -332 -381 -80 28 -81 25 -32 return
          </CharString>
          <CharString index="38">
            1468 rmoveto
            35 callgsubr
            -6 callsubr
            hvcurveto
            34 callgsubr
            -44 callgsubr
            return
          </CharString>
          <CharString index="39">
            83 -74 66 -79 13 vhcurveto
            184 73 85 98 84 vvcurveto
            95 -66 61 -143 -157 -164 -142 -112 -62 42 -32 50 97 78 95 92 12 -6 3 -4 -6 -3 -3 -12 -3 vhcurveto
            -95 -21 -61 -66 -66 hhcurveto
            -30 -14 14 30 116 146 135 112 79 42 -51 -70 -87 -64 -82 -177 -81 hvcurveto
            -84 -40 -38 -17 -29 -42 -5 -6 0 -8 7 -5 9 -5 10 1 6 7 rrcurveto
            43 50 38 32 61 hhcurveto
            57 37 -55 -51 -150 -125 -139 -201 -54 -67 20 34 -34 hvcurveto
            return
          </CharString>
          <CharString index="40">
            -114 19 rmoveto
            92 122 196 244 159 146 105 72 rlinecurve
            41 62 56 16 31 hhcurveto
            37 10 -16 callsubr
            -196 -220 -17 -64 -54 vvcurveto
            -47 71 -30 62 234 245 347 44 42 vhcurveto
            10 callsubr
            -37 -35 -242 -343 -210 hhcurveto
            -36 -35 10 13 17 4 9 67 72 hvcurveto
            223 241 60 116 4 80 rrcurveto
            50 2 -34 51 -86 hhcurveto
            -43 -58 -11 -42 -66 hvcurveto
            -95 -64 -139 -127 -204 -234 -5 11 rcurveline
            return
          </CharString>
          <CharString index="41">
            184 606 488 vhcurveto
            273 75 47 21 122 51 27 11 6 8 1 8 rrcurveto
            5 -9 3 0 -5 -8 -6 -12 -28 vhcurveto
            -171 -66 -26 -3 -195 -52 55 68 57 74 59 79 rrcurveto
            10 hlineto
            336 366 379 328 return
          </CharString>
          <CharString index="42">
            rmoveto
            166 223 184 340 312 hvcurveto
            260 287 116 147 203 253 -162 -278 -140 -307 -71 -236 -63 -212 -28 -89 -50 -61 -5 -7 -9 -6 -5 -5 rrcurveto
            -5 -3 -3 -5 -5 vvcurveto
            return
          </CharString>
          <CharString index="43">
            6 -6 4 -9 vhcurveto
            -126 -6 -152 -64 -131 -82 rrcurveto
            131 -105 -176 75 -231 hhcurveto
            -451 -364 -306 -298 -126 122 -85 123 343 324 318 288 17 -6 4 -6 -6 -3 -5 -18 -2 hvcurveto
            -270 -18 -417 -306 -206 hhcurveto
            -121 -69 64 96 234 366 369 397 207 169 -62 -144 93 hvcurveto
            -55 -37 -50 -40 -42 -40 -148 -138 -98 -126 -115 -139 return
          </CharString>
          <CharString index="44">
            6 -4 7 -9 -7 -9 -6 -25 -18 vhcurveto
            -102 -153 -229 -217 -119 -69 -6 -5 -16 -8 -8 -2 rrcurveto
            -15 -7 -6 -8 -9 vvcurveto
            -7 7 -11 14 13 30 18 58 71 vhcurveto
            68 55 74 69 76 79 rrcurveto
            return
          </CharString>
          <CharString index="45">
            -96 callgsubr
            -2 callsubr
            vhcurveto
            endchar
          </CharString>
          <CharString index="46">
            19 22 -1 24 hhcurveto
            36 56 0 22 8 -10 5 -28 hvcurveto
            -36 -33 -7 -33 -54 -64 14 -66 hhcurveto
            -570 -541 -392 -428 -108 60 -82 81 -44 hvcurveto
            -73 -102 -74 -102 -74 -97 rrcurveto
            return
          </CharString>
          <CharString index="47">
            rmoveto
            215 277 174 544 389 hvcurveto
            169 247 180 192 159 108 39 -37 22 -45 2 -55 return
          </CharString>
          <CharString index="48">
            51 89 69 2 -18 3 -19 6 -20 rrcurveto
            -83 23 51 -43 22 hhcurveto
            return
          </CharString>
          <CharString index="49">
            4 -5 7 -7 -7 -5 -6 -12 -7 vhcurveto
            -52 -21 -32 -24 -39 hhcurveto
            -24 -33 11 33 -50 hvcurveto
            return
          </CharString>
          <CharString index="50">
            33 -47 -29 8 -25 hhcurveto
            -31 -43 -21 -40 -37 hvcurveto
            -36 -37 -16 -36 -22 vvcurveto
            -7 3 -5 7 return
          </CharString>
          <CharString index="51">
            22 callsubr
            -21 callgsubr
            -18 callsubr
            hvcurveto
            -49 callsubr
            return
          </CharString>
          <CharString index="52">
            rmoveto
            31 -40 71 -104 33 -59 rrcurveto
            -13 6 61 callgsubr
            hhcurveto
            7 4 3 10 9 -3 15 -3 10 hvcurveto
            -15 45 -20 62 -28 72 103 89 86 103 41 50 rrcurveto
            18 23 callgsubr
            -5 -7 -8 -6 -18 -17 vhcurveto
            -81 -76 -126 -85 -84 24 callgsubr
            -9 6 -9 13 -15 vhcurveto
            endchar
          </CharString>
          <CharString index="53">
            rmoveto
            20 17 -1 -4 21 hvcurveto
            93 122 199 244 154 146 105 72 rlinecurve
            41 61 45 16 27 hhcurveto
            37 11 -16 callsubr
            return
          </CharString>
          <CharString index="54">
            -26 11 -21 -28 58 callgsubr
            -30 vhcurveto
            -17 -7 -5 -4 -6 vvcurveto
            -10 8 -4 11 24 68 30 43 55 vhcurveto
            133 104 32 82 61 vvcurveto
            49 -24 28 -31 return
          </CharString>
          <CharString index="55">
            -33 callsubr
            -6 callsubr
            hvcurveto
            return
          </CharString>
          <CharString index="56">
            rmoveto
            8 5 4 13 7 hvcurveto
            51 20 32 25 41 hhcurveto
            27 22 -9 -28 44 hvcurveto
            return
          </CharString>
          <CharString index="57">
            -20 1 30 -18 57 hhcurveto
            26 32 3 8 33 hvcurveto
            4 -8 2 -8 -10 vvcurveto
            1 -37 -12 -34 -71 -59 return
          </CharString>
          <CharString index="58">
            16 -17 11 -24 -28 vvcurveto
            -150 -151 -92 -137 -158 -102 104 142 172 169 128 199 83 69 -14 -91 158 vhcurveto
            return
          </CharString>
          <CharString index="59">
            -60 callgsubr
            34 -16 19 -30 return
          </CharString>
          <CharString index="60">
            5 -163 -174 -240 -184 -77 rrcurveto
            18 -33 -44 7 -44 hhcurveto
            -51 -27 -19 -16 2 hvcurveto
            return
          </CharString>
          <CharString index="61">
            -40 -264 -21 283 507 -485 -21 481 160 -160 272 -135 225 return
          </CharString>
          <CharString index="62">
            -78 -99 -68 -86 -63 -76 rrcurveto
            -576 -239 -160 -135 -110 vvcurveto
            -31 31 -36 58 225 160 77 505 420 vhcurveto
            363 171 158 108 254 315 -20 17 rcurveline
            -234 -295 -152 -112 -332 -159 93 113 return
          </CharString>
          <CharString index="63">
            59 61 53 57 -30 callsubr
            return
          </CharString>
          <CharString index="64">
            -50 30 -56 75 86 177 80 338 326 vhcurveto
            -94 -123 -112 -161 -100 -148 rrcurveto
            -380 -262 -267 -194 -186 hhcurveto
            -135 -101 59 73 7 1 7 2 7 hvcurveto
            -5 12 14 -1 14 hhcurveto
            30 27 24 25 hvcurveto
            endchar
          </CharString>
          <CharString index="65">
            rmoveto
            7 16 6 203 173 hvcurveto
            149 175 21 19 38 vvcurveto
            24 -10 17 -39 -6 callgsubr
            -124 -230 rrcurveto
            -12 -22 -8 -15 -8 vvcurveto
            -8 7 -3 5 vhcurveto
            endchar
          </CharString>
          <CharString index="66">
            -232 -196 -140 -91 -85 hhcurveto
            endchar
          </CharString>
          <CharString index="67">
            1471 rmoveto
            0 3 -12 8 11 16 8 15 25 vhcurveto
            -89 callgsubr
            return
          </CharString>
          <CharString index="68">
            rrcurveto
            33 17 32 50 30 vvcurveto
            39 -24 22 -30 -34 -24 -30 -43 -7 vhcurveto
            -5 return
          </CharString>
          <CharString index="69">
            -53 -209 -180 vhcurveto
            -88 -100 return
          </CharString>
          <CharString index="70">
            -39 134 203 -53 137 hhcurveto
            116 114 23 97 108 hvcurveto
            11 10 9 16 -4 10 -3 6 -9 -2 -8 -8 rrcurveto
            -21 -20 -84 -82 -223 hhcurveto
            -181 -139 24 41 -115 hvcurveto
            return
          </CharString>
          <CharString index="71">
            rmoveto
            26 67 30 42 56 hvcurveto
            133 -12 callgsubr
            11 -20 -29 vvcurveto
            -62 -85 8 callsubr
            -10 7 -3 10 vhcurveto
            endchar
          </CharString>
          <CharString index="72">
            -375 -360 -138 -228 5 -139 rrcurveto
            endchar
          </CharString>
          <CharString index="73">
            1436 rmoveto
            12 9 8 41 39 hvcurveto
            91 87 85 67 104 79 rrcurveto
            42 32 1 4 8 vvcurveto
            5 -6 0 -4 -8 -8 -5 -13 -21 vhcurveto
            -68 -44 -79 -51 -89 -69 -2 19 -4 18 -6 21 rrcurveto
            return
          </CharString>
          <CharString index="74">
            26 -37 -55 -45 -46 -47 return
          </CharString>
          <CharString index="75">
            rmoveto
            40 callgsubr
            hvcurveto
            -48 callsubr
            vhcurveto
            endchar
          </CharString>
          <CharString index="76">
            172 138 116 94 77 hhcurveto
            return
          </CharString>
          <CharString index="77">
            44 -27 30 -45 -65 -54 -55 -55 return
          </CharString>
          <CharString index="78">
            31 44 21 39 36 hvcurveto
            35 38 19 37 23 vvcurveto
            return
          </CharString>
          <CharString index="79">
            rmoveto
            -3 206 274 251 261 29 rrcurveto
            return
          </CharString>
          <CharString index="80">
            28 rrcurveto
            82 -25 -43 41 -23 hhcurveto
            -10 -6 -8 -4 -7 6 -4 9 -11 hvcurveto
            20 -27 12 -51 -63 vvcurveto
            -79 -13 -47 -11 -27 vhcurveto
            -5 -13 -2 -4 -8 vvcurveto
            -6 5 -2 4 vhcurveto
            return
          </CharString>
          <CharString index="81">
            rmoveto
            12 9 7 42 38 hvcurveto
            92 98 156 137 33 27 rrcurveto
            40 35 2 3 8 vvcurveto
            3 -1 1 -5 -7 -9 -3 -15 -20 vhcurveto
            -68 -49 -74 -53 -99 -91 -2 29 return
          </CharString>
          <CharString index="82">
            83 -21 -52 42 -23 hhcurveto
            -10 -7 -9 -5 -5 7 -5 8 -11 hvcurveto
            21 -21 12 -40 -49 vvcurveto
            -78 -13 -48 -12 -26 vhcurveto
            -3 -13 -3 -5 -9 vvcurveto
            -4 4 -4 4 vhcurveto
            return
          </CharString>
          <CharString index="83">
            rmoveto
            -61 26 -42 55 118 vvcurveto
            return
          </CharString>
          <CharString index="84">
            457 497 522 379 return
          </CharString>
          <CharString index="85">
            138 130 201 179 196 vhcurveto
            431 21 594 330 228 vvcurveto
            54 -43 20 -57 -341 -457 -283 -336 -272 vhcurveto
            return
          </CharString>
          <CharString index="86">
            73 98 78 105 83 115 264 402 264 244 229 56 rrcurveto
            return
          </CharString>
          <CharString index="87">
            rmoveto
            -44 callsubr
            16 callgsubr
            hvcurveto
            return
          </CharString>
          <CharString index="88">
            12 callgsubr
            1541 -20 hstem
            -201 40 297 62 vstem
            return
          </CharString>
          <CharString index="89">
            81 -48 53 -49 -32 -17 -23 -22 -27 24 -18 25 17 13 10 11 9 return
          </CharString>
          <CharString index="90">
            401 524 rmoveto
            311 292 408 291 198 hhcurveto
            47 31 -15 -38 -164 -609 -347 -367 -38 hvcurveto
            return
          </CharString>
          <CharString index="91">
            -17 -19 -32 -34 -61 -105 -118 hvcurveto
            return
          </CharString>
          <CharString index="92">
            -557 1 rmoveto
            22 57 21 114 86 78 -15 -23 88 vhcurveto
            -37 -84 -80 -10 -90 hhcurveto
            -117 -52 13 29 hvcurveto
            endchar
          </CharString>
          <CharString index="93">
            69 100 74 88 77 72 rrcurveto
            32 -70 17 -86 -102 vvcurveto
            -468 -396 -340 -392 -117 -79 18 21 -69 vhcurveto
            return
          </CharString>
          <CharString index="94">
            -268 -34 callgsubr
            5 callsubr
            vstem
            return
          </CharString>
          <CharString index="95">
            -304 rmoveto
            -50 callgsubr
            return
          </CharString>
          <CharString index="96">
            rmoveto
            -111 -67 37 22 30 70 20 134 80 104 -21 -25 90 hvcurveto
            -50 -93 -92 -13 -115 hhcurveto
            endchar
          </CharString>
          <CharString index="97">
            -433 19 -21 1221 -20 hstem
            30 callgsubr
            vstem
            return
          </CharString>
          <CharString index="98">
            50 callgsubr
            -8 13 17 return
          </CharString>
          <CharString index="99">
            vhcurveto
            2 callgsubr
            return
          </CharString>
          <CharString index="100">
            -714 -34 callgsubr
            50 callsubr
            vstem
            return
          </CharString>
          <CharString index="101">
            -35 24 -28 37 return
          </CharString>
          <CharString index="102">
            hstemhm
            -52 104 458 86 203 46 return
          </CharString>
          <CharString index="103">
            49 51 7 callgsubr
            -24 28 -37 -55 -45 -48 -46 return
          </CharString>
          <CharString index="104">
            102 19 -21 1095 308 return
          </CharString>
          <CharString index="105">
            -148 -73 89 125 return
          </CharString>
          <CharString index="106">
            139 162 return
          </CharString>
          <CharString index="107">
            1531 rmoveto
            -6 callsubr
            35 callgsubr
            vhcurveto
            return
          </CharString>
          <CharString index="108">
            -2 callsubr
            hvcurveto
            endchar
          </CharString>
          <CharString index="109">
            55 callgsubr
            -23 -52 callgsubr
            return
          </CharString>
          <CharString index="110">
            42 58 -9 callsubr
            return
          </CharString>
          <CharString index="111">
            64 33 -24 41 -17 51 -5 rlinecurve
            return
          </CharString>
          <CharString index="112">
            -101 82 318 84 return
          </CharString>
          <CharString index="113">
            2 4 -42 hvcurveto
            return
          </CharString>
          <CharString index="114">
            82 -15 100 hhcurveto
            442 415 352 490 111 -26 97 -48 80 hvcurveto
            return
          </CharString>
          <CharString index="115">
            -106 -91 -29 vhcurveto
            -17 -8 -5 -3 -7 vvcurveto
            return
          </CharString>
          <CharString index="116">
            hstemhm
            -201 40 -40 144 193 62 return
          </CharString>
          <CharString index="117">
            -22 17 rlineto
            return
          </CharString>
          <CharString index="118">
            -5 -1 -9 -15 vhcurveto
            -80 -49 -101 -80 -140 -153 -21 5 -20 6 return
          </CharString>
          <CharString index="119">
            -48 -46 -36 return
          </CharString>
          <CharString index="120">
            rrcurveto
            319 196 210 179 215 hhcurveto
            60 45 -45 -47 return
          </CharString>
          <CharString index="121">
            2 -1107 -1581 rcurveline
            4 15 return
          </CharString>
          <CharString index="122">
            -318 -211 hhcurveto
            -37 -26 26 34 return
          </CharString>
          <CharString index="123">
            vlineto
            -9 13 17 return
          </CharString>
          <CharString index="124">
            -20 17 rlineto
            -38 return
          </CharString>
          <CharString index="125">
            28 763 24 hstemhm
            -34 28 239 58 1313 64 return
          </CharString>
          <CharString index="126">
            rrcurveto
            45 -127 -100 25 -100 hhcurveto
            -134 -90 -40 -62 hvcurveto
            return
          </CharString>
          <CharString index="127">
            106 132 105 92 43 -27 32 -52 -98 -145 -98 -98 return
          </CharString>
          <CharString index="128">
            hvcurveto
            5 vlineto
            -8 13 17 -2 26 callgsubr
            32 return
          </CharString>
          <CharString index="129">
            36 callsubr
            -60 return
          </CharString>
          <CharString index="130">
            10 -12 14 vhcurveto
            -32 40 -71 105 return
          </CharString>
          <CharString index="131">
            36 -56 -13 -12 -2 -3 -10 vhcurveto
            return
          </CharString>
          <CharString index="132">
            -24 28 -31 -40 -49 -51 -42 vhcurveto
            return
          </CharString>
          <CharString index="133">
            -57 19 -21 1368 return
          </CharString>
          <CharString index="134">
            75 10 75 8 -20 hstemhm
            return
          </CharString>
          <CharString index="135">
            -156 156 hstemhm
            return
          </CharString>
          <CharString index="136">
            17 hhcurveto
            30 27 return
          </CharString>
          <CharString index="137">
            -45 144 rmoveto
            41 4 callsubr
            return
          </CharString>
          <CharString index="138">
            -258 -423 2006 hstem
            -60 1387 vstem
            return
          </CharString>
          <CharString index="139">
            rlineto
            -2 -17 -10 -1 -13 hhcurveto
            -9 -13 2 2 -2 hvcurveto
            return
          </CharString>
          <CharString index="140">
            45 49 36 return
          </CharString>
          <CharString index="141">
            -85 hvcurveto
            -239 -177 -90 -124 -90 vvcurveto
            -61 return
          </CharString>
          <CharString index="142">
            132 120 157 rrcurveto
            -548 -519 rmoveto
            return
          </CharString>
          <CharString index="143">
            32 -29 -8 callgsubr
            return
          </CharString>
          <CharString index="144">
            2 3 -9 hvcurveto
            return
          </CharString>
          <CharString index="145">
            -60 -2 rmoveto
            127 113 22 47 106 hvcurveto
            return
          </CharString>
          <CharString index="146">
            -10 rlinecurve
            -72 -80 -82 -100 -95 -123 rrcurveto
            3 return
          </CharString>
          <CharString index="147">
            vvcurveto
            6 -4 return
          </CharString>
          <CharString index="148">
            349 42 return
          </CharString>
          <CharString index="149">
            -433 -2 30 133 28 460 36 return
          </CharString>
          <CharString index="150">
            -130 -167 -83 -178 -163 vvcurveto
            return
          </CharString>
          <CharString index="151">
            158 77 115 102 vvcurveto
            49 -28 34 return
          </CharString>
          <CharString index="152">
            -2 28 634 25 hstem
            return
          </CharString>
          <CharString index="153">
            hstemhm
            41 73 -73 431 return
          </CharString>
          <CharString index="154">
            -1 -17 hhcurveto
            -23 -25 4 return
          </CharString>
          <CharString index="155">
            vhcurveto
            -13 -12 -12 -10 -11 -9 rrcurveto
            -60 return
          </CharString>
          <CharString index="156">
            4 -5 8 return
          </CharString>
          <CharString index="157">
            -186 80 return
          </CharString>
          <CharString index="158">
            -421 397 hstem
            -60 144 return
          </CharString>
          <CharString index="159">
            1164 481 hstem
            793 return
          </CharString>
          <CharString index="160">
            -222 -283 -186 hhcurveto
            -46 return
          </CharString>
          <CharString index="161">
            -188 -346 -416 -270 return
          </CharString>
          <CharString index="162">
            245 -187 1606 hstem
            return
          </CharString>
          <CharString index="163">
            127 102 110 63 44 rrcurveto
            return
          </CharString>
          <CharString index="164">
            hintmask 111011111110111001100000
            return
          </CharString>
          <CharString index="165">
            -320 -227 vvcurveto
            return
          </CharString>
          <CharString index="166">
            -791 1457 return
          </CharString>
          <CharString index="167">
            24 26 32 return
          </CharString>
          <CharString index="168">
            -766 -21 return
          </CharString>
        <CharString name=".notdef">
          -791 endchar
        </CharString>
        <CharString name=".null">
          endchar
        </CharString>
        <CharString name="A">
          349 -5 27 -2 -21 130 94 -24 28 612 30 hstemhm
          -201 40 297 62 651 32 hintmask 00000000
          hintmask 10011111
          11 -5 -79 callgsubr
          rrcurveto
          hintmask 10101111
          -87 callsubr
          hintmask 01011111
          -102 callgsubr
          -107 callsubr
        </CharString>
        <CharString name="AE">
          928 -269 -21 281 172 -147 -21 137 110 232 168 -168 275 -136 194 -28 443 -25 181 26 -20 hstemhm
          -220 125 174 70 632 308 -74 74 555 73 -73 216 588 42 hintmask 101110010111011010000000
          11 -5 rmoveto
          88 85 24 54 85 hvcurveto
          39 24 49 35 61 49 rrcurveto
          -31 90 107 -18 119 hhcurveto
          -36 -43 -36 -45 -38 -45 rrcurveto
          2 18 16 4 24 hhcurveto
          25 39 -4 -2 41 hvcurveto
          231 303 rlineto
          -2 -16 -1 -16 -16 vvcurveto
          -123 95 -109 161 -25 vhcurveto
          -3 -21 0 -20 -19 vvcurveto
          -101 30 -67 48 -45 vhcurveto
          -12 14 6 -2 5 hhcurveto
          6 7 5 6 3 -3 4 -8 6 hvcurveto
          -46 38 -32 70 104 vvcurveto
          15 1 16 2 16 vhcurveto
          hintmask 110000101111100110000000
          -1 15 15 -1 16 hhcurveto
          275 241 196 194 75 -43 49 -92 -170 -149 -130 -193 -86 hvcurveto
          -23 -51 -14 -55 -8 -52 rrcurveto
          -121 21 -65 73 105 vvcurveto
          169 337 322 235 vhcurveto
          7 hlineto
          -68 32 59 -33 58 hhcurveto
          41 13 16 16 hvcurveto
          hintmask 110000101111101010000000
          37 -50 40 -104 18 vhcurveto
          20 vlineto
          146 143 231 232 148 vhcurveto
          37 60 84 28 66 hhcurveto
          98 48 -46 -72 -192 -299 -233 -181 -59 -28 25 38 124 213 203 209 18 14 2 12 hvcurveto
          hintmask 110010010111101010000000
          5 -8 6 -15 -249 -214 -221 -129 -53 42 -40 74 279 246 255 196 vhcurveto
          hintmask 101101001111101010000000
          73 -52 75 -157 -293 -344 -293 -253 -32 4 -28 7 -25 vhcurveto
          1 -17 -19 1 -20 hhcurveto
          -105 -101 -27 -45 -88 hvcurveto
          440 571 110 122 42 13 -80 callsubr
          -36 -35 -34 -33 -32 -30 rrcurveto
          155 -80 -151 120 48 callgsubr
          -170 -92 -128 -108 -150 112 -140 192 -77 hvcurveto
          -27 -22 -27 -20 -27 -20 rrcurveto
          -70 -101 -90 -36 -89 hhcurveto
          -110 -71 57 64 -13 hvcurveto
          -4 8 9 -1 6 hhcurveto
          33 21 19 28 28 -26 25 -32 -40 -27 -30 -40 -79 83 -98 148 hvcurveto
          799 227 rmoveto
          3 17 1 18 18 vvcurveto
          73 -17 74 -31 69 vhcurveto
          43 41 46 44 49 48 -45 callgsubr
          59 35 40 12 40 14 -115 -114 -303 -319 -587 -700 rrcurveto
          -390 1 rmoveto
          -167 67 -104 118 141 vvcurveto
          125 66 89 137 147 151 -107 -157 78 vhcurveto
          -123 -117 -97 -86 -88 -73 rrcurveto
          1302 486 rmoveto
          68 -10 40 -27 -18 vvcurveto
          hintmask 110010010111101010000000
          -9 -5 -3 -8 -50 -32 20 47 -13 vhcurveto
          -419 -688 rmoveto
          11 49 20 54 28 54 rrcurveto
          179 93 176 117 100 hhcurveto
          69 26 -21 -47 -111 -287 -276 -192 -15 -15 0 2 -14 hvcurveto
          -849 189 rmoveto
          77 64 94 85 117 110 rrcurveto
          25 -60 14 -65 -69 vvcurveto
          -28 -6 -44 -14 -39 vhcurveto
          -1 0 0 -1 -114 -104 17 30 -88 vhcurveto
          endchar
        </CharString>
        <CharString name="Aacute">
          -19 callsubr
          1901 -40 callsubr
          -1890 -1476 -101 callgsubr
        </CharString>
        <CharString name="Acircumflex">
          -19 callsubr
          1663 -97 callgsubr
          -1652 -1447 -101 callgsubr
        </CharString>
        <CharString name="Adieresis">
          12 callgsubr
          1241 156 9 callsubr
          1498 28 callgsubr
          hintmask 11101110
          1995 0 callsubr
          34 callgsubr
          -6 callsubr
          49 50 33 callsubr
          -23 -33 callsubr
          vhcurveto
          -1685 -1536 -107 callgsubr
          hintmask 11011110
          -107 callsubr
        </CharString>
        <CharString name="Agrave">
          -19 callsubr
          1662 1713 rmoveto
          -62 99 -104 113 -65 vhcurveto
          -1 callgsubr
          -76 callgsubr
          hvcurveto
          -1651 -1718 -101 callgsubr
        </CharString>
        <CharString name="Aring">
          12 callgsubr
          1230 272 9 callsubr
          1651 57 207 58 hintmask 11101110
          1849 1533 rmoveto
          -46 28 -30 56 20 callsubr
          vhcurveto
          57 4 rmoveto
          36 callgsubr
          -31 -14 17 36 vhcurveto
          -1895 -1542 -107 callgsubr
          hintmask 11011110
          -107 callsubr
        </CharString>
        <CharString name="Atilde">
          12 callgsubr
          1273 75 11 74 9 -20 9 callsubr
          hintmask 11101010
          1736 -67 callgsubr
          hintmask 11011010
          -58 callsubr
          hintmask 11101010
          -57 callsubr
          vhcurveto
          -1725 -1497 -107 callgsubr
          hintmask 11100110
          -107 callsubr
        </CharString>
        <CharString name="B">
          432 -2 28 105 95 217 26 119 32 -20 22 53 23 720 22 hstemhm
          -182 39 335 30 446 33 285 51 255 108 212 104 10 callgsubr
          hintmask 1010111111111000
          30 -2 rmoveto
          74 72 5 29 74 hvcurveto
          213 88 237 196 251 336 208 279 151 159 166 124 33 24 31 22 30 17 rrcurveto
          27 -35 15 -42 -47 vvcurveto
          -225 -172 -175 -168 -82 vhcurveto
          17 -34 -41 10 -47 hhcurveto
          -85 -79 -32 -32 hvcurveto
          hintmask 1011011111111000
          -21 32 -25 62 64 67 13 22 66 vhcurveto
          10 -16 5 -22 -26 vvcurveto
          -298 -264 -235 -190 -108 -29 42 40 138 266 197 209 18 13 4 10 5 -8 7 -13 -251 -267 -222 -138 -50 38 -61 128 287 279 214 227 85 -28 70 -52 46 vhcurveto
          210 85 186 180 178 vvcurveto
          90 -34 75 -60 57 vhcurveto
          156 79 101 -7 13 vvcurveto
          8 -12 2 -21 -60 -85 -22 -50 -105 vhcurveto
          73 -95 -145 39 -176 hhcurveto
          -494 -494 -374 -325 hvcurveto
          hintmask 1110111111111000
          -99 77 -42 80 313 365 283 387 12 -4 10 -7 -8 -1 -5 -27 -5 vhcurveto
          -349 -47 -369 -289 -227 hhcurveto
          -76 -61 36 80 188 326 320 321 117 hvcurveto
          35 93 113 20 93 hhcurveto
          171 135 -41 -74 74 hvcurveto
          -180 -96 -231 -177 -255 -292 rrcurveto
          -627 -565 -111 -87 -168 hhcurveto
          -111 -70 46 65 50 callgsubr
          -9 13 18 60 callgsubr
          26 23 26 33 -28 13 38 callgsubr
          -23 -61 hvcurveto
          hintmask 1010111111111000
          -79 95 -65 117 vhcurveto
          hintmask 1011011111111000
          1007 644 rmoveto
          16 51 17 63 36 31 -5 -13 23 vhcurveto
          -24 -57 -56 -13 -47 hhcurveto
          -25 -19 12 10 hvcurveto
          endchar
        </CharString>
        <CharString name="C">
          183 -2 26 -25 25 682 27 644 24 45 21 hstemhm
          145 43 -28 67 146 29 645 92 398 24 10 callgsubr
          hintmask 0111101111000000
          160 251 rmoveto
          -149 92 -84 121 -17 vhcurveto
          -151 6 53 -112 24 hhcurveto
          5 4 2 3 3 1 3 -5 7 hvcurveto
          hintmask 1011101111000000
          -43 56 -13 115 -3 72 rrcurveto
          -1 6 6 0 6 hhcurveto
          402 317 366 229 84 -61 56 -112 -296 -296 -338 -366 -1 hvcurveto
          -90 18 -56 61 105 vvcurveto
          -22 callsubr
          hintmask 1011110111000000
          -32 callgsubr
          hintmask 0111101111000000
          43 callsubr
          hintmask 1011110111000000
          -17 callsubr
          -159 -750 rmoveto
          1 vlineto
          378 326 302 227 63 29 -23 -55 54 callsubr
          -10 -10 0 1 -9 vhcurveto
          endchar
        </CharString>
        <CharString name="CR">
          endchar
        </CharString>
        <CharString name="Ccedilla">
          183 -338 -21 234 65 -65 149 -5 -21 1448 -20 41 -20 hstemhm
          145 43 -43 82 247 91 482 92 hintmask 1101111011000000
          160 251 rmoveto
          -167 116 -86 144 9 9 0 1 10 vhcurveto
          -85 -131 rlineto
          5 15 12 9 callgsubr
          -116 -37 hvcurveto
          -17 -18 callgsubr
          46 47 56 vvcurveto
          44 -35 24 callsubr
          44 66 rlineto
          371 35 285 340 217 vvcurveto
          84 -61 56 -112 -223 -215 -193 -252 -97 vhcurveto
          -10 -26 19 -15 6 15 rrcurveto
          260 95 238 184 176 hhcurveto
          63 29 -23 -55 hvcurveto
          hintmask 1010110111000000
          54 callsubr
          -123 -81 63 126 -22 callsubr
          hintmask 1101111011000000
          -32 callgsubr
          43 callsubr
          -17 callsubr
          endchar
        </CharString>
        <CharString name="D">
          566 -6 32 -28 30 83 43 415 18 callsubr
          hintmask 00000000
          hintmask 01111111
          51 callgsubr
          134 118 19 36 106 vhcurveto
          -36 125 7 callsubr
          13 callgsubr
          -64 callsubr
          -253 -307 -161 -156 -139 -76 rrcurveto
          hintmask 10111111
          20 callgsubr
          hintmask 01111111
          42 callgsubr
          338 133 215 301 231 333 -14 callsubr
          hintmask 10111111
          -15 callsubr
        </CharString>
        <CharString name="E">
          -40 -2 24 -23 23 458 25 112 23 76 36 61 29 534 25 hstemhm
          -52 104 195 29 234 86 203 46 -33 21 591 37 10 callgsubr
          hintmask 1011111111101000
          52 230 -28 callsubr
          hintmask 0111111111011000
          -92 callsubr
          -86 callsubr
          hintmask 1011111111101000
          -33 callgsubr
          -94 callsubr
          -19 callgsubr
          hintmask 1011111111011000
          -71 callgsubr
        </CharString>
        <CharString name="Eacute">
          -25 callgsubr
          1350 -92 callgsubr
          -1298 -1229 -100 callsubr
        </CharString>
        <CharString name="Ecircumflex">
          -46 callsubr
          926 -20 -5 callsubr
          hintmask 1100011111000000
          1101 -97 callgsubr
          -1049 -1212 -100 callsubr
        </CharString>
        <CharString name="Edieresis">
          -46 callsubr
          534 248 -156 156 -5 callsubr
          289 160 -160 327 -37 171 hintmask 1100010111110100
          1494 -69 callsubr
          -1143 -1238 -28 callsubr
          -68 callgsubr
          hintmask 1010101011101000
          -88 callgsubr
          -83 callgsubr
          hintmask 1100011011110100
          -94 callsubr
          hintmask 1011001011110100
          -71 callsubr
        </CharString>
        <CharString name="Egrave">
          -25 callgsubr
          1312 -74 callsubr
          -1260 -1252 -100 callsubr
        </CharString>
        <CharString name="Eth">
          540 -6 32 -28 30 83 43 312 34 69 18 callsubr
          10 callgsubr
          hintmask 0111111110000000
          51 callgsubr
          133 118 20 35 106 vhcurveto
          -36 126 7 callsubr
          hintmask 1011111110000000
          13 callgsubr
          hintmask 0111111110000000
          -64 callsubr
          -40 -49 -38 -44 -35 -41 rrcurveto
          -120 hlineto
          -3 -8 -15 -18 -10 -8 rrcurveto
          118 hlineto
          -175 -199 -124 -111 -111 -61 20 callgsubr
          42 callgsubr
          205 81 160 143 146 175 rrcurveto
          265 hlineto
          2 8 6 18 8 8 rrcurveto
          -253 hlineto
          84 103 79 113 82 118 -14 callsubr
          hintmask 1011111110000000
          -15 callsubr
        </CharString>
        <CharString name="Euro">
          192 -2 23 613 28 126 28 283 106 157 22 hstem
          201 53 1383 40 vstem
          201 223 rmoveto
          -147 97 -78 155 133 141 51 92 141 vhcurveto
          98 63 99 86 92 110 rrcurveto
          8 8 41 callgsubr
          vvcurveto
          8 -6 8 -9 -8 -7 -5 -19 -16 vhcurveto
          -77 -99 -95 -84 -96 -64 rrcurveto
          -95 -145 -147 -53 -105 hhcurveto
          -133 -70 67 96 108 96 167 141 175 hvcurveto
          432 hlineto
          2 8 2 10 8 10 rrcurveto
          -421 hlineto
          35 42 37 42 39 42 rrcurveto
          379 hlineto
          1 9 4 10 7 9 rrcurveto
          -365 hlineto
          287 273 345 259 177 hhcurveto
          108 83 -41 -97 -8 -1 -5 -1 -6 hvcurveto
          -49 -2 -39 -30 -25 vvcurveto
          -24 18 -25 26 29 57 32 93 90 -79 70 -158 -315 -394 -259 -309 -258 vhcurveto
          -164 hlineto
          -5 -9 -9 -10 -11 -9 rrcurveto
          166 hlineto
          -33 -42 -31 -42 -28 -42 rrcurveto
          -130 hlineto
          -5 -10 -9 -10 -11 -8 rrcurveto
          137 hlineto
          -87 -141 -52 -143 -127 vvcurveto
          endchar
        </CharString>
        <CharString name="F">
          126 -1 27 106 96 586 38 485 77 hstem
          -143 40 472 29 vstem
          536 814 rmoveto
          196 232 197 199 13 -3 8 -7 -6 0 -7 -14 -3 hvcurveto
          -136 -17 -238 -222 -186 hhcurveto
          -74 -32 43 66 177 314 199 305 hvcurveto
          183 187 -47 184 hhcurveto
          252 163 100 157 99 hvcurveto
          9 10 0 5 5 vvcurveto
          4 -3 3 -6 -5 -6 -1 -16 -11 vhcurveto
          -104 -61 -116 -74 -190 -138 -151 35 -144 hhcurveto
          -122 -122 -5 -27 -117 hvcurveto
          -325 -78 -208 -185 -168 vvcurveto
          -88 65 -49 102 vhcurveto
          -447 -815 rmoveto
          302 235 154 509 312 hvcurveto
          4 7 88 19 90 19 53 17 rlinecurve
          -33 -51 -24 -52 -30 -80 rrcurveto
          -6 -18 -2 -7 -5 vvcurveto
          -11 5 -3 7 7 3 3 13 7 vhcurveto
          49 128 120 117 92 43 rrcurveto
          8 -25 -103 7 -24 hhcurveto
          -10 -21 -12 -11 -12 -8 -49 -17 -80 -23 -82 -21 168 256 193 178 156 45 rrcurveto
          35 10 7 0 6 vvcurveto
          6 -7 3 -16 -138 -312 -162 -380 -243 vhcurveto
          -1 -2 -1 0 -2 hhcurveto
          -305 -63 -235 -141 -52 -119 rrcurveto
          -6 -8 -1 -6 -3 vvcurveto
          -7 3 -1 4 6 4 4 16 9 vhcurveto
          60 103 171 113 322 72 -2 -3 -2 -2 -1 -3 rrcurveto
          -513 -303 -206 -89 -178 hhcurveto
          -111 -89 46 65 21 callsubr
          -29 14 38 callgsubr
          -24 -59 -80 116 -66 116 hvcurveto
          endchar
        </CharString>
        <CharString name="G">
          -34 -3 26 107 95 304 26 140 20 702 23 hstem
          -143 40 402 82 949 24 vstem
          99 -3 rmoveto
          292 260 185 366 234 hvcurveto
          162 252 86 98 74 35 rrcurveto
          15 7 2 4 6 vvcurveto
          6 -13 5 -11 -20 -63 -38 -55 -70 vhcurveto
          -231 -299 -167 -82 -120 hhcurveto
          -62 -18 28 25 27 11 36 21 41 hvcurveto
          108 20 108 35 101 45 rrcurveto
          369 172 255 214 155 vvcurveto
          59 -34 28 -87 -320 -530 -400 -322 -75 vhcurveto
          -2 -22 -21 -1 -20 hhcurveto
          -101 -57 17 36 -68 hvcurveto
          5 -8 -2 1 -3 hhcurveto
          -7 -4 -6 -4 -7 6 -3 21 -11 hvcurveto
          -27 48 74 -21 86 hhcurveto
          24 25 1 2 25 hvcurveto
          -3 -18 -2 -18 -17 vvcurveto
          -92 57 -24 90 107 140 53 154 217 vhcurveto
          -74 -80 -102 -118 -57 -76 rrcurveto
          -331 -248 -159 -108 -163 hhcurveto
          -129 -81 47 63 18 callgsubr
          13 38 callgsubr
          -23 -61 -79 111 -65 131 hvcurveto
          328 742 rmoveto
          254 142 434 424 249 hhcurveto
          46 32 -17 -37 -81 -247 -240 -341 -180 hvcurveto
          -117 -59 -103 -41 -95 -23 rrcurveto
          endchar
        </CharString>
        <CharString name="H">
          419 -2 26 97 94 705 27 419 21 2 21 hstemhm
          -329 39 800 37 160 44 46 53 1209 35 10 callgsubr
          hintmask 1111011111000000
          30 68 rmoveto
          -27 -55 -50 -17 -56 hhcurveto
          -98 -61 3 callsubr
          -1 29 callsubr
          23 26 33 -28 12 38 callgsubr
          -22 -61 -74 85 -60 105 81 100 20 52 90 hvcurveto
          158 89 163 159 207 250 130 33 139 32 121 34 rrcurveto
          -195 -248 -58 -165 -127 vvcurveto
          -62 45 -67 84 236 238 338 145 -15 vhcurveto
          18 -2 -5 11 -4 hhcurveto
          -6 -13 -12 -18 -5 hvcurveto
          -275 -83 -186 -182 -147 hhcurveto
          -61 -23 27 65 94 166 253 210 256 hvcurveto
          hintmask 1110111111000000
          527 174 341 314 133 vvcurveto
          40 -31 31 -59 -164 -417 -302 -349 -297 vhcurveto
          -18 -21 -17 -20 -16 -20 -153 -37 -128 -31 -106 -28 35 44 37 46 38 49 199 279 150 200 134 110 47 35 15 8 11 6 rrcurveto
          16 10 5 3 2 vvcurveto
          4 -9 3 -5 -6 -12 -6 -8 -18 vhcurveto
          -72 -37 -79 -62 -184 -164 rrcurveto
          -111 -127 -138 -66 -84 hhcurveto
          -71 -23 30 19 19 7 9 43 27 hvcurveto
          121 78 33 69 75 vvcurveto
          hintmask 1111011111000000
          70 -64 44 -111 -112 -113 -43 -66 -75 vhcurveto
          hintmask 1110111111000000
          -10 -11 -8 -7 -7 vvcurveto
          -7 5 -3 6 6 7 3 11 12 vhcurveto
          hintmask 1111011111000000
          72 78 105 37 99 hhcurveto
          90 41 -28 -40 -14 -8 -12 -51 -41 hvcurveto
          -110 -86 -28 -60 -66 vvcurveto
          -66 50 -33 68 65 85 26 83 134 vhcurveto
          -83 -85 -150 -166 -164 -223 -133 -38 -88 -32 -60 -31 -79 -41 -123 -77 -32 -67 -7 -13 1 -3 -1 -4 rrcurveto
          -5 -1 2 -3 4 hhcurveto
          3 5 3 6 3 hvcurveto
          73 111 155 78 146 51 33 11 36 11 38 11 -237 -297 -120 -109 -103 -49 rrcurveto
          hintmask 1110111111000000
          1226 685 rmoveto
          321 269 332 315 154 hhcurveto
          32 16 -11 -23 -107 -353 -324 -450 -171 hvcurveto
          endchar
        </CharString>
        <CharString name="I">
          -57 -2 26 313 28 986 34 -19 26 hstemhm
          -317 41 564 48 901 23 hintmask 00000000
          hintmask 11011110
          -91 -2 -90 callgsubr
          rrcurveto
          hintmask 11101110
          -103 callsubr
          530 386 -24 callsubr
          -77 callgsubr
        </CharString>
        <CharString name="IJ">
          1025 -720 -21 760 -21 1403 -20 hstem
          288 48 1009 55 vstem
          321 -649 rmoveto
          -42 27 -50 65 227 278 -72 callgsubr
          -538 -148 -406 58 callsubr
          -412 647 -106 callgsubr
          1491 567 rmoveto
          -37 callgsubr
          -121 -172 rcurveline
          46 callgsubr
          -961 -181 -24 callsubr
          -79 callsubr
          -86 -1040 rmoveto
          162 514 369 364 126 vhcurveto
          -399 -306 -298 15 callsubr
          hvcurveto
          endchar
        </CharString>
        <CharString name="Iacute">
          31 callgsubr
          1504 -92 callgsubr
          -1595 -1461 -100 callgsubr
        </CharString>
        <CharString name="Icircumflex">
          -57 19 -21 1770 -20 hstem
          288 48 vstem
          1255 -97 callgsubr
          -1346 -1444 -100 callgsubr
        </CharString>
        <CharString name="Idieresis">
          26 callsubr
          258 28 callsubr
          288 48 952 28 callgsubr
          hintmask 10111100
          1587 0 callsubr
          -238 -63 rmoveto
          -44 callgsubr
          -1440 -1470 -104 callsubr
          hintmask 11011100
          -77 callgsubr
        </CharString>
        <CharString name="Igrave">
          31 callgsubr
          1466 -74 callsubr
          -1557 -1484 -100 callgsubr
        </CharString>
        <CharString name="Itilde">
          26 callsubr
          209 -75 75 11 74 9 -20 hstemhm
          288 48 hintmask 10110100
          1328 -67 callgsubr
          hintmask 11001100
          -58 callsubr
          hintmask 11010100
          -57 callsubr
          vhcurveto
          -1419 -1494 -100 callgsubr
        </CharString>
        <CharString name="J">
          -85 -741 25 738 -21 312 27 1019 35 -19 26 hstemhm
          -789 32 992 55 473 9 419 22 10 callgsubr
          hintmask 1110111110000000
          155 46 rmoveto
          -537 -148 -407 58 callsubr
          -42 27 -50 65 228 277 -66 callsubr
          hvcurveto
          hintmask 1111011110000000
          -16 callgsubr
          vhcurveto
          -21 callsubr
          hintmask 1110111110000000
          -61 callsubr
          239 327 rmoveto
          46 callgsubr
          -37 callgsubr
          rrcurveto
          -394 -544 rmoveto
          -399 -305 -299 15 callsubr
          162 515 369 363 126 hvcurveto
          endchar
        </CharString>
        <CharString name="Jcircumflex">
          -85 -720 -21 2509 -20 hstem
          235 55 vstem
          1114 -97 callgsubr
          -959 -1396 rmoveto
          -537 -148 -407 58 callsubr
          -42 27 -50 65 228 277 -72 callgsubr
          239 327 rmoveto
          46 callgsubr
          -37 callgsubr
          rrcurveto
          -394 -544 rmoveto
          -399 -305 -299 15 callsubr
          162 515 369 363 126 hvcurveto
          endchar
        </CharString>
        <CharString name="K">
          526 -14 28 -16 26 97 94 469 28 48 22 201 28 170 111 91 28 -22 23 hstemhm
          -174 39 924 45 73 53 25 57 5 49 177 48 10 callgsubr
          hintmask 0101110101110110
          25 -2 rmoveto
          233 330 194 459 345 hvcurveto
          467 626 197 125 86 24 rrcurveto
          6 2 4 5 5 vvcurveto
          6 -6 2 -8 -31 -77 -35 -156 -194 vhcurveto
          -154 -182 -159 -90 -147 hhcurveto
          -32 -23 14 18 22 23 10 37 24 hvcurveto
          hintmask 0111111101111010
          107 67 41 77 68 vvcurveto
          57 -67 43 -92 -318 -160 -301 -114 -30 vhcurveto
          -2 -6 0 -3 -7 vvcurveto
          -12 5 -6 6 6 2 7 19 6 vhcurveto
          154 34 192 241 252 hhcurveto
          67 42 -18 -44 -16 -14 -15 -33 -23 hvcurveto
          -100 -72 -49 -65 -66 vvcurveto
          -54 41 -27 59 106 108 48 84 126 vhcurveto
          -225 -208 -204 -196 -111 -151 rrcurveto
          -408 -301 -212 -128 -152 hhcurveto
          -98 -61 42 58 18 callgsubr
          12 -21 -41 -52 -22 -61 hvcurveto
          hintmask 0101110101110110
          -74 74 -60 125 vhcurveto
          882 92 rmoveto
          hintmask 1001111011110110
          -68 45 -36 91 197 290 307 190 22 -6 16 -6 -4 -5 -11 -20 -5 vhcurveto
          -289 -73 -249 -187 -126 hhcurveto
          -74 -22 18 35 24 16 32 77 70 hvcurveto
          227 204 41 129 112 vvcurveto
          31 -7 25 -11 21 vhcurveto
          162 59 180 138 192 190 rrcurveto
          228 243 95 59 119 hhcurveto
          83 31 -59 -35 -7 hvcurveto
          -4 -18 rlineto
          10 -11 -15 5 -18 hhcurveto
          -33 -31 -27 -26 -4 hvcurveto
          -28 -5 15 -30 40 hhcurveto
          41 46 38 62 11 hvcurveto
          74 13 -53 57 -99 hhcurveto
          -179 -288 -132 -297 -271 hvcurveto
          -109 -123 -84 -79 -80 -40 -31 31 -48 11 -55 -1 rrcurveto
          -67 -2 -35 -23 -22 vvcurveto
          -26 44 -28 66 3 vhcurveto
          36 1 38 7 39 12 rrcurveto
          2 -6 1 -6 -7 vvcurveto
          -31 -20 -65 -50 -49 vhcurveto
          hintmask 0101110101110110
          -247 -242 -49 -124 -84 vvcurveto
          189 646 rmoveto
          8 25 15 30 1 vhcurveto
          37 2 42 -10 24 -23 -28 -11 -27 -5 -28 -1 rrcurveto
          -54 -2 -21 14 12 vvcurveto
          endchar
        </CharString>
        <CharString name="L">
          180 -25 49 -26 24 109 51 304 29 863 23 hstemhm
          -280 28 412 75 1517 67 hintmask 00000000
          hintmask 01111111
          38 callsubr
          hintmask 10111111
          -37 callsubr
          152 80 139 132 146 195 rrcurveto
          453 70 597 433 281 vvcurveto
          73 -68 48 -98 -287 -257 -191 -498 -333 vhcurveto
          -49 -73 -45 -65 -42 -59 rrcurveto
          -247 3 -158 90 206 vvcurveto
          132 101 155 207 20 vhcurveto
          32 3 0 2 7 vvcurveto
          4 0 8 -22 -206 -187 -184 -171 -173 183 -122 276 -9 vhcurveto
          -140 -191 -106 -116 -102 -67 19 callsubr
          hintmask 01111111
          -40 69 -42 151 vhcurveto
          853 530 rmoveto
          74 101 77 117 82 134 13 callsubr
          -269 -519 -411 -440 -78 hvcurveto
          -867 -506 -11 callsubr
        </CharString>
        <CharString name="Lslash">
          180 -25 49 -5 -21 133 51 1219 -20 hstemhm
          294 75 1383 67 hintmask 01111100
          38 callsubr
          hintmask 10111100
          -37 callsubr
          156 81 141 138 150 202 340 84 rcurveline
          2 18 13 9 6 14 -330 -83 rcurveline
          44 60 44 66 46 71 rrcurveto
          423 54 452 250 227 vvcurveto
          73 -68 48 -98 -276 -249 -177 -457 -315 vhcurveto
          -25 hlineto
          -254 -165 90 209 132 102 155 206 20 hvcurveto
          32 0 0 12 hvcurveto
          -22 11 rlineto
          -206 -187 -183 -171 -179 197 -125 293 hvcurveto
          9 hlineto
          -6 -9 -5 -9 -6 -8 -51 -77 -47 -67 -44 -61 -318 -80 rcurveline
          -4 -15 -8 -7 -11 -16 311 77 rcurveline
          -132 -179 -103 -110 -98 -65 19 callsubr
          hintmask 01111100
          -40 69 -42 151 vhcurveto
          1023 781 rmoveto
          21 32 20 34 22 35 13 callsubr
          -216 -384 -235 -405 -56 hvcurveto
          -1037 -757 -11 callsubr
        </CharString>
        <CharString name="M">
          583 -1 27 96 26 hstem
          -307 38 914 56 359 80 vstem
          93 59 rmoveto
          186 95 242 199 304 334 350 385 191 195 75 68 rrcurveto
          -468 -528 -328 -533 -225 vvcurveto
          -30 13 -12 9 14 18 8 81 70 vhcurveto
          287 335 219 219 112 107 449 428 149 137 119 85 -240 -237 -413 -418 -257 -380 rrcurveto
          -110 -166 -24 -74 -39 vvcurveto
          -54 39 -41 82 67 139 41 73 87 vhcurveto
          2 3 3 7 13 vvcurveto
          6 -3 6 -2 1 vhcurveto
          -78 -81 -137 -45 -58 hhcurveto
          -37 -21 17 25 23 9 21 95 139 hvcurveto
          278 395 370 533 264 232 rrcurveto
          40 34 42 25 10 vvcurveto
          6 -5 2 -5 -62 -166 -105 -322 -345 vhcurveto
          -435 -411 -156 -165 -363 -419 96 201 629 1003 121 130 28 28 19 16 13 12 rrcurveto
          12 10 3 2 7 vvcurveto
          6 -18 4 -9 -18 -177 -124 -434 -397 vhcurveto
          -691 -631 -296 -209 -196 hhcurveto
          -98 -51 37 58 hvcurveto
          3 1 4 5 vvcurveto
          -9 13 18 -2 26 callgsubr
          32 -30 14 -21 -41 -52 -30 -61 -75 63 -53 125 64 64 18 42 84 hvcurveto
          endchar
        </CharString>
        <CharString name="N">
          265 -2 27 96 96 598 24 56 324 -21 51 136 111 hstemhm
          -253 40 172 32 548 31 1951 63 10 callgsubr
          hintmask 1110111111000000
          -52 -2 -65 callsubr
          -53 callgsubr
          hvcurveto
          hintmask 1111011111000000
          15 callgsubr
          vhcurveto
          -91 callsubr
          22 callsubr
          hvcurveto
          hintmask 1110111111000000
          -21 callgsubr
          hvcurveto
          hintmask 1111011111000000
          -18 callsubr
          vhcurveto
          -49 callsubr
          hintmask 1110111111000000
          -70 callgsubr
          37 callgsubr
          hvcurveto
          endchar
        </CharString>
        <CharString name="Nacute">
          21 callgsubr
          218 301 hstemhm
          -253 40 2734 63 hintmask 10101110
          1699 -40 callsubr
          -1751 -1473 -65 callsubr
          hintmask 01101110
          -81 callgsubr
          hintmask 10101110
          -56 callsubr
          hintmask 10011110
          -70 callgsubr
          hvcurveto
          hintmask 10101110
          37 callgsubr
          vhcurveto
          endchar
        </CharString>
        <CharString name="Ntilde">
          21 callgsubr
          251 75 11 74 9 -20 hstemhm
          -253 40 2734 63 hintmask 1010110110000000
          1534 -67 callgsubr
          hintmask 1010101110000000
          -58 callsubr
          hintmask 1010110110000000
          -57 callsubr
          vhcurveto
          -1586 -1494 -65 callsubr
          hintmask 0110110110000000
          -81 callgsubr
          hintmask 1010110110000000
          -56 callsubr
          hintmask 1001110110000000
          -70 callgsubr
          hvcurveto
          hintmask 1010110110000000
          37 callgsubr
          vhcurveto
          endchar
        </CharString>
        <CharString name="O">
          102 -2 25 1070 28 252 28 hstem
          41 73 328 30 756 49 199 28 vstem
          114 237 rmoveto
          -84 callsubr
          -62 callsubr
        </CharString>
        <CharString name="OE">
          951 -2 28 454 31 109 28 70 38 29 27 281 28 82 26 126 29 hstemhm
          44 67 342 29 492 74 179 28 -28 43 199 29 65 81 141 36 -31 41 -22 32 567 42 hintmask 000000000000000000000000
          57 callsubr
          111 217 rmoveto
          396 722 742 386 158 92 -76 -123 -62 -21 -43 -17 -20 vhcurveto
          -8 -11 -3 -3 -4 vvcurveto
          -8 4 -2 4 8 8 10 14 12 vhcurveto
          20 29 22 50 52 vvcurveto
          138 -102 88 -166 -492 -694 -579 -493 -230 120 -84 155 220 255 155 198 190 vhcurveto
          -7 -30 -3 -30 -30 vvcurveto
          -123 96 -109 160 -26 vhcurveto
          hintmask 111111111111011100100000
          -2 -20 -1 -20 -19 vvcurveto
          -101 32 -69 46 -43 vhcurveto
          -13 14 6 -1 7 hhcurveto
          5 6 4 5 5 -2 2 -8 8 hvcurveto
          -46 38 -32 68 106 vvcurveto
          15 1 16 2 16 vhcurveto
          -1 15 14 -1 16 hhcurveto
          276 242 195 195 74 -44 49 -93 -169 -152 -130 -193 -83 hvcurveto
          -23 -51 -15 -55 -8 -51 rrcurveto
          -120 20 -66 73 106 vvcurveto
          163 317 307 233 18 vhcurveto
          hintmask 111111111110111010100000
          -66 45 76 -32 57 hhcurveto
          34 21 9 23 41 -64 46 -123 13 hvcurveto
          15 vlineto
          122 148 248 227 144 vhcurveto
          37 56 99 37 87 hhcurveto
          98 49 -44 -72 hvcurveto
          57 callsubr
          -194 -301 -233 -179 -60 -27 27 37 125 212 202 209 18 14 3 12 4 -7 7 -16 -250 -212 -222 -130 -53 39 -39 76 280 246 256 196 73 -53 74 -158 -42 -91 -11 -23 -72 vhcurveto
          hintmask 111111111110111001100000
          -267 -83 -204 -251 -177 vvcurveto
          -31 5 -28 10 -24 vhcurveto
          -4 hlineto
          -140 -132 -43 -71 -104 hvcurveto
          45 89 27 87 78 vvcurveto
          154 -89 71 -108 -301 -319 -437 -325 -110 30 -75 22 5 3 4 6 2 -1 3 -2 5 vhcurveto
          -16 32 -12 68 50 vvcurveto
          339 334 410 250 105 56 -51 -115 -335 -534 -566 -350 vhcurveto
          57 callsubr
          -126 -106 65 126 hvcurveto
          1542 501 rmoveto
          hintmask 111011111110111100100000
          85 -7 52 -30 -21 vvcurveto
          -8 -5 -4 -9 -51 -51 21 49 -21 vhcurveto
          -390 -690 rmoveto
          57 callsubr
          11 48 19 54 27 54 rrcurveto
          hintmask 111111111110111010100000
          180 94 176 116 101 hhcurveto
          69 25 -21 -47 -111 -286 -275 -193 -15 -14 1 1 -14 hvcurveto
          endchar
        </CharString>
        <CharString name="Oacute">
          -3 callsubr
          -28 395 hstemhm
          41 73 1114 49 -49 276 hintmask 10110100
          1155 -92 callgsubr
          -1041 -1222 rmoveto
          -84 callsubr
          hintmask 11011000
          -62 callsubr
        </CharString>
        <CharString name="Ocircumflex">
          -3 callsubr
          367 -20 -3 callgsubr
          hintmask 11110010
          906 -97 callgsubr
          -792 -1205 rmoveto
          -84 callsubr
          -61 callgsubr
          vhcurveto
          hintmask 11101100
          -70 callsubr
          hvcurveto
          -82 callsubr
          vhcurveto
          hintmask 11110100
          1 callsubr
        </CharString>
        <CharString name="Odieresis">
          -3 callsubr
          -28 251 -156 156 46 callsubr
          467 160 129 49 -49 172 -172 276 hintmask 1101101010000000
          1299 -69 callsubr
          -886 -1231 rmoveto
          hintmask 1010101001000000
          -84 callsubr
          hintmask 1101011100000000
          -96 callgsubr
          vhcurveto
          hintmask 1101101100000000
          1 callsubr
        </CharString>
        <CharString name="Ograve">
          -3 callsubr
          -28 395 -3 callgsubr
          hintmask 10110010
          1117 -74 callsubr
          -1003 -1245 rmoveto
          -84 callsubr
          hintmask 11001100
          -96 callgsubr
          vhcurveto
          hintmask 11010010
          1 callsubr
        </CharString>
        <CharString name="Oslash">
          102 -1 24 1070 28 252 28 185 -20 hstem
          41 73 1114 49 199 28 vstem
          111 -177 rmoveto
          1 3 19 0 7 hhcurveto
          6 8 0 -1 8 hvcurveto
          131 176 rlineto
          -1 10 10 0 10 hhcurveto
          -23 callsubr
          126 -68 68 -84 21 hvcurveto
          187 251 rlineto
          114 -22 50 -67 -88 vvcurveto
          -55 -24 -65 -17 -20 vhcurveto
          -8 -11 -2 -3 -3 vvcurveto
          -8 2 -3 6 7 8 11 13 11 vhcurveto
          21 29 24 70 47 vvcurveto
          97 -60 76 -113 27 vhcurveto
          148 198 rlineto
          -1 -5 -5 -1 -5 hhcurveto
          -9 -22 1 2 -6 hvcurveto
          -142 -191 rlineto
          2 -17 -17 1 -18 hhcurveto
          -552 -640 -608 -492 -172 88 -95 118 -28 hvcurveto
          -133 231 rmoveto
          403 675 733 433 15 14 -1 -1 14 vhcurveto
          -187 -250 rlineto
          -10 hlineto
          -278 -309 -297 -316 -55 hvcurveto
          -12 -2 0 -10 8 hhcurveto
          11 6 6 15 4 hvcurveto
          60 314 316 271 228 1 -792 -1063 rcurveline
          -101 24 -50 79 104 vvcurveto
          198 -214 rmoveto
          794 1065 rlineto
          76 -15 46 -52 -96 vvcurveto
          -22 callgsubr
          vhcurveto
          endchar
        </CharString>
        <CharString name="Otilde">
          -3 callsubr
          -28 202 -75 75 11 74 9 -20 -3 callgsubr
          hintmask 1101101010000000
          979 -67 callgsubr
          hintmask 1010011010000000
          -58 callsubr
          hintmask 1010101001000000
          -57 callsubr
          vhcurveto
          -865 -1255 rmoveto
          -84 callsubr
          hintmask 1101100110000000
          -96 callgsubr
          vhcurveto
          hintmask 1101101010000000
          1 callsubr
        </CharString>
        <CharString name="P">
          109 -2 28 96 96 350 26 28 27 158 10 567 22 hstemhm
          -226 40 169 31 559 40 803 120 10 callgsubr
          hintmask 1010011111000000
          -14 -2 rmoveto
          190 240 144 440 328 hvcurveto
          -9 43 49 -5 54 hhcurveto
          328 318 237 249 104 -53 92 -108 64 hvcurveto
          47 30 47 21 45 9 rrcurveto
          22 3 4 5 8 vvcurveto
          10 -1 -9 0 -10 hhcurveto
          -32 -66 -20 -47 -83 hvcurveto
          46 -96 -130 27 -167 hhcurveto
          -463 -511 -291 -326 11 hvcurveto
          hintmask 1111111111000000
          -100 3 86 -67 75 hhcurveto
          347 216 356 232 -9 hvcurveto
          21 0 10 -10 -7 -5 -8 -26 -2 vhcurveto
          -137 -16 -271 -421 -240 hhcurveto
          -57 -75 37 109 -4 hvcurveto
          264 -9 433 325 510 hhcurveto
          163 118 -25 -46 76 hvcurveto
          -41 -27 -214 -147 -172 -177 -218 -293 rlinecurve
          -14 -19 rlineto
          -21 14 -12 16 15 vvcurveto
          52 32 42 62 10 vhcurveto
          11 2 1 4 2 vvcurveto
          0 0 10 -25 -58 -63 -43 -60 -34 20 -30 36 -24 vhcurveto
          -517 -375 -110 -83 -171 hhcurveto
          -98 -61 42 59 21 callsubr
          -30 14 -20 -41 -53 -24 -59 hvcurveto
          hintmask 1010011111000000
          -76 66 -61 146 vhcurveto
          777 609 rmoveto
          30 41 31 43 32 47 179 250 158 195 146 106 rrcurveto
          52 -43 25 -58 -69 vvcurveto
          -345 -316 -180 -214 -43 -42 5 8 -38 vhcurveto
          endchar
        </CharString>
        <CharString name="Q">
          245 -230 40 191 25 139 28 284 23 877 24 hstem
          -157 66 333 58 1081 53 vstem
          154 1 rmoveto
          100 102 13 25 99 hvcurveto
          57 -25 64 -30 75 -36 rrcurveto
          -141 293 181 -37 183 hhcurveto
          54 69 13 20 53 hvcurveto
          74 25 64 53 14 vvcurveto
          6 -5 6 -7 -5 -3 -3 -3 -5 vhcurveto
          -37 -31 rlineto
          -33 -45 -79 -27 -84 hhcurveto
          -129 -196 63 174 -368 hvcurveto
          -24 11 -25 10 -25 10 rrcurveto
          459 163 390 398 434 vvcurveto
          235 -150 93 -178 -134 -174 -44 -77 -125 vhcurveto
          -293 -182 -138 -226 -170 vvcurveto
          -129 78 -96 146 290 340 351 306 28 -8 3 -8 -4 -2 -3 -27 -5 vhcurveto
          -267 -50 -348 -368 -200 hhcurveto
          -135 -36 81 74 144 256 339 240 143 hvcurveto
          57 95 104 39 101 hhcurveto
          196 89 -97 -159 -310 -385 -439 -318 -184 hvcurveto
          -54 -31 -55 -29 -55 -24 rrcurveto
          54 -156 -173 35 -130 hhcurveto
          -119 -93 -47 -42 -49 87 -54 224 hvcurveto
          -245 112 rmoveto
          28 41 24 94 85 90 -23 -79 182 vhcurveto
          -24 -78 -82 -13 -91 hhcurveto
          -140 -101 30 57 hvcurveto
          endchar
        </CharString>
        <CharString name="R">
          339 -2 28 96 96 380 23 -9 26 10 23 702 28 hstemhm
          -303 40 279 34 691 71 -1 36 149 74 291 89 10 callgsubr
          hintmask 1001011110110000
          -91 -2 -60 callsubr
          rrcurveto
          hintmask 1001111101110000
          -47 callsubr
          hintmask 1010011101110000
          -50 callsubr
          rrcurveto
          hintmask 1101011110110000
          -105 callgsubr
          hvcurveto
          hintmask 1001011110110000
          -76 67 -61 145 vhcurveto
          hintmask 1010011101110000
          -4 callgsubr
          vhcurveto
          hintmask 1001111101110000
          34 27 -5 -11 19 hvcurveto
          -7 -24 -25 -4 -24 hhcurveto
          hintmask 1010011101110000
          -31 -16 11 6 hvcurveto
          endchar
        </CharString>
        <CharString name="Racute">
          56 callgsubr
          1097 -20 hstem
          -303 40 1004 71 549 89 vstem
          1398 -92 callgsubr
          -1489 -1461 -103 callgsubr
          endchar
        </CharString>
        <CharString name="Rcaron">
          56 callgsubr
          1096 -20 21 -20 hstemhm
          -303 40 1004 71 567 71 hintmask 11101110
          1356 -34 callsubr
          hintmask 11011110
          -25 callsubr
          -1447 -1438 -103 callgsubr
          endchar
        </CharString>
        <CharString name="Rcommaaccent">
          339 -362 -21 368 -21 34 220 394 59 730 -20 hstem
          -303 40 608 123 273 71 549 89 vstem
          -91 -2 -103 callgsubr
          -502 -791 rmoveto
          -48 callsubr
          40 callgsubr
          vhcurveto
          endchar
        </CharString>
        <CharString name="S">
          -5 -2 24 100 96 442 25 693 23 hstem
          -116 40 275 67 1381 54 vstem
          98 22 rmoveto
          -98 -76 46 59 hvcurveto
          5 vlineto
          -8 13 16 -2 17 hhcurveto
          31 -24 callgsubr
          -76 84 -61 146 331 232 319 350 228 hvcurveto
          434 56 350 349 12 205 rrcurveto
          80 4 -51 44 -80 hhcurveto
          -240 -261 -215 -501 -318 hvcurveto
          -340 11 -157 152 8 121 rrcurveto
          244 12 317 165 309 hhcurveto
          62 41 -9 -10 43 hvcurveto
          -1 11 8 -3 9 hhcurveto
          12 0 0 4 18 -87 24 -98 -365 -327 -176 -237 -14 hvcurveto
          -12 -191 235 -126 317 -11 -20 -33 rcurveline
          -284 -179 -157 -321 -285 hhcurveto
          826 673 rmoveto
          23 37 24 36 24 37 233 367 180 198 165 6 36 1 44 -24 -6 -72 -11 -199 -327 -324 -385 -63 rrcurveto
          endchar
        </CharString>
        <CharString name="T">
          -22 -2 28 127 96 526 32 447 81 hstem
          -251 40 596 28 vstem
          548 775 rmoveto
          191 251 224 222 20 -5 5 -6 -4 -3 -1 -24 -5 hvcurveto
          -130 -32 -244 -284 -153 hhcurveto
          -84 -41 53 63 173 301 223 239 62 96 -9 -21 109 hvcurveto
          -27 126 76 -8 66 hhcurveto
          224 220 88 118 101 hvcurveto
          22 28 11 20 8 vvcurveto
          7 -3 3 -8 -4 -6 -1 -16 -9 vhcurveto
          -89 -56 -157 -85 -147 hhcurveto
          -39 -97 7 13 -75 hvcurveto
          13 -62 -114 16 -100 hhcurveto
          -111 -160 -15 -32 -95 hvcurveto
          -254 -86 -184 -187 -134 vvcurveto
          -94 60 -61 103 vhcurveto
          -540 -777 rmoveto
          290 326 189 539 348 hvcurveto
          192 298 32 38 142 93 rrcurveto
          15 9 5 3 11 vvcurveto
          5 -5 4 -9 -41 -214 -160 -264 -229 vhcurveto
          -89 -105 -76 -95 -58 -91 rrcurveto
          -300 -191 -229 -146 -201 hhcurveto
          -128 -99 42 89 -9 callsubr
          -2 18 hhcurveto
          30 26 60 callsubr
          -29 14 -21 -41 -53 -24 -60 -105 123 -62 136 hvcurveto
          endchar
        </CharString>
        <CharString name="Thorn">
          210 -787 25 760 28 416 27 275 29 27 25 537 22 62 21 hstemhm
          -798 31 905 43 387 32 677 86 97 32 10 callgsubr
          hintmask 1110111111110000
          116 -2 rmoveto
          -703 -304 -211 -249 -155 vvcurveto
          -42 24 -35 58 vhcurveto
          hintmask 1111111111110000
          236 329 232 971 725 hvcurveto
          194 200 241 134 139 hhcurveto
          85 38 -61 -72 -284 -338 -301 -221 -91 -27 48 34 126 261 208 208 19 13 5 10 5 -8 7 -13 -252 -260 -230 -134 -45 35 -62 113 327 320 270 293 93 -45 119 -153 -156 -176 -91 -151 -174 hvcurveto
          57 77 64 88 62 82 59 74 rlinecurve
          319 93 272 201 178 vvcurveto
          33 -27 27 -46 vhcurveto
          hintmask 1110111111110000
          -95 -160 -98 -424 -365 hvcurveto
          -24 -86 -85 -13 -77 hhcurveto
          -201 -169 86 121 212 400 202 267 hvcurveto
          32 25 -4 15 hhcurveto
          10 3 2 6 10 -36 7 -45 -363 -351 -162 -228 -172 156 -105 259 69 71 7 13 70 hvcurveto
          -111 -130 -127 -158 -149 -192 -87 -112 -87 -117 -86 -113 rrcurveto
          833 914 rmoveto
          284 229 174 166 72 hhcurveto
          17 19 -7 -20 -132 -241 -184 -270 -107 hvcurveto
          -862 -951 rmoveto
          -383 -291 -283 -340 -228 hhcurveto
          -43 -9 20 25 182 483 296 371 200 hvcurveto
          endchar
        </CharString>
        <CharString name="U">
          58 -2 26 755 30 562 30 hstemhm
          -8 29 -8 35 571 40 203 31 134 7 hintmask 00000000
          hintmask 11101111
          13 82 -99 callsubr
          hintmask 11110110
          -95 callsubr
          rrcurveto
          hintmask 11101111
          -35 callsubr
        </CharString>
        <CharString name="Uacute">
          -10 callgsubr
          1310 -92 callgsubr
          -1297 -1377 -105 callsubr
        </CharString>
        <CharString name="Ucircumflex">
          -10 callgsubr
          1061 -97 callgsubr
          -1048 -1360 -105 callsubr
        </CharString>
        <CharString name="Udieresis">
          58 19 -21 1470 156 hstem
          -8 56 571 40 435 28 callgsubr
          vstem
          1454 -69 callsubr
          -1142 -1386 -105 callsubr
        </CharString>
        <CharString name="Ugrave">
          -10 callgsubr
          1272 -74 callsubr
          -1259 -1400 -105 callsubr
        </CharString>
        <CharString name="V">
          -119 813 23 106 26 447 21 73 25 hstem
          214 69 127 69 733 40 345 35 vstem
          -98 -6 rmoveto
          581 373 454 319 296 254 rrcurveto
          -75 33 68 -52 83 hhcurveto
          19 22 4 5 10 hvcurveto
          14 6 6 6 6 vvcurveto
          6 -6 1 -8 -6 -5 -2 -4 -11 vhcurveto
          -3 -8 -11 -2 -14 hhcurveto
          -55 -69 42 90 -29 hvcurveto
          238 208 128 164 113 vvcurveto
          57 -33 24 -43 -153 -191 -252 -238 -9 0 -8 1 -9 vhcurveto
          -357 -316 -521 -390 -313 -210 189 180 143 149 224 346 204 312 17 102 77 76 36 34 21 15 12 8 14 9 13 4 -1 10 rrcurveto
          6 -8 4 -5 -22 -64 -55 -25 -28 vhcurveto
          -256 -275 -156 -53 -81 hhcurveto
          -33 -16 14 21 hvcurveto
          -1 20 22 24 62 62 65 67 50 91 -2 55 rrcurveto
          76 -4 -76 38 -106 hhcurveto
          -99 -111 -42 -56 -69 hvcurveto
          -14 -10 -11 -10 1 -12 rrcurveto
          -6 3 -5 8 7 8 7 9 10 vhcurveto
          57 69 90 47 106 hhcurveto
          60 57 -16 -50 2 hvcurveto
          2 -39 -64 -66 -40 -42 -65 -67 -31 -49 2 -52 rrcurveto
          -59 3 52 -33 60 hhcurveto
          83 114 53 86 121 hvcurveto
          -108 -119 -142 -191 -127 -208 -186 -300 -126 -196 -99 -67 -12 -9 -15 -5 -6 -4 rrcurveto
          -12 -5 -4 -4 -5 vvcurveto
          -6 6 -5 7 8 28 10 27 43 vhcurveto
          1350 1059 rmoveto
          11 vlineto
          231 168 214 136 16 25 -16 -28 -73 -142 -155 -203 -184 vhcurveto
          endchar
        </CharString>
        <CharString name="W">
          77 1076 20 51 57 45 161 hstem
          -581 35 2914 54 vstem
          -91 43 rmoveto
          241 206 202 196 257 358 289 401 48 61 80 81 34 37 23 12 14 8 rrcurveto
          13 11 14 3 10 vvcurveto
          7 -8 2 -10 -15 -33 -17 -27 -27 vhcurveto
          -34 -32 -115 -115 -51 -49 -186 -179 -131 -137 -125 -156 -138 -173 -85 -119 -107 -157 -160 -235 -54 -34 -63 -9 rrcurveto
          -37 -10 -8 -5 -10 vvcurveto
          -8 8 -7 16 25 59 30 22 49 vhcurveto
          122 55 173 126 167 151 371 336 199 214 150 143 84 78 93 69 73 55 -104 -125 -196 -242 -55 -73 -90 -125 -130 -205 -84 -150 -151 -269 -16 -19 -99 -33 rrcurveto
          -16 -5 -13 -7 -10 vvcurveto
          -12 8 -4 11 33 127 62 152 146 vhcurveto
          321 335 161 152 187 180 rrcurveto
          431 450 211 110 165 hhcurveto
          89 87 -25 -85 -115 -120 -58 -81 -35 -79 19 49 -9 hvcurveto
          28 -5 -4 6 -18 hhcurveto
          -15 -10 -11 -22 -44 102 -45 75 136 117 79 116 91 -85 48 -133 -203 -242 -164 -291 -308 hvcurveto
          -421 -398 -67 -68 -287 -299 93 120 93 117 37 52 163 222 178 333 122 195 47 72 70 66 52 26 rrcurveto
          48 24 9 5 10 vvcurveto
          6 -3 8 -12 -8 -23 -11 -53 -74 vhcurveto
          -66 -49 -243 -167 -527 -522 -431 -425 -138 -89 -154 -87 rrcurveto
          -476 838 rmoveto
          8 13 9 17 41 30 55 34 41 hvcurveto
          124 99 185 81 157 hhcurveto
          80 52 -10 -29 88 hvcurveto
          -43 132 83 -20 110 hhcurveto
          137 133 41 136 148 hvcurveto
          13 11 3 4 6 vvcurveto
          4 -3 3 -7 -3 -10 -8 -16 -19 vhcurveto
          -85 -103 -128 -39 -72 hhcurveto
          -87 -55 18 45 -126 hvcurveto
          34 -99 -112 27 -101 hhcurveto
          -152 -185 -65 -154 -145 hvcurveto
          -87 -94 -25 -90 -28 vvcurveto
          -7 4 -9 10 vhcurveto
          endchar
        </CharString>
        <CharString name="X">
          419 -2 24 131 96 462 25 12 24 621 31 -14 26 hstemhm
          -266 40 444 31 429 105 257 74 3 42 296 37 476 97 10 callgsubr
          hintmask 1001011110110000
          -42 -2 rmoveto
          184 343 192 358 293 hvcurveto
          -55 -102 -42 -128 -3 -105 rrcurveto
          -143 -3 89 -72 156 hhcurveto
          237 328 272 284 7 hvcurveto
          hintmask 1011101110111000
          115 3 -62 67 -91 hhcurveto
          -112 -111 -101 -123 -2 hvcurveto
          -1 -71 30 -37 28 -12 12 -4 13 -2 6 12 6 10 -3 10 -12 9 -30 21 -8 33 1 33 rrcurveto
          102 2 84 95 91 hhcurveto
          71 51 -53 -114 -3 hvcurveto
          -299 -7 -333 -223 -186 hhcurveto
          -72 -76 27 129 2 hvcurveto
          4 101 84 223 108 181 58 83 41 42 71 77 rrcurveto
          289 284 286 219 244 hhcurveto
          11 12 -3 -3 10 hvcurveto
          -15 -10 -13 -21 -20 vvcurveto
          -25 -2 16 -31 29 hhcurveto
          26 26 21 41 2 hvcurveto
          48 1 -43 34 -63 hhcurveto
          hintmask 1001101111010000
          -245 -326 -224 -416 -369 hvcurveto
          48 104 42 142 4 116 rrcurveto
          hintmask 1101011111010000
          227 5 -108 63 -155 hhcurveto
          -271 -362 -363 -211 -5 hvcurveto
          -77 -1 44 -37 72 hhcurveto
          264 308 366 188 -2 hvcurveto
          27 -1 -9 6 -5 hhcurveto
          -5 -4 -3 -13 -6 hvcurveto
          -333 -135 -231 -214 -168 hhcurveto
          -61 -31 26 64 2 hvcurveto
          192 5 333 356 271 hhcurveto
          118 67 -58 -123 -3 hvcurveto
          -3 -112 -107 -247 -93 -179 rrcurveto
          -373 -242 -423 -292 -208 hhcurveto
          -107 -85 42 89 2 hvcurveto
          6 16 callsubr
          -1 26 callgsubr
          hvcurveto
          32 1 -28 14 -22 hhcurveto
          -41 -52 -24 -60 -2 hvcurveto
          hintmask 1001011110110000
          -105 -2 105 -62 121 hhcurveto
          endchar
        </CharString>
        <CharString name="Y">
          28 -264 26 147 96 345 24 360 42 597 28 hstem
          -263 40 195 29 339 41 514 51 vstem
          -123 -42 -78 callsubr
          -43 callsubr
        </CharString>
        <CharString name="Yacute">
          28 -264 269 345 426 -42 42 992 -20 hstemhm
          -263 40 563 41 514 51 hintmask 10111110
          1336 -92 callgsubr
          -1459 -1501 -78 callsubr
          hintmask 11011110
          -43 callsubr
        </CharString>
        <CharString name="Z">
          456 -47 93 -48 24 141 34 180 95 353 24 383 69 16 84 hstemhm
          -42 31 378 26 1016 29 10 callgsubr
          hintmask 1011110111000000
          -42 91 rmoveto
          -49 -1 74 -44 146 hhcurveto
          102 108 29 63 114 hvcurveto
          -60 164 167 -77 173 hhcurveto
          241 192 126 214 103 -84 76 -115 -11 -10 -2 -3 -10 hvcurveto
          -20 -6 -34 -22 10 -31 8 -25 31 -10 29 4 29 6 27 22 2 30 rrcurveto
          83 -17 36 -64 -62 vvcurveto
          -188 -209 -76 -269 21 vhcurveto
          -107 8 -124 39 -129 37 183 121 197 209 210 319 157 238 213 249 95 66 29 17 8 7 28 15 rrcurveto
          13 10 5 8 7 vvcurveto
          7 -6 3 -7 vhcurveto
          hintmask 0110111111000000
          -10 -11 -3 -17 -19 hvcurveto
          -45 -49 -87 -43 -84 -204 -91 100 -259 hhcurveto
          -282 -226 -220 -209 -7 hvcurveto
          -60 -3 46 -87 103 hhcurveto
          181 194 174 196 -17 hvcurveto
          24 -2 -13 20 -4 hhcurveto
          -4 -6 -3 -12 -1 hvcurveto
          hintmask 0110110111000000
          -106 -11 -156 -269 -172 hhcurveto
          -69 -42 62 59 2 hvcurveto
          7 175 186 166 166 6 rrcurveto
          9 243 81 -94 219 hhcurveto
          87 89 32 35 71 hvcurveto
          -284 -204 -193 -222 -185 -254 -155 -212 -124 -153 -114 -98 rrcurveto
          23 -91 -93 18 -88 hhcurveto
          hintmask 1011110111000000
          -166 -89 -51 -55 -2 hvcurveto
          hintmask 0110110111000000
          31 -1 rmoveto
          51 2 107 22 88 hhcurveto
          82 83 -21 -28 84 hvcurveto
          -62 -85 -82 -30 -88 hhcurveto
          -140 -53 37 31 2 hvcurveto
          endchar
        </CharString>
        <CharString name="a">
          -268 -2 28 628 31 hstem
          5 callsubr
          208 28 vstem
          22 -2 -101 callsubr
        </CharString>
        <CharString name="aacute">
          -13 callsubr
          712 -83 callsubr
          -690 -863 -101 callsubr
        </CharString>
        <CharString name="acircumflex">
          -13 callsubr
          511 -95 callgsubr
          -489 -863 -101 callsubr
        </CharString>
        <CharString name="acute">
          -555 59 callgsubr
          -128 286 vstem
          -116 788 -91 callgsubr
          endchar
        </CharString>
        <CharString name="acute.cap">
          44 callgsubr
          -130 -92 callgsubr
          endchar
        </CharString>
        <CharString name="adieresis">
          -268 19 -21 656 451 28 callsubr
          5 callsubr
          137 -2 callgsubr
          hintmask 10111110
          879 -75 callgsubr
          -558 -951 -106 callsubr
          hintmask 11011110
          -63 callgsubr
          -72 -86 -12 -15 rlineto
          -41 callsubr
        </CharString>
        <CharString name="ae">
          87 52 callgsubr
          7 82 507 89 42 460 hintmask 01111100
          7 129 rmoveto
          -82 37 -49 86 127 228 166 192 161 vhcurveto
          -27 -53 -25 -76 2 -57 rrcurveto
          hintmask 10111100
          -99 4 51 -77 130 hhcurveto
          332 228 350 45 50 hvcurveto
          -22 -41 callgsubr
          -50 -17 callgsubr
          399 -27 callgsubr
          -3 29 callgsubr
          -86 -119 -41 -90 -114 hvcurveto
          75 107 rlineto
          -3 -17 -30 -1 -18 hhcurveto
          -22 -13 4 4 -14 hvcurveto
          -19 -25 -17 -26 -21 -31 rrcurveto
          1 7 1 6 7 vvcurveto
          51 -45 31 -70 -138 -164 -51 callgsubr
          760 198 rmoveto
          12 16 5 callgsubr
          182 139 97 99 91 hhcurveto
          32 21 -17 -39 -88 -160 -101 -260 -89 hvcurveto
          -678 -247 rmoveto
          64 43 91 101 121 vhcurveto
          206 174 165 92 66 hhcurveto
          36 25 -19 -41 -30 -17 -38 -21 -37 hvcurveto
          -30 -40 -36 -48 -50 -60 rrcurveto
          -233 -196 -130 -80 -84 hhcurveto
          -31 -15 14 38 hvcurveto
          endchar
        </CharString>
        <CharString name="agrave">
          -13 callsubr
          694 -73 callsubr
          -672 -886 -101 callsubr
        </CharString>
        <CharString name="ampersand">
          285 66 27 646 40 hstem
          220 57 263 30 392 35 vstem
          310 19 rmoveto
          4 32 23 1 15 hhcurveto
          28 43 -2 -4 20 hvcurveto
          34 76 rlineto
          -18 45 47 -10 47 hhcurveto
          88 90 32 54 66 hvcurveto
          67 54 42 79 82 vvcurveto
          43 -19 23 -27 -18 -13 -15 -14 -23 14 -12 26 -1 vhcurveto
          1 -6 1 -5 -4 vvcurveto
          -67 -36 -63 -54 -49 vhcurveto
          -51 -60 -82 -30 -80 hhcurveto
          -47 -45 9 17 -41 hvcurveto
          156 323 222 311 206 200 rrcurveto
          22 21 10 9 8 vvcurveto
          5 -6 4 -6 -5 -10 -4 -12 -13 vhcurveto
          -172 -161 -205 -204 -256 -395 rrcurveto
          66 132 44 132 76 vvcurveto
          139 -80 76 -78 -109 -83 -114 -152 -142 71 -129 103 -83 vhcurveto
          -25 -44 -28 -47 -31 -49 rrcurveto
          99 169 rmoveto
          -82 77 -50 115 131 vvcurveto
          119 73 109 73 59 58 -61 -103 -89 -41 -131 -90 -167 vhcurveto
          endchar
        </CharString>
        <CharString name="aring">
          -268 19 -21 863 271 hstem
          5 callsubr
          197 57 208 58 vstem
          664 861 -26 callgsubr
          -661 -889 -104 callgsubr
          -72 -86 -12 -15 rlineto
          -41 callsubr
        </CharString>
        <CharString name="asciicircum">
          -66 935 449 hstem
          339 596 vstem
          373 935 rmoveto
          264 373 266 -373 10 10 12 10 10 7 rlinecurve
          -298 422 -298 -422 10 -7 12 -10 12 -10 rlinecurve
          endchar
        </CharString>
        <CharString name="asciitilde">
          220 283 48 107 50 hstem
          198 829 vstem
          198 319 rmoveto
          45 -19 rlineto
          80 32 64 58 70 hhcurveto
          52 45 -26 -53 85 hvcurveto
          -64 107 48 -12 62 hhcurveto
          94 89 76 102 36 hvcurveto
          -45 14 rlineto
          -94 -42 -63 -50 -70 hhcurveto
          -56 -46 19 50 -84 hvcurveto
          65 -107 -42 23 -62 hhcurveto
          -94 -81 -76 -93 -37 hvcurveto
          endchar
        </CharString>
        <CharString name="asterisk">
          -107 1131 28 hstem
          619 25 vstem
          445 914 rmoveto
          35 46 -9 -4 22 hvcurveto
          20 68 35 97 30 59 51 -48 37 -45 44 -54 24 34 30 31 19 22 -50 11 -69 32 -65 35 120 69 66 27 65 31 -28 32 -14 31 -10 19 -59 -59 -50 -55 -100 -74 rrcurveto
          5 86 12 104 6 39 -37 -20 -43 -21 -24 -10 17 -39 26 -68 13 -76 -98 -3 -74 8 -57 4 -1 -34 -12 -44 -5 -24 67 23 117 31 54 11 -81 -120 -39 -39 -45 -58 rrcurveto
          endchar
        </CharString>
        <CharString name="at">
          272 -290 27 261 24 486 26 256 22 hstem
          36 63 202 72 253 77 137 25 220 31 83 57 vstem
          36 54 rmoveto
          -170 119 -174 280 352 329 257 209 vhcurveto
          6 -1 6 5 vvcurveto
          83 94 58 119 125 vvcurveto
          148 -132 133 -210 -509 -369 -436 -322 vhcurveto
          63 hmoveto
          274 331 462 472 197 100 -115 -159 -103 -39 -95 -57 -79 vhcurveto
          -10 21 -15 19 -20 19 rrcurveto
          14 -18 -16 11 -13 hhcurveto
          -7 -8 -6 -5 -4 4 -6 7 -4 hvcurveto
          10 -5 15 -8 7 -8 20 -16 14 -23 8 -27 rrcurveto
          -112 -93 -129 -72 -96 hhcurveto
          -44 -16 12 20 28 22 35 66 80 hvcurveto
          260 311 rlineto
          -1 -14 -30 -1 -14 hhcurveto
          -17 -34 2 2 -11 hvcurveto
          -20 -25 -23 -25 -30 -34 rrcurveto
          5 14 2 13 12 vvcurveto
          37 -32 27 -56 -103 -139 -44 -161 -139 vhcurveto
          -67 -76 -28 -81 -68 vvcurveto
          -65 36 -41 67 57 111 62 153 133 vhcurveto
          5 -3 -77 -91 -6 -21 -1 -34 rlinecurve
          -38 36 -28 76 116 130 65 99 101 vhcurveto
          -200 -9 -314 -225 -320 hhcurveto
          -235 -108 158 159 hvcurveto
          274 11 rmoveto
          50 33 70 77 92 vhcurveto
          161 135 124 70 49 hhcurveto
          30 19 -10 -28 -35 -28 -49 -28 -39 hvcurveto
          -19 -21 -19 -24 -23 -27 -57 -70 -49 -51 -44 -39 rrcurveto
          -64 -74 -44 -29 -46 hhcurveto
          -26 -10 14 29 hvcurveto
          endchar
        </CharString>
        <CharString name="atilde">
          -268 19 -21 656 399 -160 27 callsubr
          5 callsubr
          hintmask 10110110
          498 885 -64 callgsubr
          hintmask 10101110
          -57 callgsubr
          hintmask 11000110
          -59 callgsubr
          -476 -887 -101 callsubr
        </CharString>
        <CharString name="b">
          -370 -10 25 171 25 1347 21 hstemhm
          -96 55 514 27 -13 108 586 34 hintmask 00000000
          hintmask 11111010
          32 -10 rmoveto
          96 150 49 146 131 hvcurveto
          25 24 21 23 18 24 rrcurveto
          -43 4 22 -27 57 hhcurveto
          103 122 154 49 44 hvcurveto
          2 callgsubr
          -42 -33 -127 -153 -88 hhcurveto
          -51 2 -5 30 21 vvcurveto
          11 -1 10 2 9 vhcurveto
          hintmask 11110110
          39 60 24 65 23 91 5 17 2 18 1 18 rrcurveto
          50 1 -18 42 -41 hhcurveto
          -47 -13 -44 -32 -2 hvcurveto
          -1 -31 14 -17 -1 -39 rrcurveto
          -15 -12 -134 -57 -69 vhcurveto
          -175 -98 -157 -84 -129 hhcurveto
          -37 -38 16 69 88 90 160 309 379 hvcurveto
          521 204 336 382 209 vvcurveto
          35 -25 22 -48 -238 -544 -636 -315 -211 vhcurveto
          -150 -226 -95 -155 -128 vvcurveto
          hintmask 11111010
          -70 40 -59 88 vhcurveto
          359 777 rmoveto
          88 106 rlineto
          337 281 256 348 126 hhcurveto
          24 15 -13 -23 -158 -367 -433 -423 -164 hvcurveto
          endchar
        </CharString>
        <CharString name="backslash">
          -298 -106 1488 hstem
          -316 1024 vstem
          646 -106 rmoveto
          1 7 9 1 9 hhcurveto
          14 5 -1 -1 18 hvcurveto
          -962 1488 rlineto
          -4 -9 -5 -2 -10 -12 -19 2 -7 hhcurveto
          endchar
        </CharString>
        <CharString name="bar">
          31 callsubr
          -22 -421 rmoveto
          9 11 -1 -1 4 hvcurveto
          1325 2005 32 callsubr
          -1323 -2006 49 callgsubr
        </CharString>
        <CharString name="braceleft">
          245 -196 1615 hstem
          423 90 95 104 vstem
          423 82 rmoveto
          -99 30 -68 77 -92 vhcurveto
          -16 11 11 -3 8 hhcurveto
          7 5 3 9 6 -2 5 -7 5 hvcurveto
          -36 31 -14 37 72 vvcurveto
          112 47 110 81 166 vhcurveto
          46 94 25 61 54 vvcurveto
          29 -13 34 -26 24 vhcurveto
          82 26 90 68 59 73 97 124 61 100 47 77 64 107 27 40 49 43 52 46 43 26 113 10 rrcurveto
          22 2 9 1 9 vvcurveto
          61 callgsubr
          -16 -91 -114 -32 -60 -82 vhcurveto
          -130 -98 -79 -102 -213 -307 rrcurveto
          -108 -73 -27 -20 -79 hhcurveto
          -17 -6 -5 -5 -6 6 -6 8 -3 hvcurveto
          25 -12 12 -18 -34 vvcurveto
          -31 -12 -36 -74 -156 vhcurveto
          -51 -111 -48 -85 -102 vvcurveto
          endchar
        </CharString>
        <CharString name="braceright">
          245 -197 1615 hstem
          1338 104 95 90 vstem
          562 -186 rmoveto
          -6 4 -5 16 91 114 32 60 82 vhcurveto
          130 98 79 102 213 307 rrcurveto
          108 73 27 20 79 hhcurveto
          17 6 5 5 6 -6 6 -8 3 hvcurveto
          -25 12 -12 18 34 vvcurveto
          31 12 36 74 156 vhcurveto
          51 111 48 85 102 vvcurveto
          99 -30 68 -77 92 vhcurveto
          16 -11 -11 3 -8 hhcurveto
          -7 -5 -3 -9 -6 2 -5 7 -5 hvcurveto
          36 -31 14 -37 -72 vvcurveto
          -112 -47 -110 -81 -166 vhcurveto
          -46 -94 -25 -61 -54 vvcurveto
          -30 12 -34 27 -23 vhcurveto
          -83 -27 -89 -67 -59 -73 -97 -124 -61 -100 -47 -77 -64 -107 -27 -40 -49 -43 -52 -46 -43 -26 -113 -10 rrcurveto
          -22 -2 -9 -1 -9 vvcurveto
          endchar
        </CharString>
        <CharString name="bracketleft">
          245 -206 27 1553 27 hstem
          184 1491 vstem
          184 -206 rmoveto
          405 hlineto
          3 7 4 12 6 8 rrcurveto
          -247 hlineto
          203 329 113 159 217 320 161 240 136 200 226 305 rrcurveto
          248 hlineto
          4 11 7 9 5 7 rrcurveto
          -393 hlineto
          -198 -301 -93 -133 -192 -284 -182 -268 -142 -201 -291 -420 rrcurveto
          endchar
        </CharString>
        <CharString name="bracketright">
          245 -203 27 1553 27 hstem
          451 1491 vstem
          451 -203 rmoveto
          393 hlineto
          198 301 93 133 192 284 182 268 142 201 291 420 rrcurveto
          -405 hlineto
          -3 -7 -4 -12 -6 -8 rrcurveto
          247 hlineto
          -204 -330 -113 -159 -216 -319 -161 -241 -137 -199 -226 -305 rrcurveto
          -247 hlineto
          -4 -11 -7 -9 -5 -7 rrcurveto
          endchar
        </CharString>
        <CharString name="brokenbar">
          31 callsubr
          746 804 rmoveto
          65 hlineto
          516 778 32 callsubr
          -1285 -2004 rmoveto
          9 11 -1 -1 4 hvcurveto
          535 811 rlineto
          -64 hlineto
          -533 -811 49 callgsubr
        </CharString>
        <CharString name="bullet">
          -441 313 259 hstem
          234 269 vstem
          335 313 rmoveto
          82 86 75 78 63 -39 43 -62 -93 -75 -77 -78 -59 43 -45 58 hvcurveto
          endchar
        </CharString>
        <CharString name="c">
          -502 -6 29 459 126 51 26 hstem
          -124 97 543 45 vstem
          83 -6 rmoveto
          341 252 376 19 17 0 callgsubr
          -58 callgsubr
          -100 65 -80 142 vhcurveto
          endchar
        </CharString>
        <CharString name="caron">
          94 809 -21 361 -20 hstem
          -113 788 -26 callsubr
          -5 31 -10 -27 callsubr
          endchar
        </CharString>
        <CharString name="caron.cap">
          59 callsubr
          -21 331 -20 21 -20 hstemhm
          hintmask 11000000
          -46 -34 callsubr
          hintmask 10100000
          -25 callsubr
          endchar
        </CharString>
        <CharString name="ccedilla">
          -502 -338 -21 234 65 -65 148 459 203 hstemhm
          -124 97 112 92 hintmask 11011100
          57 -5 rmoveto
          -83 -127 -40 callgsubr
          39 59 338 5 249 371 17 19 rlinecurve
          10 callsubr
          hintmask 10111100
          -58 callgsubr
          -94 57 -76 124 -9 vhcurveto
          endchar
        </CharString>
        <CharString name="cedilla">
          -553 -125 65 hstem
          60 92 vstem
          47 18 rmoveto
          -98 -150 -40 callgsubr
          50 75 rlineto
          endchar
        </CharString>
        <CharString name="cent">
          -224 348 28 421 96 87 27 hstem
          311 101 498 34 vstem
          149 22 rmoveto
          1 4 4 1 7 hhcurveto
          7 6 -1 -1 10 hvcurveto
          240 333 rlineto
          -5 17 19 -2 20 hhcurveto
          76 116 52 112 77 hvcurveto
          16 25 3 4 8 vvcurveto
          6 -5 5 -6 -6 -4 -3 -16 -10 vhcurveto
          -118 -79 -104 -47 -63 hhcurveto
          -17 -14 4 7 -12 hvcurveto
          420 582 rlineto
          24 -11 15 -18 -19 vvcurveto
          -12 -2 -9 -3 -9 vhcurveto
          1 -6 -5 1 -6 hhcurveto
          -33 -19 -28 -20 -29 19 -19 23 28 38 23 81 hvcurveto
          -6 39 -22 30 -31 18 282 390 rcurveline
          -1 -5 -5 -1 -7 hhcurveto
          -9 -7 1 2 -5 hvcurveto
          -273 -379 rlineto
          5 -14 -15 2 -16 hhcurveto
          -32 -1 -37 -8 -35 -13 -94 -34 -99 -77 -91 -107 rrcurveto
          -73 -89 -39 -91 -89 vvcurveto
          -54 29 -52 57 -27 vhcurveto
          31 44 rmoveto
          -11 16 -5 21 24 vvcurveto
          139 295 371 115 6 6 -1 -1 6 vhcurveto
          endchar
        </CharString>
        <CharString name="circumflex">
          -434 59 callgsubr
          197 77 vstem
          -81 788 -98 callgsubr
          endchar
        </CharString>
        <CharString name="circumflex.cap">
          59 callsubr
          -21 332 -20 hstem
          146 1436 rmoveto
          -93 callsubr
          -38 callgsubr
          68 43 79 -59 callsubr
          endchar
        </CharString>
        <CharString name="colon">
          -441 22 184 262 184 hstemhm
          -222 191 23 191 hintmask 00000000
          hintmask 10100000
          63 468 -20 callsubr
          hintmask 01110000
          -94 -336 rmoveto
          -30 callsubr
          16 callgsubr
          59 61 53 57 vhcurveto
          endchar
        </CharString>
        <CharString name="comma">
          -441 -213 395 hstem
          111 160 vstem
          120 35 rmoveto
          -20 callgsubr
          19 callgsubr
          endchar
        </CharString>
        <CharString name="commaaccent">
          -526 -383 347 hstem
          -97 315 vstem
          172 -36 -32 callsubr
        </CharString>
        <CharString name="copyright">
          103 -107 35 160 33 479 24 174 31 hstem
          97 43 181 96 382 75 215 44 vstem
          97 198 rmoveto
          -163 117 -142 239 223 195 131 126 91 vhcurveto
          63 49 108 148 192 vvcurveto
          196 -183 94 -167 -409 -277 -341 -290 vhcurveto
          43 14 rmoveto
          270 238 316 382 166 163 -76 -194 -143 -35 -81 -45 -57 vhcurveto
          -2 16 -19 -1 -20 -44 -19 -35 rcurveline
          -34 -31 -3 -6 -8 -5 5 -8 rlinecurve
          -1 1 -1 1 vhcurveto
          -108 -91 -164 -95 -202 hhcurveto
          -231 -83 152 132 hvcurveto
          181 60 rmoveto
          -118 -4 98 -66 108 hhcurveto
          77 90 41 57 59 hvcurveto
          11 10 5 7 8 vvcurveto
          3 -5 8 -8 -3 -8 -5 -6 -6 vhcurveto
          -59 -62 -70 -31 -55 hhcurveto
          -81 -55 56 105 5 hvcurveto
          177 8 151 141 141 hhcurveto
          62 20 -29 -59 -14 9 -11 22 24 20 26 21 37 -45 53 -96 -205 -197 -147 -205 -10 hvcurveto
          endchar
        </CharString>
        <CharString name="currency">
          -59 80 32 448 33 hstem
          206 53 469 45 vstem
          62 31 rmoveto
          6 -7 15 -6 2 -10 166 125 rcurveline
          -34 34 51 -19 60 hhcurveto
          68 68 22 36 58 hvcurveto
          78 -123 9 7 5 6 13 6 rlinecurve
          -81 121 rlineto
          94 67 65 105 105 vvcurveto
          34 -8 28 -15 24 vhcurveto
          177 130 -7 6 -13 8 -3 11 rlinecurve
          -173 -130 rlineto
          32 -33 -49 18 -62 hhcurveto
          -57 -60 -18 -29 -54 hvcurveto
          -77 123 -10 -8 -4 -7 -13 -5 rlinecurve
          77 -118 rlineto
          -103 -65 -80 -107 -112 vvcurveto
          -36 9 -30 17 -25 vhcurveto
          27 102 rmoveto
          146 159 156 160 92 58 -55 -95 -156 -164 -142 -162 -86 -57 52 94 vhcurveto
          endchar
        </CharString>
        <CharString name="d">
          -295 -2 30 626 31 hstem
          -135 84 321 82 205 30 vstem
          -8 -2 rmoveto
          81 128 72 202 181 hvcurveto
          8 -4 -81 -97 -38 -60 -1 -45 rlinecurve
          -40 25 -28 66 236 261 41 callsubr
          43 vhcurveto
          10 callsubr
          -38 -38 -243 -340 -221 hhcurveto
          -20 -5 8 19 34 40 58 77 103 hvcurveto
          950 1332 rlineto
          -2 -17 -15 -1 -11 hhcurveto
          -35 -30 8 8 -19 hvcurveto
          -291 -408 -255 -370 -160 -231 rrcurveto
          6 1 5 6 vvcurveto
          55 -67 27 -55 -131 -164 -38 callsubr
          -37 -105 -89 vvcurveto
          -82 43 -49 84 vhcurveto
          7 30 rmoveto
          -31 -19 14 38 64 43 91 100 121 hvcurveto
          206 175 149 92 65 hhcurveto
          37 39 -19 -41 -24 -9 -28 -14 -29 hvcurveto
          -58 -83 -40 -57 -18 -22 -61 -74 -58 -55 -52 -49 rrcurveto
          -111 -123 -72 -34 -53 hhcurveto
          endchar
        </CharString>
        <CharString name="degree">
          -103 1067 37 243 37 hstem
          473 42 240 41 vstem
          632 1067 rmoveto
          88 76 63 98 89 -62 67 -92 -97 -72 -74 -91 -86 66 -66 93 hvcurveto
          4 37 rmoveto
          -66 -55 47 70 67 50 59 72 69 49 -50 -72 -76 -56 -45 -63 hvcurveto
          endchar
        </CharString>
        <CharString name="dieresis">
          -413 876 156 hstemhm
          -117 -2 callgsubr
          hintmask 00000000
          hintmask 11100000
          242 876 -86 callgsubr
          endchar
        </CharString>
        <CharString name="dieresis.cap">
          -791 1468 156 hstem
          -249 28 callgsubr
          vstem
          111 -69 callsubr
          endchar
        </CharString>
        <CharString name="divide">
          -204 152 171 139 56 139 169 hstemhm
          304 176 92 177 hintmask 00000000
          hintmask 11111000
          637 657 rmoveto
          54 58 49 51 41 -26 28 -41 -60 -50 -50 -51 -40 28 -28 37 hvcurveto
          -427 -195 rmoveto
          578 hlineto
          4 18 11 18 13 20 rrcurveto
          -572 hlineto
          -11 -19 -5 -17 -18 -20 rrcurveto
          94 -241 rmoveto
          -39 29 -30 37 54 56 51 51 41 -25 28 -40 -59 -52 -52 -50 vhcurveto
          endchar
        </CharString>
        <CharString name="dollar">
          -192 277 28 100 94 630 24 hstem
          247 40 397 116 260 39 vstem
          130 22 rmoveto
          1 3 14 1 7 hhcurveto
          7 -4 -1 -1 11 hvcurveto
          193 260 28 -6 31 -1 34 5 rlinecurve
          176 29 170 171 194 vvcurveto
          39 -18 55 -22 49 vhcurveto
          225 302 rlineto
          47 -18 28 -34 -35 vvcurveto
          -5 0 -5 -1 -4 vhcurveto
          -11 10 -14 4 -15 -3 rrcurveto
          -26 -4 -21 -24 -29 vvcurveto
          -28 23 -14 30 5 vhcurveto
          43 7 31 45 50 vvcurveto
          50 -38 38 -57 19 vhcurveto
          175 234 rlineto
          -1 -6 -5 -1 -6 hhcurveto
          -9 -7 1 2 -6 hvcurveto
          -169 -227 -27 4 -30 1 -31 -4 rlinecurve
          -167 -27 -114 -130 -126 vvcurveto
          -47 10 -47 24 -54 vhcurveto
          2 -5 2 -4 1 -4 -291 -391 rcurveline
          -41 17 -22 31 35 vvcurveto
          5 -1 5 1 5 vhcurveto
          11 -11 14 -3 16 3 rrcurveto
          24 3 22 24 29 vvcurveto
          29 -23 14 -30 -5 vhcurveto
          -43 -7 -31 -45 -51 vvcurveto
          -48 32 -38 51 -19 vhcurveto
          416 557 rmoveto
          -19 41 -9 39 32 vvcurveto
          66 87 90 74 13 vhcurveto
          27 3 25 0 22 -4 rrcurveto
          -572 -819 rmoveto
          273 367 rlineto
          20 -51 10 -39 -34 vvcurveto
          -139 -133 -90 -92 -15 vhcurveto
          -30 -4 -25 0 -23 5 rrcurveto
          endchar
        </CharString>
        <CharString name="dotlessi">
          -714 -2 28 hstem
          50 callsubr
          vstem
          -33 26 -96 callsubr
        </CharString>
        <CharString name="dotlessj">
          -785 61 callsubr
          1464 -20 hstem
          -9 242 -72 callsubr
        </CharString>
        <CharString name="e">
          -493 -6 29 638 24 hstem
          -91 89 500 66 vstem
          93 -6 -93 callgsubr
        </CharString>
        <CharString name="eacute">
          -13 callgsubr
          582 -83 callsubr
          -489 -867 -93 callgsubr
        </CharString>
        <CharString name="ecircumflex">
          -13 callgsubr
          381 -95 callgsubr
          -288 -867 -93 callgsubr
        </CharString>
        <CharString name="edieresis">
          -493 15 -21 667 444 28 callsubr
          -91 89 392 159 -51 51 -1 callsubr
          hintmask 10111010
          749 -75 callgsubr
          -357 -955 -94 callgsubr
          hintmask 11010110
          -55 callgsubr
        </CharString>
        <CharString name="egrave">
          -13 callgsubr
          564 -73 callsubr
          -471 -890 -93 callgsubr
        </CharString>
        <CharString name="eight">
          143 -5 28 1360 27 hstem
          207 100 278 138 157 144 179 70 vstem
          207 301 rmoveto
          -168 102 -138 246 229 240 173 225 133 -84 135 -72 106 vhcurveto
          -3 3 rlineto
          223 62 185 175 185 vvcurveto
          111 -75 107 -194 -244 -175 -185 -166 -80 29 -77 63 -111 vhcurveto
          -258 -90 -212 -189 -211 vvcurveto
          643 492 rmoveto
          -93 140 -34 96 79 vvcurveto
          180 171 95 113 146 50 -94 -91 -176 -173 -180 -180 -49 vhcurveto
          -543 -466 rmoveto
          189 157 171 228 78 vhcurveto
          19 -32 20 -34 24 -38 rrcurveto
          103 -167 22 -62 -95 vvcurveto
          -184 -162 -130 -142 -156 -113 106 198 vhcurveto
          endchar
        </CharString>
        <CharString name="ellipsis">
          1011 -2 184 hstem
          79 191 535 191 535 191 cntrmask 01110000
          1531 72 rmoveto
          -35 callgsubr
          -726 hmoveto
          -35 callgsubr
          -726 hmoveto
          -35 callgsubr
          endchar
        </CharString>
        <CharString name="emdash">
          562 430 57 hstem
          326 1072 vstem
          326 430 rmoveto
          1043 hlineto
          6 19 9 17 14 21 rrcurveto
          -1031 hlineto
          -11 -20 -12 -16 -18 -21 rrcurveto
          endchar
        </CharString>
        <CharString name="endash">
          191 430 57 hstem
          326 700 vstem
          326 430 rmoveto
          670 hlineto
          5 19 9 17 16 21 rrcurveto
          -658 hlineto
          -11 -20 -12 -16 -19 -21 rrcurveto
          endchar
        </CharString>
        <CharString name="equal">
          -152 401 56 146 57 hstem
          172 747 vstem
          285 603 rmoveto
          605 hlineto
          4 21 10 17 15 19 rrcurveto
          -598 hlineto
          -11 -19 -4 -16 -21 -22 rrcurveto
          -113 -202 rmoveto
          603 hlineto
          6 17 10 19 13 20 rrcurveto
          -597 hlineto
          -11 -19 -6 -16 -18 -21 rrcurveto
          endchar
        </CharString>
        <CharString name="eth">
          -260 -2 26 620 41 hstem
          -89 82 390 32 374 52 vstem
          66 -2 rmoveto
          112 114 53 96 107 hvcurveto
          -13 -31 -3 -23 -22 vvcurveto
          -44 23 -29 63 168 259 41 callsubr
          39 -8 callsubr
          -50 -44 -249 -332 -149 hhcurveto
          -41 -16 15 31 32 15 49 32 58 hvcurveto
          93 102 87 135 74 163 77 169 38 151 8 131 221 85 rcurveline
          -2 10 -2 8 1 13 -216 -84 rcurveline
          18 vlineto
          104 -18 79 -33 69 vhcurveto
          20 -9 -4 2 -9 hhcurveto
          -5 -7 -5 -10 -7 2 -9 7 -18 hvcurveto
          16 -45 8 -51 -58 vvcurveto
          -1 -36 -4 -38 -7 -39 -220 -85 rcurveline
          3 -11 1 -9 -10 vvcurveto
          209 80 -29 -132 -62 -151 -89 -157 rlinecurve
          60 -17 -49 32 -75 hhcurveto
          -31 -48 -4 -16 -50 hvcurveto
          -217 -73 -192 -252 -185 vvcurveto
          -91 54 -66 101 vhcurveto
          -3 28 rmoveto
          -42 -28 26 48 72 34 71 108 133 hvcurveto
          197 156 100 71 79 hhcurveto
          61 31 -32 -56 7 hvcurveto
          -55 -94 -65 -97 -72 -97 rrcurveto
          -193 -143 -74 -49 -97 hhcurveto
          endchar
        </CharString>
        <CharString name="exclam">
          -360 -2 1281 hstem
          120 162 vstem
          324 315 rmoveto
          6 7 3 13 9 hvcurveto
          26 36 72 103 117 164 127 180 141 206 231 259 rrcurveto
          -3 -17 -40 -1 -10 hhcurveto
          -53 -2 -38 3 -16 3 -41 -60 rcurveline
          -91 -134 -298 -485 -124 -230 rrcurveto
          -13 -23 -5 -14 -7 vvcurveto
          -8 4 -3 6 vhcurveto
          -204 -253 rmoveto
          -37 25 -27 37 49 51 45 48 38 -23 25 -38 -55 -46 -46 -46 vhcurveto
          endchar
        </CharString>
        <CharString name="exclamdown">
          -360 -150 1281 hstem
          786 162 vstem
          847 975 rmoveto
          55 46 46 46 37 -25 27 -37 -49 -51 -45 -48 -38 23 -25 38 hvcurveto
          -839 -1125 rmoveto
          3 17 40 1 10 hhcurveto
          53 2 38 -3 16 -3 41 60 rcurveline
          91 134 298 485 124 230 rrcurveto
          13 23 5 14 7 vvcurveto
          8 -4 3 -6 -6 -7 -3 -13 -9 vhcurveto
          -26 -36 -72 -103 -117 -164 -127 -180 -141 -206 -231 -259 rrcurveto
          endchar
        </CharString>
        <CharString name="f">
          -613 -787 25 921 28 1369 23 hstem
          -627 60 445 119 979 45 vstem
          30 callsubr
          277 -29 142 215 43 41 -23 16 rcurveline
          -69 -84 -124 -150 -245 16 -74 callgsubr
          -196 -12 callsubr
          endchar
        </CharString>
        <CharString name="ff">
          -59 61 callsubr
          2366 -20 hstem
          -627 60 494 70 979 45 509 45 vstem
          30 callsubr
          161 -17 116 66 77 66 -86 -130 -39 callgsubr
          233 4 callgsubr
          42 4 callsubr
          277 -29 142 215 43 41 -23 16 rcurveline
          -69 -84 -124 -150 -245 16 -65 callgsubr
          -46 -66 -81 -138 -341 -520 -16 -20 -20 -23 -23 -23 -5 12 -3 12 -2 11 -39 callsubr
          -33 10 -59 30 -56 -75 -67 -109 -62 -161 11 -85 callsubr
          717 254 rmoveto
          -66 callgsubr
          -554 hmoveto
          -66 callgsubr
          358 -12 callsubr
          -554 hmoveto
          -11 callgsubr
        </CharString>
        <CharString name="fi">
          -160 61 callsubr
          785 189 689 156 547 -20 hstemhm
          -627 60 935 80 528 45 -45 139 hintmask 11111110
          30 callsubr
          135 -14 104 44 75 54 rrcurveto
          -54 -82 -13 -45 -38 vvcurveto
          -51 54 -32 82 219 274 352 39 38 6 callgsubr
          -21 -19 -296 -360 48 callgsubr
          -78 callgsubr
          -131 -153 -90 -110 -62 -83 -76 -76 -115 -81 -183 12 -74 callgsubr
          836 540 rmoveto
          -36 24 -26 37 vhcurveto
          hintmask 11111101
          -4 callsubr
          hvcurveto
          -1032 -844 rmoveto
          -11 callgsubr
        </CharString>
        <CharString name="five">
          64 -317 29 1083 41 419 155 -115 103 hstemhm
          865 137 hintmask 00000000
          hintmask 11011000
          -239 -161 rmoveto
          16 -6 -6 10 -18 hhcurveto
          -15 -12 -11 -19 -28 24 -36 47 -29 hvcurveto
          -34 60 89 -25 118 hhcurveto
          469 475 428 396 16 hvcurveto
          213 8 -120 116 -205 hhcurveto
          -60 -76 -18 -29 -51 hvcurveto
          29 46 177 311 43 85 rrcurveto
          38 36 57 26 47 hhcurveto
          34 29 -9 -15 46 hvcurveto
          hintmask 11101000
          -12 40 31 -4 32 hhcurveto
          163 121 89 121 59 hvcurveto
          4 7 4 13 5 vvcurveto
          8 -4 2 -5 -6 -4 -3 -8 -4 vhcurveto
          -3 -8 -6 -10 -4 -6 rrcurveto
          -83 -60 -57 -12 -64 hhcurveto
          -29 -34 7 14 -40 hvcurveto
          9 -31 -39 10 -34 hhcurveto
          -81 -94 -46 -67 -71 hvcurveto
          hintmask 11011000
          25 47 22 47 4 9 -83 -4 rcurveline
          -90 -192 -163 -293 -105 -181 -68 -53 -67 -79 -9 -36 rrcurveto
          -9 -2 6 -2 6 hhcurveto
          6 -2 9 3 14 23 rrcurveto
          120 75 155 100 145 hhcurveto
          127 78 -59 -155 -350 -388 -519 -429 -131 -95 30 54 -37 hvcurveto
          -10 14 -10 18 -4 11 rrcurveto
          endchar
        </CharString>
        <CharString name="foundryicon">
          985 117 304 586 437 -162 162 hstem
          579 377 533 419 vstem
          670 445 rmoveto
          -196 118 211 -132 246 hhcurveto
          366 297 297 367 368 -297 295 -366 -366 -300 -295 -368 -121 34 -116 57 -99 hvcurveto
          145 13 rmoveto
          -10 8 -6 9 -3 11 rrcurveto
          23 13 68 6 17 vhcurveto
          11 8 66 1 6 -6 5 -21 0 -11 9 -25 17 -33 107 -59 73 46 9 23 -4 26 -5 16 -32 72 -192 53 -51 98 -22 30 -5 60 27 48 18 37 52 35 39 16 33 10 rcurveline
          -13 15 -7 17 17 vvcurveto
          95 196 112 198 8 vhcurveto
          136 8 6 -114 -3 -93 rrcurveto
          -79 vlineto
          181 7 rlineto
          9 1 -8 -9 -21 -13 -55 -9 hvcurveto
          -169 -305 hlineto
          -84 26 -24 43 -5 vhcurveto
          42 56 10 8 24 hvcurveto
          13 9 -29 -7 -7 hvcurveto
          -21 -36 -72 -40 -87 hhcurveto
          -76 -72 24 123 hvcurveto
          10 350 -82 1 rlineto
          -14 3 26 14 11 hvcurveto
          3 46 21 37 21 vhcurveto
          10 162 34 91 -103 -5 -94 -3 -164 -69 8 -79 5 -54 72 -34 49 -19 rrcurveto
          -3 5 4 -1 3 hhcurveto
          5 -3 3 -27 -15 -81 -5 -16 rlinecurve
          -9 -5 -45 -4 -17 8 -5 5 -3 23 -9 28 -8 28 -93 49 -63 -41 -8 -15 -2 -28 5 -15 23 -71 169 -50 72 -82 35 -41 8 -45 -12 -48 -16 -38 -43 -53 -43 -18 rrcurveto
          -47 -31 -74 -5 -40 3 -51 2 -58 16 -31 23 rrcurveto
          endchar
        </CharString>
        <CharString name="four">
          410 446 34 11 25 119 24 hstemhm
          80 64 hintmask 00000000
          hintmask 01110000
          537 -43 rmoveto
          136 -72 rlineto
          hintmask 11110000
          76 163 134 211 142 194 rrcurveto
          -7 45 33 0 50 hhcurveto
          75 173 13 77 95 hvcurveto
          19 16 13 10 7 vvcurveto
          3 -4 5 -6 -13 -23 -24 -18 -34 vhcurveto
          -29 -54 -102 -26 -105 hhcurveto
          -44 -41 4 10 -47 hvcurveto
          165 222 171 194 97 66 rrcurveto
          20 14 2 3 6 vvcurveto
          4 -2 5 -8 -10 -23 -12 -5 -12 vhcurveto
          -121 -61 -193 -193 -186 -219 -155 44 rcurveline
          -91 26 -69 19 -56 14 28 22 rcurveline
          203 160 303 364 72 72 82 82 32 33 57 24 rrcurveto
          37 15 4 2 7 vvcurveto
          9 -7 3 -28 -72 -64 -15 -13 -112 vhcurveto
          -134 -217 -269 -346 -211 -183 rrcurveto
          16 -77 -47 3 -62 hhcurveto
          -113 -126 -25 -72 hvcurveto
          hintmask 01110000
          -41 64 -30 95 76 91 7 97 141 vhcurveto
          70 -21 75 -27 79 -25 63 -20 48 -14 39 -11 -150 -180 -142 -192 -92 -148 rrcurveto
          -286 559 rmoveto
          -41 -66 6 35 45 55 33 128 47 49 -8 -12 52 hvcurveto
          -18 -15 -18 -13 -17 -12 rrcurveto
          -49 -70 -53 -10 -48 hhcurveto
          endchar
        </CharString>
        <CharString name="g">
          -249 -787 27 758 30 626 31 hstem
          -678 33 544 83 620 28 vstem
          24 -2 rmoveto
          84 143 75 199 175 hvcurveto
          8 -4 -163 -204 -131 -164 -109 -133 rlinecurve
          -566 -240 -147 -136 4 -111 rrcurveto
          -31 43 -36 56 215 133 82 491 397 vhcurveto
          298 142 248 182 233 279 -20 17 rcurveline
          -211 -254 -231 -178 -279 -142 92 116 107 136 124 162 322 415 rcurveline
          -3 -17 -40 47 callsubr
          4 -15 hvcurveto
          -26 -36 -27 -34 -41 -51 -30 callgsubr
          -1 -56 31 -87 hhcurveto
          -126 -171 -53 -209 -171 hvcurveto
          -85 -100 -34 -105 -89 vvcurveto
          -82 2 39 -49 84 hhcurveto
          7 30 rmoveto
          -33 -14 14 38 -2 hvcurveto
          -1 64 44 90 98 122 rrcurveto
          206 165 161 92 63 hhcurveto
          55 34 -19 -41 1 hvcurveto
          -44 -31 -57 -32 -47 vhcurveto
          -78 -95 rlineto
          -240 -206 -149 -83 -75 hhcurveto
          -35 -304 rmoveto
          -396 -327 -109 -88 -136 hhcurveto
          -42 -27 25 15 116 171 124 470 204 hvcurveto
          endchar
        </CharString>
        <CharString name="germandbls">
          -155 -2 26 162 97 1266 30 hstem
          119 29 445 113 416 89 vstem
          119 141 rmoveto
          -91 5 78 -52 108 hhcurveto
          56 62 9 25 59 hvcurveto
          287 2 231 313 36 42 -22 17 rcurveline
          -29 -36 -208 -274 -237 -34 97 62 73 112 -9 193 -6 99 -17 89 -17 48 -17 46 -12 44 -2 30 -3 62 22 55 232 148 248 169 84 109 -7 127 rrcurveto
          71 -4 -64 53 -108 hhcurveto
          -232 -308 -445 -797 -546 hvcurveto
          -215 -309 -180 -246 -214 -274 rrcurveto
          -6 17 42 -4 17 hhcurveto
          52 10 5 3 16 hvcurveto
          14 28 169 252 322 432 rrcurveto
          374 275 571 957 176 hhcurveto
          71 27 -23 -55 3 hvcurveto
          7 -125 -79 -111 -304 -247 -129 -94 -42 -47 9 -99 rrcurveto
          -539 45 -135 -185 -190 hhcurveto
          -77 -75 47 67 -4 hvcurveto
          -2 26 7 18 9 13 rrcurveto
          -4 8 19 -5 17 hhcurveto
          31 38 23 35 -3 hvcurveto
          23 -1 -17 16 -34 hhcurveto
          -52 -53 -54 -88 4 hvcurveto
          endchar
        </CharString>
        <CharString name="grave">
          -555 59 callgsubr
          6 286 vstem
          280 788 rmoveto
          -82 callgsubr
          -15 25 14 -8 10 hhcurveto
          endchar
        </CharString>
        <CharString name="grave.cap">
          44 callgsubr
          484 1459 rmoveto
          -75 callsubr
          -1 callgsubr
          endchar
        </CharString>
        <CharString name="greater">
          -224 154 502 hstem
          497 580 vstem
          497 204 rmoveto
          7 -10 17 -30 2 -10 554 258 rcurveline
          -465 244 -10 -10 -20 -18 -13 -12 rlinecurve
          390 -202 rlineto
          endchar
        </CharString>
        <CharString name="guillemotleft">
          414 141 511 hstem
          458 658 vstem
          752 394 rmoveto
          -9 7 -9 12 -15 vhcurveto
          32 -40 70 -104 33 -59 rrcurveto
          -13 7 5 -4 7 hhcurveto
          5 5 3 10 9 -4 15 -3 10 hvcurveto
          -14 45 -21 62 -28 71 102 89 87 104 42 50 rrcurveto
          17 23 callgsubr
          -4 -8 -8 -6 -18 -17 vhcurveto
          -80 -76 -126 -85 -85 24 callgsubr
          -275 -33 -55 callsubr
        </CharString>
        <CharString name="guillemotright">
          542 141 512 hstem
          469 656 vstem
          762 152 rmoveto
          -6 4 -5 5 8 8 6 18 17 vhcurveto
          79 78 127 83 84 46 rrcurveto
          23 12 8 7 8 vvcurveto
          9 -6 23 callsubr
          -33 58 rrcurveto
          14 -5 -6 4 -6 hhcurveto
          -7 -3 -3 -10 -10 2 -14 4 -11 hvcurveto
          13 -44 21 -63 28 -71 -102 -89 3 callgsubr
          -293 hmoveto
          -54 callgsubr
        </CharString>
        <CharString name="guilsinglleft">
          120 141 511 hstem
          458 364 vstem
          477 361 -55 callsubr
        </CharString>
        <CharString name="guilsinglright">
          249 141 512 hstem
          469 363 vstem
          469 152 rmoveto
          -54 callgsubr
        </CharString>
        <CharString name="h">
          -260 45 callsubr
          282 74 278 80 vstem
          -67 callsubr
          992 1377 rlineto
          -2 -18 -9 callgsubr
          -17 14 callsubr
          33 6 48 hhcurveto
          19 18 -1 -4 21 hvcurveto
          endchar
        </CharString>
        <CharString name="hbar">
          -260 19 -21 1597 -20 hstem
          -67 callsubr
          691 960 rlineto
          274 hlineto
          2 8 3 11 7 8 rrcurveto
          -266 hlineto
          281 390 rlineto
          -2 -18 -9 callgsubr
          -17 2 -273 -390 rcurveline
          -121 hlineto
          -6 -8 -9 -11 -10 -8 rrcurveto
          127 hlineto
          -815 -1164 rlineto
          4 15 33 6 48 hhcurveto
          19 18 -1 -4 21 hvcurveto
          endchar
        </CharString>
        <CharString name="hyphen">
          -99 461 57 hstem
          326 410 vstem
          326 461 rmoveto
          382 hlineto
          3 19 9 17 16 21 rrcurveto
          -381 hlineto
          -12 -20 4 -16 -21 -21 rrcurveto
          endchar
        </CharString>
        <CharString name="i">
          -714 -2 28 850 43 callgsubr
          vstem
          461 876 rmoveto
          -4 callsubr
          -36 24 -26 37 hvcurveto
          -494 -850 -96 callsubr
        </CharString>
        <CharString name="iacute">
          -7 callsubr
          451 -83 callsubr
          -484 -835 -96 callsubr
        </CharString>
        <CharString name="icircumflex">
          -7 callsubr
          250 -95 callgsubr
          -283 -835 -96 callsubr
        </CharString>
        <CharString name="idieresis">
          -714 19 47 callgsubr
          50 callsubr
          364 -2 callgsubr
          vstem
          617 -75 callgsubr
          -351 -923 -96 callsubr
        </CharString>
        <CharString name="igrave">
          -7 callsubr
          432 -73 callsubr
          -465 -858 -96 callsubr
        </CharString>
        <CharString name="ij">
          -333 61 callsubr
          806 -21 878 43 callgsubr
          237 161 vstem
          859 2 callsubr
          -398 hmoveto
          -4 callsubr
          -36 24 -26 37 hvcurveto
          -494 -850 -87 callgsubr
          85 93 53 68 85 vhcurveto
          -29 -37 -26 -34 -19 -23 -45 callsubr
          105 132 121 157 -46 callgsubr
          -4 -28 -164 -219 -144 -184 rrcurveto
          -104 -105 -139 -116 -101 hhcurveto
          -71 -303 -15 callgsubr
        </CharString>
        <CharString name="itilde">
          -714 19 -21 895 27 callsubr
          50 callsubr
          hintmask 11101000
          236 885 -64 callgsubr
          hintmask 11011000
          -57 callgsubr
          hintmask 11101000
          -59 callgsubr
          -269 -859 -96 callsubr
        </CharString>
        <CharString name="j">
          -785 -787 27 hstem
          -1259 33 1571 161 vstem
          406 2 callsubr
          -415 -634 -48 callgsubr
          -45 callsubr
          106 132 120 157 rrcurveto
          -548 -519 -15 callgsubr
        </CharString>
        <CharString name="jcircumflex">
          -785 61 callsubr
          2009 -20 hstem
          196 -95 callgsubr
          -205 -619 -72 callsubr
        </CharString>
        <CharString name="k">
          -306 -2 28 383 77 228 30 hstem
          259 64 107 68 207 128 -84 callgsubr
          endchar
        </CharString>
        <CharString name="kcommaaccent">
          -306 53 callgsubr
          411 77 106 152 851 -20 hstem
          -19 123 155 239 -84 callgsubr
          -201 -148 -32 callsubr
        </CharString>
        <CharString name="kgreenlandic">
          -309 -2 477 -76 76 117 152 3 -20 hstemhm
          258 238 hintmask 10011000
          -141 19 rmoveto
          108 165 175 258 185 258 42 47 rcurveline
          hintmask 10101000
          -18 -1 -14 0 -11 -2 rrcurveto
          hintmask 10011000
          -23 -1 -43 3 -16 1 -514 -733 rcurveline
          4 15 38 6 18 hhcurveto
          19 26 -2 -3 13 hvcurveto
          399 86 rmoveto
          -56 26 -51 73 219 296 377 14 15 vhcurveto
          -21 18 rlineto
          -14 -12 -282 -367 -203 hhcurveto
          -37 -12 12 19 15 16 19 24 21 hvcurveto
          121 106 15 53 50 vvcurveto
          54 -35 49 -60 27 25 callgsubr
          147 109 57 44 59 hhcurveto
          18 12 -3 -9 10 hvcurveto
          -20 -7 -19 -18 -2 -25 rrcurveto
          hintmask 01101000
          -35 -2 31 -25 29 hhcurveto
          37 34 20 49 1 hvcurveto
          44 -42 39 -65 -120 -83 -123 -86 -71 vhcurveto
          -36 -40 -16 -15 -32 -16 rrcurveto
          7 -24 -28 4 -29 hhcurveto
          -52 -45 -21 -24 -17 21 -14 37 23 46 3 30 54 hvcurveto
          34 -12 23 -23 -23 vvcurveto
          -15 -10 -16 -37 -40 vhcurveto
          -97 -90 -25 -59 -49 vvcurveto
          endchar
        </CharString>
        <CharString name="l">
          -711 -2 28 hstem
          -164 67 vstem
          -50 26 rmoveto
          -28 -19 -29 callgsubr
          41 -35 56 223 284 41 callsubr
          43 vhcurveto
          17 callsubr
          -40 -276 -342 -197 hhcurveto
          endchar
        </CharString>
        <CharString name="ldot">
          -688 -2 28 746 115 hstem
          -164 67 633 121 vstem
          -39 26 rmoveto
          -34 -24 -29 callgsubr
          45 -35 63 228 290 41 callsubr
          44 vhcurveto
          17 callsubr
          -41 -282 -342 -202 hhcurveto
          622 746 rmoveto
          35 39 33 35 26 -17 21 -28 -41 -35 -34 -36 -25 20 -20 27 hvcurveto
          endchar
        </CharString>
        <CharString name="less">
          -265 250 502 hstem
          145 580 vstem
          145 494 rmoveto
          465 -244 10 10 20 18 13 12 rlinecurve
          -391 202 463 210 -7 10 -17 30 -2 10 rlinecurve
          endchar
        </CharString>
        <CharString name="logicalnot">
          -136 462 56 hstem
          172 711 vstem
          172 462 rmoveto
          614 hlineto
          -143 -248 rlineto
          3 11 9 0 12 hhcurveto
          9 15 -2 -2 8 hvcurveto
          176 305 rlineto
          -673 hlineto
          -5 -15 -25 -31 -8 -10 rrcurveto
          endchar
        </CharString>
        <CharString name="lslash">
          -711 -2 28 hstem
          -164 67 vstem
          -50 26 rmoveto
          -28 -19 8 callgsubr
          314 437 294 141 2 18 11 22 6 12 rlinecurve
          -266 -129 461 640 rlineto
          -2 -17 -9 callgsubr
          -18 2 -512 -731 rcurveline
          -253 -123 -2 -16 -9 -18 -11 -17 rlinecurve
          232 111 -218 -311 rlineto
          14 callgsubr
          41 -35 56 223 284 41 callsubr
          43 vhcurveto
          17 callsubr
          -40 -276 -342 -197 hhcurveto
          endchar
        </CharString>
        <CharString name="m">
          268 -5 29 627 34 -25 25 hstemhm
          298 95 367 79 -7 80 279 79 hintmask 00000000
          hintmask 10110110
          -22 24 rmoveto
          19 19 -1 -4 19 hvcurveto
          93 122 179 218 141 143 92 74 rlinecurve
          hintmask 10111010
          65 82 55 19 34 hhcurveto
          29 20 -10 -21 -26 -20 -43 -115 -152 hvcurveto
          -176 -232 63 79 -197 -241 rrcurveto
          4 14 34 6 47 hhcurveto
          20 18 -1 -4 19 hvcurveto
          93 122 171 216 142 141 104 79 rlinecurve
          65 87 44 18 32 hhcurveto
          39 12 -17 -19 -32 -36 -61 -104 -118 hvcurveto
          hintmask 10110110
          -197 -220 -22 -66 -54 vvcurveto
          -47 62 -31 72 187 271 352 42 39 -8 callsubr
          -38 -34 -267 -344 -163 hhcurveto
          -50 -23 10 14 hvcurveto
          7 1 rlineto
          17 3 9 69 72 vhcurveto
          -31 callgsubr
          -55 -56 -20 -81 -100 hvcurveto
          hintmask 10111010
          -44 -36 -52 -48 -60 -61 44 68 6 29 3 48 rrcurveto
          50 3 -35 51 -85 hhcurveto
          -53 -55 -17 -59 -77 hvcurveto
          -81 -58 -127 -128 -187 -216 -5 11 rcurveline
          210 292 rlineto
          hintmask 11010110
          36 51 8 31 2 21 rrcurveto
          -73 callgsubr
          hintmask 10110110
          4 13 34 6 48 hhcurveto
          endchar
        </CharString>
        <CharString name="macron">
          -297 788 54 hstem
          -138 544 vstem
          -138 788 rmoveto
          483 hlineto
          13 18 23 20 25 16 rrcurveto
          -471 hlineto
          -18 -17 -26 -18 -29 -19 rrcurveto
          endchar
        </CharString>
        <CharString name="mu">
          -139 -2 28 hstem
          464 47 vstem
          22 22 rmoveto
          -15 15 24 -9 35 hhcurveto
          76 162 88 163 184 hvcurveto
          -39 -70 -15 -56 -50 vvcurveto
          -47 26 -28 44 67 85 30 75 85 vhcurveto
          2 3 3 7 12 vvcurveto
          6 -3 7 -2 1 vhcurveto
          -80 -81 -90 -33 -48 hhcurveto
          -30 -11 10 15 19 11 33 65 75 hvcurveto
          118 137 202 223 124 128 rrcurveto
          -1 -19 -24 -2 -29 hhcurveto
          -31 -9 2 5 -42 hvcurveto
          -93 -90 -73 -76 -58 -68 1 2 rcurveline
          -8 -10 -31 -38 -60 -70 -82 -76 -80 -59 rlinecurve
          -96 -129 -114 -63 -41 hhcurveto
          -20 -7 9 24 26 22 44 53 65 hvcurveto
          85 101 180 205 161 166 rrcurveto
          -3 -13 -41 0 -17 hhcurveto
          -26 -55 3 4 -17 hvcurveto
          -362 -456 -489 -656 -117 -142 rrcurveto
          -5 17 42 -4 16 hhcurveto
          53 27 5 3 16 hvcurveto
          13 22 210 337 182 248 rrcurveto
          endchar
        </CharString>
        <CharString name="multiply">
          -252 272 490 hstem
          152 663 vstem
          169 272 rmoveto
          302 205 97 -205 16 13 12 10 20 8 rlinecurve
          -98 206 297 201 -10 14 -5 23 -2 15 rlinecurve
          -302 -205 -92 195 -14 -19 -9 -6 -21 -11 rlinecurve
          89 -191 -297 -201 rlineto
          11 -13 6 -23 -16 vvcurveto
          endchar
        </CharString>
        <CharString name="n">
          -125 -2 28 625 34 -25 25 hstemhm
          298 95 23 74 278 80 hintmask 00000000
          hintmask 10110100
          -22 24 -54 callsubr
          hintmask 10111100
          -76 callsubr
          hintmask 11010100
          -69 callgsubr
          hintmask 10110100
          33 callgsubr
        </CharString>
        <CharString name="nacute">
          -125 19 -21 1151 -20 hstem
          728 798 rmoveto
          -5 49 callsubr
          10 15 8 15 24 vhcurveto
          -88 callsubr
          -750 -774 -80 callgsubr
        </CharString>
        <CharString name="nbspace">
          -442 endchar
        </CharString>
        <CharString name="nine">
          194 -2 26 545 24 785 30 hstem
          146 120 949 109 vstem
          146 185 rmoveto
          -89 -1 110 -98 172 hhcurveto
          80 85 16 42 86 hvcurveto
          358 175 253 446 32 348 rrcurveto
          239 22 -105 144 -221 hhcurveto
          -274 -260 -263 -289 -30 hvcurveto
          -179 -21 123 -108 164 hhcurveto
          123 138 76 185 161 hvcurveto
          -490 -165 -268 -316 -276 hhcurveto
          -83 -85 58 49 2 hvcurveto
          16 4 14 7 10 vhcurveto
          10 16 6 8 16 vvcurveto
          25 1 -20 34 -44 hhcurveto
          -50 -32 -36 -49 -2 hvcurveto
          571 408 rmoveto
          -116 -54 69 92 2 hvcurveto
          230 6 266 394 216 hhcurveto
          124 59 -46 -159 -5 hvcurveto
          -252 -5 -274 -328 -219 hhcurveto
          endchar
        </CharString>
        <CharString name="ntilde">
          -125 19 -21 822 27 callsubr
          hintmask 11100000
          527 812 -64 callgsubr
          hintmask 11010000
          -57 callgsubr
          hintmask 11100000
          -59 callgsubr
          -549 -788 -80 callgsubr
        </CharString>
        <CharString name="numbersign">
          103 531 53 239 53 hstem
          46 1324 vstem
          46 22 rmoveto
          1 18 15 1 12 hhcurveto
          9 11 -1 -1 5 hvcurveto
          363 509 rlineto
          221 hlineto
          -363 -509 rlineto
          1 20 13 1 12 hhcurveto
          11 9 -1 -1 7 hvcurveto
          362 509 rlineto
          217 hlineto
          5 18 9 14 15 21 rrcurveto
          -208 hlineto
          170 239 rlineto
          189 hlineto
          4 18 10 15 15 20 rrcurveto
          -180 hlineto
          353 495 rlineto
          -1 -4 -21 -2 -10 hhcurveto
          -10 -15 37 callsubr
          -355 -497 rlineto
          -221 hlineto
          353 495 rlineto
          -1 -4 -20 -2 -13 hhcurveto
          -9 -14 37 callsubr
          -354 -497 rlineto
          -216 hlineto
          -12 -19 -11 -12 -18 -22 rrcurveto
          219 hlineto
          -170 -239 rlineto
          -189 hlineto
          -11 -20 -10 -12 -19 -21 rrcurveto
          191 hlineto
          108 53 rmoveto
          170 239 rlineto
          221 hlineto
          -170 -239 rlineto
          endchar
        </CharString>
        <CharString name="o">
          42 callsubr
          hstem
          30 callgsubr
          395 32 108 28 vstem
          48 -2 -99 callgsubr
        </CharString>
        <CharString name="oacute">
          -10 callsubr
          575 858 -91 callgsubr
          -527 -860 -99 callgsubr
        </CharString>
        <CharString name="ocircumflex">
          -10 callsubr
          374 858 -98 callgsubr
          -326 -860 -99 callgsubr
        </CharString>
        <CharString name="odieresis">
          -433 19 -21 651 453 28 callsubr
          30 callgsubr
          391 -2 callgsubr
          hintmask 10111100
          741 946 -86 callgsubr
          -394 -948 -98 callsubr
          hintmask 11011100
          -85 callgsubr
        </CharString>
        <CharString name="oe">
          21 52 callgsubr
          -121 111 432 89 500 66 hintmask 01111100
          47 -2 rmoveto
          133 147 101 132 101 hvcurveto
          -4 -22 -3 -20 1 -19 rrcurveto
          hintmask 10111100
          -99 3 52 -77 129 hhcurveto
          332 227 350 45 51 hvcurveto
          2 callgsubr
          -33 -38 -227 -350 -312 hhcurveto
          -58 -49 36 63 43 12 51 46 75 hvcurveto
          400 131 114 119 -6 78 rrcurveto
          35 -2 29 callgsubr
          -114 -171 -71 -162 -141 hvcurveto
          10 40 5 40 -2 38 rrcurveto
          80 -4 -60 35 -71 hhcurveto
          -175 -170 -139 -138 -98 hvcurveto
          -49 -71 -53 -115 6 -91 rrcurveto
          hintmask 01111100
          -75 5 51 -58 112 hhcurveto
          545 328 rmoveto
          12 17 5 callgsubr
          182 140 97 99 91 hhcurveto
          32 19 -17 -39 -88 -159 -101 -260 -90 hvcurveto
          -518 -298 rmoveto
          -61 -22 51 36 -1 hvcurveto
          -5 63 34 81 100 124 rrcurveto
          172 139 116 94 76 hhcurveto
          37 34 -22 -65 5 hvcurveto
          8 -130 -110 -206 -178 -125 rrcurveto
          -44 -61 -65 -29 -46 hhcurveto
          endchar
        </CharString>
        <CharString name="ograve">
          -10 callsubr
          556 881 -81 callsubr
          -508 -883 -99 callgsubr
        </CharString>
        <CharString name="one">
          -180 13 1411 hstem
          172 989 vstem
          172 13 rmoveto
          6 20 35 5 39 hhcurveto
          29 58 -5 -1 24 hvcurveto
          275 547 356 630 115 149 rrcurveto
          26 34 12 20 12 vvcurveto
          9 -7 5 -8 -12 -8 -8 -43 -27 vhcurveto
          -108 -181 -450 -474 -181 -107 -20 -11 -13 -6 -14 -6 rrcurveto
          -25 -8 -9 -11 -12 vvcurveto
          -12 9 -8 14 24 33 25 22 31 vhcurveto
          117 84 125 113 181 191 -180 -282 -279 -419 -182 -258 rrcurveto
          endchar
        </CharString>
        <CharString name="onehalf">
          1273 54 81 25 53 226 25 421 28 hstemhm
          1435 61 443 97 hintmask 00000000
          hintmask 01111100
          -42 callgsubr
          hintmask 11111100
          -12 -12 37 callsubr
          -1211 -982 -43 callgsubr
          hintmask 01111100
          -63 callsubr
          441 -926 rmoveto
          -8 5 -5 6 9 8 5 9 10 vhcurveto
          61 71 79 31 54 hhcurveto
          46 42 -12 -48 57 hvcurveto
          -33 42 37 -13 44 hhcurveto
          109 117 112 86 14 -6 8 -8 -7 -4 -8 -11 -1 hvcurveto
          -59 -8 -63 -61 -72 hhcurveto
          -27 -26 11 25 -37 hvcurveto
          30 -45 -43 12 -59 hhcurveto
          -57 -72 -15 -47 -88 hvcurveto
          56 46 58 31 162 73 rrcurveto
          277 122 168 152 164 vvcurveto
          97 -66 77 54 callgsubr
          -151 -37 23 -63 83 40 56 22 31 40 vhcurveto
          59 49 33 47 15 vvcurveto
          6 -3 4 -7 -5 -5 -3 -9 -8 vhcurveto
          -82 -62 -70 -55 -63 hhcurveto
          -37 -13 22 35 106 206 258 138 60 39 11 callgsubr
          -82 -82 -36 vvcurveto
          endchar
        </CharString>
        <CharString name="onequarter">
          1274 293 30 86 26 hstem
          1192 40 vstem
          -42 callgsubr
          -12 -12 37 callsubr
          -1211 -982 -56 callgsubr
          431 -659 rmoveto
          -33 21 -27 49 55 58 28 80 93 vhcurveto
          72 -24 42 -15 39 -11 36 39 callsubr
          9 24 2 9 hhcurveto
          18 48 -2 -3 18 22 callgsubr
          75 74 19 30 48 hvcurveto
          15 9 1 7 5 vvcurveto
          4 -3 5 -7 -6 -4 -3 -13 -29 vhcurveto
          -20 -33 -58 -13 -50 hhcurveto
          -27 -43 4 9 -48 hvcurveto
          102 56 callsubr
          13 8 4 5 6 vvcurveto
          5 -3 4 -8 -8 11 callsubr
          -20 6 -53 16 -40 13 -32 9 9 9 rcurveline
          127 117 90 94 112 120 46 51 36 27 30 20 rrcurveto
          14 8 7 2 4 vvcurveto
          5 -6 4 -17 -7 -61 -5 -7 -73 vhcurveto
          -84 -131 -163 57 callgsubr
          -38 -25 3 -28 hhcurveto
          -92 -69 -51 -50 hvcurveto
          40 -9 rmoveto
          32 65 52 48 20 22 -4 -8 30 48 callsubr
          -75 -22 -7 -24 hhcurveto
          -17 -11 10 16 hvcurveto
          endchar
        </CharString>
        <CharString name="onesuperior">
          -49 572 850 hstem
          465 597 vstem
          465 572 -56 callgsubr
          endchar
        </CharString>
        <CharString name="ordfeminine">
          54 869 26 457 32 hstem
          514 79 229 74 140 25 vstem
          617 869 rmoveto
          66 96 57 148 127 hvcurveto
          7 -4 rlineto
          -60 -71 -31 -46 -33 vvcurveto
          -30 22 -21 50 50 69 25 58 64 vhcurveto
          9 9 3 6 5 vvcurveto
          6 -5 4 -6 -4 -6 -5 -10 -11 vhcurveto
          -52 -60 -51 -17 -25 hhcurveto
          -17 -8 4 15 18 22 48 67 79 hvcurveto
          252 303 rlineto
          -2 -14 -29 -1 -13 hhcurveto
          -18 -26 3 3 -10 hvcurveto
          -20 -25 -22 -25 -31 -36 rrcurveto
          5 15 2 13 11 vvcurveto
          40 -33 23 -51 -109 -117 -41 -155 -134 vhcurveto
          -65 -75 -38 -79 -66 vvcurveto
          -64 38 -35 65 vhcurveto
          3 26 rmoveto
          -19 -8 11 32 48 34 59 75 90 hvcurveto
          157 129 114 60 49 hhcurveto
          25 17 -11 -22 -24 -11 -32 -17 -33 hvcurveto
          -81 -97 rlineto
          -191 -160 -96 -47 -51 hhcurveto
          endchar
        </CharString>
        <CharString name="ordmasculine">
          -82 869 32 446 36 hstem
          514 98 415 26 vstem
          634 869 rmoveto
          99 119 69 96 84 hvcurveto
          69 79 48 95 89 vvcurveto
          48 -35 38 -72 -130 -138 -102 -103 -78 vhcurveto
          -41 -54 -45 -89 -66 vvcurveto
          -57 38 -43 82 vhcurveto
          21 32 rmoveto
          -29 -14 10 31 60 39 74 71 81 hvcurveto
          129 111 92 61 44 hhcurveto
          38 20 -15 -40 -61 -30 -64 -41 -59 hvcurveto
          -137 -95 -122 -70 -84 hhcurveto
          endchar
        </CharString>
        <CharString name="oslash">
          42 callsubr
          193 -20 hstem
          30 callgsubr
          395 32 108 28 vstem
          -2 2 rmoveto
          -128 -171 rlineto
          1 5 5 0 6 hhcurveto
          7 6 0 -1 9 hvcurveto
          126 168 rlineto
          4 5 -1 5 hhcurveto
          -90 callsubr
          -2 33 -12 25 -17 19 174 231 rcurveline
          -16 hlineto
          -10 -11 0 2 -6 hvcurveto
          -159 -212 rlineto
          11 -21 -27 6 -27 -62 callgsubr
          5 -63 37 -51 77 -15 rrcurveto
          29 39 rmoveto
          -26 18 -10 31 25 vvcurveto
          -23 callgsubr
          -31 callsubr
          9 9 -2 -3 9 hvcurveto
          -421 -615 rmoveto
          448 595 11 -14 8 -20 2 -28 rlinecurve
          -77 callsubr
          -6 -6 0 1 -5 hvcurveto
          endchar
        </CharString>
        <CharString name="otilde">
          -433 19 -21 651 401 -160 27 callsubr
          30 callgsubr
          hintmask 10110100
          360 882 -64 callgsubr
          hintmask 10101100
          -57 callgsubr
          hintmask 11000100
          -59 callgsubr
          -312 -884 -99 callgsubr
        </CharString>
        <CharString name="p">
          -309 45 callsubr
          251 51 407 54 vstem
          -153 19 rmoveto
          183 39 callgsubr
          69 57 22 63 hhcurveto
          26 15 -16 -16 -24 -11 -31 -118 34 callsubr
          37 -38 79 203 238 301 90 79 vhcurveto
          10 callsubr
          -97 -84 53 callsubr
          -25 17 28 29 27 32 133 95 hvcurveto
          224 44 callsubr
          -67 -81 -38 -19 -32 -62 vhcurveto
          -102 -53 -148 -122 -209 -201 -7 8 rcurveline
          242 326 -36 -41 354 427 rrcurveto
          -6 -19 -19 -1 -19 hhcurveto
          -20 -26 1 5 -48 hvcurveto
          -283 -385 -1 12 -192 -267 -209 -304 -340 -457 -204 -276 rrcurveto
          -6 18 39 -3 16 hhcurveto
          51 29 4 4 14 hvcurveto
          15 27 298 472 166 221 rrcurveto
          endchar
        </CharString>
        <CharString name="paragraph">
          581 -220 26 104 26 -14 95 440 26 723 23 170 26 hstemhm
          66 41 557 123 1246 93 10 callgsubr
          hintmask 1101111100000000
          66 -75 rmoveto
          -79 8 63 -66 151 hhcurveto
          83 97 42 109 123 hvcurveto
          -14 23 27 -7 32 hhcurveto
          143 215 124 482 314 hvcurveto
          197 302 133 205 96 135 rrcurveto
          hintmask 1011111100000000
          26 -10 rlineto
          -10 26 10 -12 15 hhcurveto
          10 5 4 13 -1 hvcurveto
          -3 4 -1 12 -41 13 -9 2 -10 3 -11 4 rrcurveto
          166 118 57 52 51 hhcurveto
          hintmask 1101111110000000
          17 14 -4 -6 11 hvcurveto
          -15 -7 -11 -20 4 -21 rrcurveto
          -27 4 21 -24 27 hhcurveto
          27 21 22 40 -7 hvcurveto
          37 -7 -35 36 -62 hhcurveto
          -71 -94 -10 -205 -178 hvcurveto
          11 -51 -64 8 -76 hhcurveto
          -399 -472 -310 -295 50 hvcurveto
          -92 15 80 -75 135 hhcurveto
          37 38 8 15 36 hvcurveto
          -375 -511 -239 -165 -107 2 rrcurveto
          -122 -51 51 64 -7 hvcurveto
          -1 2 0 3 2 vvcurveto
          14 -8 17 0 18 2 30 3 24 26 -3 25 -3 33 -30 10 -21 -2 rrcurveto
          hintmask 1101111100000000
          -41 -3 -49 -29 4 -60 rrcurveto
          725 644 rmoveto
          278 -48 433 359 296 11 11 -1 10 hhcurveto
          -273 -381 79 73 -270 -374 rrcurveto
          -27 -48 -51 -13 -46 hhcurveto
          -61 -34 32 54 -9 hvcurveto
          -177 -617 rmoveto
          88 81 101 115 118 156 240 326 162 262 221 312 44 -3 39 -4 35 -7 -89 -106 -110 -154 -138 -224 rrcurveto
          -657 -406 -162 -113 -82 hhcurveto
          -32 -14 5 11 -15 hvcurveto
          endchar
        </CharString>
        <CharString name="parenleft">
          55 callsubr
          461 88 vstem
          461 238 rmoveto
          4 -170 49 -128 65 -105 rrcurveto
          -20 14 2 -2 6 hhcurveto
          5 1 5 5 5 vvcurveto
          -1 8 -4 13 -2 9 -28 89 -23 95 -4 109 -14 479 252 474 548 293 rrcurveto
          19 10 -1 1 6 40 callsubr
          3 -6 -9 -6 -3 -10 -24 vhcurveto
          -495 -215 -366 -449 18 -504 rrcurveto
          endchar
        </CharString>
        <CharString name="parenright">
          55 callsubr
          1399 88 vstem
          595 -178 rmoveto
          -6 4 -3 6 9 6 3 10 24 vhcurveto
          495 215 366 449 -18 504 -4 170 -49 128 -65 105 rrcurveto
          20 -14 -2 2 -6 hhcurveto
          -5 -1 -5 -5 -5 vvcurveto
          1 -8 4 -13 2 -9 28 -89 23 -95 4 -109 14 -479 -252 -474 -548 -293 rrcurveto
          -19 -10 1 -1 -6 vvcurveto
          endchar
        </CharString>
        <CharString name="percent">
          427 -2 30 486 38 278 32 485 37 hstem
          308 108 277 108 62 30 355 31 vstem
          455 830 rmoveto
          207 231 245 195 66 -43 48 -78 -225 -239 -268 -153 -61 42 -72 105 hvcurveto
          -202 -835 rmoveto
          2 19 7 1 12 hhcurveto
          10 10 -1 -2 7 hvcurveto
          980 1376 rlineto
          -1 -4 -21 -2 -10 hhcurveto
          -10 -8 37 callsubr
          -752 -511 rmoveto
          -47 -21 20 46 55 37 93 71 83 hvcurveto
          154 133 92 34 50 hhcurveto
          37 27 -22 -60 -174 -226 -229 -153 hvcurveto
          209 -731 rmoveto
          -61 43 -72 105 207 231 245 194 66 -43 49 -78 -224 -241 -269 -152 vhcurveto
          108 -38 rmoveto
          56 38 82 71 84 vhcurveto
          154 133 91 45 52 hhcurveto
          36 26 -23 -59 -172 -225 -232 -152 -49 -21 21 44 hvcurveto
          endchar
        </CharString>
        <CharString name="period">
          -441 -2 184 hstem
          79 191 vstem
          79 72 rmoveto
          -35 callgsubr
          endchar
        </CharString>
        <CharString name="periodcentered">
          -441 371 184 hstem
          -18 191 vstem
          53 371 -20 callsubr
          endchar
        </CharString>
        <CharString name="plus">
          -230 465 55 hstem
          172 649 vstem
          264 172 -49 callgsubr
          endchar
        </CharString>
        <CharString name="plusminus">
          39 130 52 534 55 hstem
          172 744 vstem
          359 423 -49 callgsubr
          -367 -586 rmoveto
          593 hlineto
          4 18 11 14 13 20 rrcurveto
          -579 hlineto
          -11 -20 -11 -10 -20 -22 rrcurveto
          endchar
        </CharString>
        <CharString name="q">
          -291 -787 22 763 26 617 29 hstem
          -344 32 149 82 410 30 170 25 vstem
          -41 -2 rmoveto
          54 102 38 90 114 hvcurveto
          -372 -384 -201 -307 -150 vvcurveto
          -47 25 -25 42 210 323 386 432 95 vhcurveto
          -20 18 30 -13 38 hhcurveto
          179 252 41 callsubr
          36 0 callgsubr
          -38 -30 -261 -344 -156 hhcurveto
          -37 -33 19 26 -6 hvcurveto
          -1 18 -3 16 -5 12 119 136 rcurveline
          137 157 73 106 111 131 rrcurveto
          -1 -17 -39 -1 -17 hhcurveto
          -22 -25 2 5 -12 hvcurveto
          -32 -41 -30 -41 -53 -66 rrcurveto
          7 21 4 23 25 vvcurveto
          77 -57 22 -66 -143 -153 -53 -203 -176 vhcurveto
          -86 -98 -36 -103 -86 vvcurveto
          -81 39 -48 83 vhcurveto
          5 30 rmoveto
          -31 -14 14 37 62 43 88 97 118 hvcurveto
          202 172 160 92 64 hhcurveto
          35 39 -21 -40 -73 -24 -47 -27 -37 hvcurveto
          -19 -24 -22 -26 -24 -29 rrcurveto
          -235 -196 -163 -81 -90 hhcurveto
          365 29 rmoveto
          -397 -85 -375 -425 -146 hhcurveto
          -26 -9 11 22 73 406 479 235 271 hvcurveto
          3 -8 0 -11 -3 -15 rrcurveto
          endchar
        </CharString>
        <CharString name="question">
          -295 -2 156 1106 25 hstem
          163 164 165 122 341 125 vstem
          383 307 rmoveto
          14 6 8 11 8 hvcurveto
          8 14 0 11 18 25 58 80 142 153 146 115 rrcurveto
          273 215 24 78 82 vvcurveto
          115 -121 71 -109 -187 -171 -161 -83 -30 20 -26 31 41 28 32 44 2 vhcurveto
          2 25 0 35 31 46 rrcurveto
          46 30 65 47 87 hhcurveto
          73 53 -49 -86 -118 -56 -89 -160 -159 hvcurveto
          -135 -133 -72 -82 -117 -148 rrcurveto
          -29 -36 -17 -19 -17 vvcurveto
          -9 5 -8 9 vhcurveto
          -220 -245 rmoveto
          -37 26 -27 36 50 52 45 48 38 -24 25 -37 -57 -46 -46 -46 vhcurveto
          endchar
        </CharString>
        <CharString name="questiondown">
          45 -158 25 1106 156 hstem
          265 125 341 122 165 164 vstem
          1018 1036 rmoveto
          -38 24 -25 37 57 46 46 46 37 -26 27 -36 -50 -52 -45 -48 vhcurveto
          -753 -1008 rmoveto
          -115 121 -71 109 187 171 161 83 30 -20 26 -31 -41 -28 -32 -44 -2 vhcurveto
          -2 -25 0 -35 -31 -46 rrcurveto
          -46 -30 -65 -47 -87 hhcurveto
          -73 -53 49 86 118 56 89 160 159 hvcurveto
          135 133 72 82 117 148 rrcurveto
          29 36 17 19 17 vvcurveto
          9 -5 8 -9 -14 -6 -8 -11 -8 vhcurveto
          -8 -14 0 -11 -18 -25 -58 -80 -142 -153 -146 -115 rrcurveto
          -273 -215 -24 -78 -82 vvcurveto
          endchar
        </CharString>
        <CharString name="quotedbl">
          263 52 callsubr
          736 vstem
          1150 1175 rmoveto
          -8 7 -3 5 6 16 6 203 174 vhcurveto
          150 175 21 19 38 vvcurveto
          24 -12 17 -38 -6 callgsubr
          -123 -230 rrcurveto
          -13 -22 -8 -15 -8 vvcurveto
          -345 -11 -42 callsubr
        </CharString>
        <CharString name="quotedblbase">
          -329 51 callsubr
          151 144 vstem
          235 -117 rmoveto
          -53 callsubr
          -40 -49 -51 -42 vhcurveto
          -206 93 -36 callgsubr
        </CharString>
        <CharString name="quotedblleft">
          255 1249 396 hstem
          725 144 181 144 vstem
          1105 1249 rmoveto
          -5 callgsubr
          -7 3 -11 -25 -67 -30 -43 -56 32 callgsubr
          -325 hmoveto
          -5 callgsubr
          -8 3 -11 -24 -68 -30 -43 -55 32 callgsubr
          endchar
        </CharString>
        <CharString name="quotedblright">
          -319 45 callgsubr
          171 144 vstem
          1132 1262 rmoveto
          -10 8 -3 10 24 69 30 42 54 vhcurveto
          134 -12 callgsubr
          10 -20 -29 vvcurveto
          -62 -84 8 callsubr
          -298 -13 -36 callsubr
        </CharString>
        <CharString name="quoteleft">
          -187 1262 397 hstem
          766 144 vstem
          821 1262 rmoveto
          40 49 51 42 hvcurveto
          26 -11 21 28 vvcurveto
          62 85 106 91 30 vhcurveto
          17 7 5 4 6 vvcurveto
          10 -8 4 -11 -24 -68 -30 -43 -55 vhcurveto
          -133 -104 -32 -82 -61 vvcurveto
          -49 24 -28 31 vhcurveto
          endchar
        </CharString>
        <CharString name="quoteright">
          -323 45 callgsubr
          vstem
          834 1249 -36 callsubr
        </CharString>
        <CharString name="quotesinglbase">
          -623 51 callsubr
          vstem
          29 -24 -36 callgsubr
        </CharString>
        <CharString name="quotesingle">
          -95 52 callsubr
          378 vstem
          805 1164 -42 callsubr
        </CharString>
        <CharString name="r">
          -483 -2 34 hstem
          42 131 vstem
          42 101 -89 callsubr
          endchar
        </CharString>
        <CharString name="rcaron">
          -483 -34 callgsubr
          42 131 vstem
          480 861 -26 callsubr
          -6 31 -9 -27 callsubr
          -438 -760 -89 callsubr
          endchar
        </CharString>
        <CharString name="rcommaaccent">
          -483 53 callgsubr
          805 -20 hstem
          -236 123 155 131 vstem
          42 101 -89 callsubr
          -155 -197 rmoveto
          34 -16 19 -30 40 callgsubr
          vhcurveto
          -60 callgsubr
          endchar
        </CharString>
        <CharString name="registered">
          103 491 37 147 50 516 30 125 32 hstem
          268 42 656 103 190 45 vstem
          624 491 rmoveto
          223 195 133 126 91 hvcurveto
          63 49 108 147 192 vvcurveto
          196 -185 94 -165 -409 -277 -342 -288 -164 116 -143 240 vhcurveto
          1 37 rmoveto
          -232 -83 151 132 271 238 314 383 166 162 -75 -195 -144 -36 -80 -44 -57 hvcurveto
          -1 17 -19 0 -20 -45 -5 -11 -6 -12 -7 -11 -35 -33 rcurveline
          -4 -4 -8 -6 4 -7 1 -2 1 -1 2 -1 rrcurveto
          -108 -91 -164 -93 -202 hhcurveto
          -182 161 rmoveto
          100 hlineto
          294 551 rlineto
          1 6 6 0 7 hhcurveto
          89 21 -46 -45 -108 -129 -39 -93 -21 hvcurveto
          -32 -10 -2 -3 -11 vvcurveto
          -6 1 -8 5 -6 vhcurveto
          16 -25 3 -9 15 -62 rrcurveto
          -82 17 18 -85 75 hhcurveto
          39 71 20 16 15 hvcurveto
          -9 8 10 13 -3 8 rrcurveto
          -10 -9 -37 -5 -10 hhcurveto
          -28 -29 41 73 -30 hvcurveto
          -36 71 6 22 -36 11 rrcurveto
          126 20 169 72 120 vvcurveto
          59 -42 61 -180 -4 vhcurveto
          -54 -1 -67 -5 -69 -11 -2 -9 -3 -16 -4 -10 14 6 40 6 31 4 rrcurveto
          endchar
        </CharString>
        <CharString name="ring">
          -518 788 26 217 28 hstem
          -138 57 208 58 vstem
          -54 788 -26 callgsubr
          endchar
        </CharString>
        <CharString name="ring.cap">
          59 callsubr
          272 hstem
          -99 57 207 58 vstem
          -15 1457 rmoveto
          20 callsubr
          -46 28 -30 56 hvcurveto
          18 27 rmoveto
          -31 -14 17 36 36 callgsubr
          hvcurveto
          endchar
        </CharString>
        <CharString name="s">
          -571 -23 36 145 24 -16 81 hstemhm
          -254 26 492 23 hintmask 00000000
          hintmask 11011000
          -58 -23 rmoveto
          134 160 44 139 63 hvcurveto
          -2 10 11 0 12 hhcurveto
          103 144 184 47 46 0 callgsubr
          -37 -27 -155 -187 -86 hhcurveto
          -10 -9 1 1 -8 hvcurveto
          hintmask 10111000
          14 39 6 45 -2 53 -6 105 -35 136 2 72 rrcurveto
          20 -5 3 36 43 vhcurveto
          31 36 14 19 1 16 rrcurveto
          20 -17 13 -23 -30 -14 -38 -40 -8 vhcurveto
          hintmask 11011000
          -78 -100 -142 -168 -45 -52 -18 -22 -19 -21 3 -6 rrcurveto
          -9 5 11 3 2 hhcurveto
          -2 12 6 32 27 hvcurveto
          57 69 103 127 76 94 rrcurveto
          -3 0 -3 -1 -3 vhcurveto
          -36 -104 1 -128 -6 -64 rrcurveto
          -273 -33 -176 -88 -84 hhcurveto
          -41 -116 10 76 45 41 28 15 15 hvcurveto
          -5 9 17 -16 16 hhcurveto
          35 33 22 21 2 hvcurveto
          25 -15 13 -26 -37 -116 -48 -99 -110 143 -13 53 vhcurveto
          endchar
        </CharString>
        <CharString name="section">
          105 -231 25 172 94 1031 97 174 22 hstemhm
          73 40 271 124 57 103 -7 104 57 123 275 37 10 callgsubr
          hintmask 1101111011000000
          73 -58 rmoveto
          -91 -2 97 -82 115 hhcurveto
          225 155 185 198 5 hvcurveto
          1 42 -6 40 -15 44 164 22 128 111 5 170 2 77 -41 98 -53 100 rrcurveto
          hintmask 1111110111000000
          -56 112 -34 66 2 72 2 94 52 76 75 43 rrcurveto
          24 44 58 19 57 hhcurveto
          102 67 -66 -77 -2 hvcurveto
          -1 -18 -3 -17 -11 -17 rrcurveto
          14 -10 -13 7 -16 hhcurveto
          -27 -26 -23 -31 -2 hvcurveto
          -26 21 -17 26 54 43 66 61 2 vhcurveto
          91 3 -89 75 -115 hhcurveto
          -82 -77 -23 -44 -61 hvcurveto
          -104 -73 -67 -121 -4 -122 -1 -42 6 -40 15 -44 -164 -23 -128 -111 -5 -169 -2 -77 42 -97 51 -103 rrcurveto
          hintmask 1101111011000000
          60 -110 30 -68 -70 vvcurveto
          -158 -5 -118 -95 -158 hhcurveto
          -100 -73 62 78 2 hvcurveto
          18 1 16 11 17 vhcurveto
          -12 9 13 -7 16 hhcurveto
          29 25 21 31 25 -20 17 -26 -52 -45 -58 -60 -1 hvcurveto
          566 359 rmoveto
          -12 32 -17 34 -21 39 -61 109 -22 68 2 67 3 109 77 76 102 18 13 -32 17 -34 22 -39 61 -112 20 -66 -1 -68 -3 -114 -78 -71 -102 -16 rrcurveto
          endchar
        </CharString>
        <CharString name="semicolon">
          -441 -189 841 -184 184 hstemhm
          -190 160 22 191 hintmask 00000000
          hintmask 01010000
          63 468 -20 callsubr
          hintmask 10110000
          -93 -339 rmoveto
          19 callgsubr
          -20 callgsubr
          endchar
        </CharString>
        <CharString name="seven">
          20 1251 30 24 105 hstemhm
          439 116 6 125 hintmask 00000000
          hintmask 10100000
          439 -81 rmoveto
          -231 115 -165 94 -55 vhcurveto
          hintmask 10010000
          -7 12 10 -6 5 hhcurveto
          3 8 2 6 8 -18 14 -17 25 hvcurveto
          hintmask 10100000
          -46 66 -50 150 185 vvcurveto
          367 196 427 435 429 vhcurveto
          119 119 105 85 18 14 rrcurveto
          30 21 7 5 12 vvcurveto
          10 -7 6 -15 -5 -16 -2 -15 -18 vhcurveto
          -73 -79 -32 -35 -88 hhcurveto
          -55 -44 14 30 -45 hvcurveto
          hintmask 11010000
          51 -75 -48 34 -92 hhcurveto
          -108 -98 -46 -97 -79 hvcurveto
          10 37 10 51 22 vvcurveto
          24 -10 3 -8 -15 -3 -11 -27 -2 vhcurveto
          -23 -180 -135 -170 -61 -68 rrcurveto
          -22 -23 -6 -5 -6 vvcurveto
          -5 6 -4 6 29 100 116 181 108 vhcurveto
          73 101 94 3 51 -1 61 -1 31 -19 51 -36 rrcurveto
          hintmask 10100000
          -41 61 33 -16 65 hhcurveto
          68 66 19 40 65 hvcurveto
          -46 -42 -48 -47 -16 -15 rrcurveto
          -469 -453 -246 -434 -341 vvcurveto
          endchar
        </CharString>
        <CharString name="six">
          233 -5 29 867 26 466 27 hstem
          260 117 721 104 177 86 vstem
          260 341 rmoveto
          -200 -4 71 -146 181 hhcurveto
          269 415 321 395 10 hvcurveto
          130 1 -66 76 -121 hhcurveto
          -212 -211 -233 -203 -5 hvcurveto
          -11 6 -9 6 8 4 5 22 4 vhcurveto
          197 34 251 206 106 hhcurveto
          60 32 -38 -77 -1 hvcurveto
          -2 -114 -67 -157 -96 -139 rrcurveto
          -261 -183 -133 -81 -115 hhcurveto
          -88 -39 74 125 2 hvcurveto
          358 7 415 802 453 hhcurveto
          81 48 -29 -35 -2 hvcurveto
          -17 -8 -10 -25 -13 vhcurveto
          -32 -19 -16 -24 -1 -29 rrcurveto
          -29 24 -31 45 51 47 53 70 1 vhcurveto
          62 2 -68 78 -154 hhcurveto
          -453 -523 -642 -427 -9 hvcurveto
          endchar
        </CharString>
        <CharString name="slash">
          -335 -106 1488 hstem
          6 1131 vstem
          6 -106 rmoveto
          1 17 15 1 13 hhcurveto
          9 10 -1 -1 6 hvcurveto
          1061 1484 rlineto
          -7 -20 -2 -11 hhcurveto
          -10 -14 2 4 -9 hvcurveto
          endchar
        </CharString>
        <CharString name="space">
          -464 endchar
        </CharString>
        <CharString name="sterling">
          553 -50 69 -21 29 142 35 322 29 338 22 471 23 hstemhm
          -19 36 601 64 1245 70 10 callgsubr
          hintmask 0111111110000000
          -19 96 rmoveto
          -47 65 -51 117 122 116 27 60 113 vhcurveto
          1 2 -1 1 hhcurveto
          -103 233 199 -31 123 hhcurveto
          184 153 98 61 49 hvcurveto
          2 3 7 9 17 callgsubr
          4 -6 vhcurveto
          hintmask 1011111110000000
          -95 -116 -95 -25 -169 hhcurveto
          -81 -201 19 83 -221 hvcurveto
          133 85 132 131 140 189 rrcurveto
          381 hlineto
          1 8 4 13 7 8 rrcurveto
          -372 hlineto
          64 88 66 99 69 113 23 37 rcurveline
          454 15 320 200 204 vvcurveto
          59 -48 39 -98 -188 -277 -153 -341 -280 vhcurveto
          -285 13 -139 100 125 vvcurveto
          143 172 98 171 22 vhcurveto
          26 3 7 3 5 vvcurveto
          5 -4 3 -18 -59 -99 -26 -38 -73 vhcurveto
          -105 -57 -82 -82 -95 vvcurveto
          -127 166 -102 304 -15 vhcurveto
          -48 -61 -49 -66 -48 -72 -34 -50 -31 -46 -30 -43 rrcurveto
          -181 hlineto
          -6 -8 -9 -13 -11 -8 rrcurveto
          187 hlineto
          -131 -188 -97 -119 -87 -75 rrcurveto
          60 -167 -74 0 -60 hhcurveto
          hintmask 0111111110000000
          -150 -81 -58 -50 hvcurveto
          1257 819 rmoveto
          285 188 216 186 201 hhcurveto
          60 24 -41 -35 -191 -278 -185 -411 -19 hvcurveto
          -1221 -817 rmoveto
          38 61 33 108 117 51 -12 -50 112 vhcurveto
          -63 -89 -83 -17 -104 hhcurveto
          -127 -46 41 30 hvcurveto
          endchar
        </CharString>
        <CharString name="t">
          -734 -2 28 827 29 hstem
          -169 69 vstem
          -50 26 rmoveto
          -31 1 -19 11 20 vvcurveto
          29 38 73 250 337 vhcurveto
          264 356 rlineto
          283 hlineto
          17 8 5 10 9 -8 5 -20 hvcurveto
          -258 hlineto
          193 260 rlineto
          -3 -17 -15 -1 -11 hhcurveto
          -54 -1 -25 2 -17 3 -185 -260 rcurveline
          -91 hlineto
          -23 -15 -2 -14 -11 9 -2 21 hvcurveto
          79 hlineto
          -258 -363 rlineto
          -214 -301 -20 -41 -72 vvcurveto
          -45 37 -33 73 204 239 301 90 78 vhcurveto
          -22 17 -81 -97 -225 -281 -184 -2 rlinecurve
          endchar
        </CharString>
        <CharString name="thorn">
          -312 45 callsubr
          247 52 407 53 vstem
          -156 19 rmoveto
          181 39 callgsubr
          71 56 22 62 hhcurveto
          27 16 -16 -16 -24 -13 -31 -117 34 callsubr
          38 -38 78 202 239 301 90 79 -8 callsubr
          -97 -85 53 callsubr
          -24 17 28 29 26 32 132 95 hvcurveto
          225 44 callsubr
          -66 -81 -39 -19 -32 -62 vhcurveto
          -102 -53 -147 -122 -210 -201 -8 8 rcurveline
          252 326 455 561 367 427 rrcurveto
          -5 -20 -19 -2 -18 hhcurveto
          -20 -27 1 5 -48 hvcurveto
          -292 -385 -496 -590 -200 -267 -227 -304 -366 -457 -221 -276 rrcurveto
          -6 18 38 -3 17 hhcurveto
          51 28 4 4 15 hvcurveto
          14 27 340 472 187 221 rrcurveto
          endchar
        </CharString>
        <CharString name="three">
          171 -238 23 826 39 33 27 673 27 hstem
          -105 124 387 82 476 149 83 133 vstem
          -42 18 rmoveto
          -37 -26 -28 -39 -82 173 -107 190 457 398 423 250 161 -122 78 -159 -31 hvcurveto
          331 136 166 235 145 vvcurveto
          169 -105 82 -189 -286 -343 -344 -230 -101 63 -52 83 148 270 246 220 18 -3 5 -7 -7 -2 -5 -14 -3 vhcurveto
          -186 -19 -224 -257 -144 hhcurveto
          -56 -17 38 49 203 315 383 229 102 62 -42 -138 -177 -94 -217 -290 -147 hvcurveto
          -162 -82 -57 -37 -67 -72 rrcurveto
          -14 -15 -14 -25 -16 vvcurveto
          -14 6 -7 10 14 7 6 15 5 vhcurveto
          5 14 2 10 9 14 rrcurveto
          88 60 135 70 115 hhcurveto
          59 39 -33 -63 -370 -354 -360 -357 -87 -112 40 65 -40 hvcurveto
          3 16 2 24 13 vvcurveto
          49 -25 26 -36 vhcurveto
          endchar
        </CharString>
        <CharString name="threequarters">
          1302 293 30 47 26 54 195 236 26 295 27 hstem
          179 78 167 53 257 104 343 38 vstem
          -42 callgsubr
          -12 -12 37 callsubr
          -1317 -923 -14 callgsubr
          -68 callsubr
          928 -116 rmoveto
          -33 19 -27 48 56 57 29 79 94 vhcurveto
          71 -24 42 -15 39 -11 37 39 callsubr
          11 21 2 11 hhcurveto
          18 48 -2 -3 17 22 callgsubr
          76 73 19 30 49 hvcurveto
          13 9 3 7 5 vvcurveto
          4 -4 5 -8 -4 -6 -3 -13 -29 vhcurveto
          -20 -32 -59 -13 -49 hhcurveto
          -27 -43 4 9 -48 hvcurveto
          103 56 callsubr
          12 8 5 5 6 vvcurveto
          5 -4 4 -7 -9 11 callsubr
          -19 6 -53 16 -40 13 -33 9 10 9 rcurveline
          126 117 90 94 111 120 47 51 35 27 32 20 rrcurveto
          14 8 5 2 4 vvcurveto
          5 -5 4 -16 -7 -62 -5 -7 -74 vhcurveto
          -82 -131 -164 57 callgsubr
          -39 -25 3 -28 hhcurveto
          -92 -66 -51 -50 hvcurveto
          38 -9 rmoveto
          32 66 52 48 20 22 -4 -8 29 48 callsubr
          -74 -22 -7 -26 hhcurveto
          -15 -12 10 16 hvcurveto
          endchar
        </CharString>
        <CharString name="threesuperior">
          -102 551 26 395 27 63 26 295 27 hstemhm
          275 78 167 53 257 104 18 98 hintmask 00000000
          hintmask 11111110
          349 631 -14 callgsubr
          vhcurveto
          hintmask 11111111
          -68 callsubr
          endchar
        </CharString>
        <CharString name="tilde">
          -333 820 75 10 75 hstemhm
          -131 494 hintmask 00000000
          hintmask 01100000
          -121 812 -51 callsubr
          hintmask 11100000
          -47 callgsubr
          -57 callgsubr
          hintmask 01100000
          -59 callgsubr
          endchar
        </CharString>
        <CharString name="tilde.cap">
          -791 1500 75 -62 -21 94 74 9 -20 hstemhm
          hintmask 10010000
          93 1500 rmoveto
          -29 callsubr
          -58 callsubr
          hintmask 01100000
          -57 callsubr
          7 5 4 12 7 vhcurveto
          -28 callgsubr
          hintmask 10100000
          -40 60 22 -7 30 hhcurveto
          endchar
        </CharString>
        <CharString name="two">
          277 -2 110 61 65 421 27 701 27 hstem
          11 36 363 72 750 131 vstem
          11 -36 rmoveto
          -16 5 -6 6 4 17 3 8 4 vhcurveto
          4 11 0 8 3 5 rrcurveto
          96 54 171 96 133 hhcurveto
          58 89 -14 -83 101 hvcurveto
          -53 66 50 -21 71 hhcurveto
          113 67 40 71 72 hvcurveto
          55 57 56 95 48 vvcurveto
          20 -7 7 -8 -11 5 -24 -18 -8 vhcurveto
          -122 -43 -96 -64 -97 hhcurveto
          -47 -42 17 40 -61 hvcurveto
          48 -73 -71 21 -96 hhcurveto
          -131 -105 -20 -91 -162 hvcurveto
          109 103 87 40 300 133 rrcurveto
          454 199 256 272 267 vvcurveto
          152 -91 121 -187 -342 -333 -352 -249 -60 22 -94 146 59 75 30 53 65 vhcurveto
          97 78 61 82 23 vvcurveto
          5 -4 3 -5 -6 -6 -1 -17 -11 vhcurveto
          -138 -96 -128 -91 -101 hhcurveto
          -63 -33 42 55 174 318 430 278 101 53 -40 -157 -246 -216 -307 -451 -224 hvcurveto
          -220 -108 -140 -94 -86 -78 rrcurveto
          -73 -66 -35 -65 -34 vvcurveto
          endchar
        </CharString>
        <CharString name="twosuperior">
          16 551 81 23 54 226 26 421 28 hstemhm
          507 61 443 98 hintmask 00000000
          hintmask 01111100
          286 551 rmoveto
          9 7 5 8 10 hvcurveto
          61 71 80 30 53 hhcurveto
          47 42 -11 -47 56 hvcurveto
          hintmask 11111100
          -34 42 37 -12 44 hhcurveto
          110 116 112 85 15 -5 6 -9 -6 -4 -6 -11 -1 hvcurveto
          -59 -9 -62 -61 -72 hhcurveto
          -28 -25 11 24 -38 hvcurveto
          hintmask 01111100
          30 -44 -44 12 -58 hhcurveto
          -58 -71 -15 -47 -90 hvcurveto
          57 46 57 31 165 74 rrcurveto
          277 122 167 152 164 vvcurveto
          96 -67 78 54 callgsubr
          -152 -36 23 -64 84 40 55 23 32 41 vhcurveto
          59 49 33 46 14 vvcurveto
          7 -4 3 -6 -6 -4 -3 -9 -9 vhcurveto
          -82 -62 -70 -54 -63 hhcurveto
          -37 -13 22 34 107 206 258 139 61 37 11 callgsubr
          -81 -82 -37 vvcurveto
          -8 4 -4 7 vhcurveto
          endchar
        </CharString>
        <CharString name="u">
          -280 -2 28 hstem
          -163 82 380 50 vstem
          -33 23 -102 callsubr
        </CharString>
        <CharString name="uacute">
          -7 callgsubr
          655 -83 callsubr
          -688 -838 -102 callsubr
        </CharString>
        <CharString name="ucircumflex">
          -7 callgsubr
          454 -95 callgsubr
          -487 -838 -102 callsubr
        </CharString>
        <CharString name="udieresis">
          -280 19 47 callgsubr
          -163 82 544 -2 callgsubr
          vstem
          822 -75 callgsubr
          -556 -926 -102 callsubr
        </CharString>
        <CharString name="ugrave">
          -7 callgsubr
          637 -73 callsubr
          -670 -861 -102 callsubr
        </CharString>
        <CharString name="underscore">
          -61 -149 43 hstem
          -317 1468 vstem
          -317 -105 rmoveto
          3 -44 rlineto
          1465 43 hlineto
          endchar
        </CharString>
        <CharString name="uni0001">
          endchar
        </CharString>
        <CharString name="uni0002">
          endchar
        </CharString>
        <CharString name="uni0003">
          endchar
        </CharString>
        <CharString name="uni0004">
          endchar
        </CharString>
        <CharString name="uni0005">
          endchar
        </CharString>
        <CharString name="uni0006">
          endchar
        </CharString>
        <CharString name="uni0007">
          endchar
        </CharString>
        <CharString name="uni0008">
          endchar
        </CharString>
        <CharString name="uni0009">
          endchar
        </CharString>
        <CharString name="uni0010">
          endchar
        </CharString>
        <CharString name="uni0011">
          endchar
        </CharString>
        <CharString name="uni0012">
          endchar
        </CharString>
        <CharString name="uni0013">
          endchar
        </CharString>
        <CharString name="uni0014">
          endchar
        </CharString>
        <CharString name="uni0015">
          endchar
        </CharString>
        <CharString name="uni0016">
          endchar
        </CharString>
        <CharString name="uni0017">
          endchar
        </CharString>
        <CharString name="uni0018">
          endchar
        </CharString>
        <CharString name="uni0019">
          endchar
        </CharString>
        <CharString name="uni00AD">
          94 endchar
        </CharString>
        <CharString name="v">
          -371 -2 26 144 25 hstem
          -193 70 560 26 132 135 vstem
          -67 24 rmoveto
          -34 -22 2 44 71 196 187 66 70 hvcurveto
          94 100 35 54 138 124 rrcurveto
          -2 -18 -23 -1 -31 hhcurveto
          -31 -12 6 callsubr
          -101 -101 -89 -88 -59 -75 rrcurveto
          -165 -206 -28 -57 -71 vvcurveto
          -51 38 -32 74 156 227 151 125 148 vhcurveto
          -64 -29 16 -42 65 hhcurveto
          107 148 148 73 67 hvcurveto
          2 callgsubr
          -59 -52 -150 -154 -91 hhcurveto
          -72 21 67 62 45 hvcurveto
          27 25 rlineto
          168 163 31 88 56 vvcurveto
          40 -21 15 -35 -44 -35 -35 -49 -113 -20 -88 -145 -129 vhcurveto
          -135 -154 -196 -136 -147 hhcurveto
          endchar
        </CharString>
        <CharString name="w">
          -5 -2 28 142 25 hstem
          -177 45 394 49 497 26 154 136 vstem
          -106 26 rmoveto
          -23 -3 7 15 24 31 43 65 79 hvcurveto
          85 101 203 215 162 166 rrcurveto
          -2 -13 -41 -1 -18 hhcurveto
          -25 -39 3 3 -17 hvcurveto
          -276 -257 -162 -234 -126 vvcurveto
          -44 27 -20 38 72 102 45 104 139 vhcurveto
          44 32 43 36 42 38 rrcurveto
          -49 -81 -19 -62 -47 vvcurveto
          -37 17 -28 46 111 216 124 122 156 vhcurveto
          -47 -10 23 -29 53 hhcurveto
          109 139 148 73 68 0 callgsubr
          -59 -51 -142 -154 -92 hhcurveto
          -52 -5 36 44 17 hvcurveto
          31 25 28 26 23 23 rrcurveto
          165 165 34 86 56 vvcurveto
          40 -19 25 -47 -42 -28 -45 -49 -113 -33 -53 -133 -140 vhcurveto
          -167 -160 -236 -126 -90 hhcurveto
          -13 -12 5 18 19 18 35 63 75 hvcurveto
          119 137 219 232 123 129 rrcurveto
          -2 -19 -22 -1 -31 hhcurveto
          -31 -8 6 callsubr
          -97 -93 -77 -81 -61 -72 rrcurveto
          1 vlineto
          -4 -5 -23 -28 -62 -71 -86 -80 -89 -65 rlinecurve
          -121 -162 -93 -38 -52 hhcurveto
          endchar
        </CharString>
        <CharString name="x">
          -262 -2 28 610 49 -31 31 hstemhm
          258 91 68 87 hintmask 00000000
          hintmask 10111000
          -51 66 rmoveto
          -16 -8 5 12 -16 hvcurveto
          10 -15 -10 5 -16 hhcurveto
          -33 -28 -24 -23 -34 21 -19 64 90 166 86 184 134 hvcurveto
          -16 -51 -8 -40 -28 vvcurveto
          -110 71 -41 73 220 296 377 14 16 vhcurveto
          -21 18 rlineto
          -14 -12 -283 -367 -203 hhcurveto
          -38 -28 15 41 40 11 49 39 83 hvcurveto
          12 22 12 21 10 21 rrcurveto
          hintmask 11011000
          184 106 152 134 84 hhcurveto
          4 6 0 -1 7 hvcurveto
          -51 3 25 -31 45 hhcurveto
          25 32 19 41 31 -23 41 -70 -116 -135 -111 -122 -92 hvcurveto
          12 41 6 33 22 vvcurveto
          hintmask 10111000
          86 -47 51 -76 -86 -70 -35 -244 -218 vhcurveto
          -2 -5 3 -3 2 -2 8 -7 6 -1 4 1 rrcurveto
          233 205 70 32 67 hhcurveto
          34 13 -20 -32 -41 -8 -41 -59 -85 hvcurveto
          -221 -116 -158 -148 -127 hhcurveto
          endchar
        </CharString>
        <CharString name="y">
          -258 -787 27 758 26 hstem
          -662 32 470 69 vstem
          -40 24 -97 callsubr
        </CharString>
        <CharString name="yacute">
          -258 61 callsubr
          806 -21 1224 -20 hstem
          658 -83 callsubr
          -698 -837 -97 callsubr
        </CharString>
        <CharString name="ydieresis">
          -258 61 callsubr
          806 47 callgsubr
          -160 69 558 -2 callgsubr
          vstem
          826 -75 callgsubr
          -567 -925 -97 callsubr
        </CharString>
        <CharString name="yen">
          251 -2 21 151 93 22 27 86 28 122 23 784 24 hstemhm
          67 46 458 46 359 51 10 callgsubr
          hintmask 1011111110000000
          113 156 rmoveto
          4 0 5 1 5 vhcurveto
          41 4 22 25 21 vvcurveto
          26 -15 17 -27 -37 -31 -32 -47 -109 114 -77 150 195 197 95 192 170 vhcurveto
          250 hlineto
          hintmask 1111111110000000
          2 8 3 10 8 9 rrcurveto
          -240 hlineto
          23 27 21 28 22 31 rrcurveto
          220 hlineto
          9 3 10 7 9 vhcurveto
          hintmask 1011111110000000
          -211 hlineto
          26 40 26 42 25 46 258 477 130 130 146 58 30 10 rcurveline
          12 3 2 5 4 vvcurveto
          7 -3 5 -14 -52 -126 -75 -160 -147 vhcurveto
          -397 -367 -155 -50 -92 hhcurveto
          -57 -26 32 26 40 13 24 174 159 hvcurveto
          167 152 56 153 103 vvcurveto
          74 -56 45 -85 -146 -208 -209 -218 -92 vhcurveto
          -8 -17 -2 -5 -9 vvcurveto
          -6 49 callsubr
          7 7 8 4 2 vhcurveto
          243 89 219 190 117 hhcurveto
          53 40 -27 -46 -46 -49 -96 -212 -209 hvcurveto
          -82 -79 -62 -86 -100 vvcurveto
          -63 43 -55 86 110 137 70 211 213 vhcurveto
          -95 -112 -114 -137 -98 -154 rrcurveto
          -217 hlineto
          -4 -9 -11 -10 -10 -9 rrcurveto
          224 hlineto
          -19 -31 -19 -29 -19 -26 rrcurveto
          -200 hlineto
          -3 -9 -11 -10 -10 -8 rrcurveto
          204 hlineto
          -192 -146 -153 -74 -119 hhcurveto
          -144 -83 63 74 hvcurveto
          endchar
        </CharString>
        <CharString name="z">
          -470 -787 25 755 15 679 21 hstemhm
          -597 30 666 100 -88 76 529 34 hintmask 00000000
          hintmask 11111010
          48 -7 rmoveto
          2 hlineto
          24 25 -26 -57 -13 -1 -14 -2 -14 hvcurveto
          -418 -234 -275 -201 -139 vvcurveto
          -44 25 -38 62 285 424 379 261 14 -1 13 -2 11 vhcurveto
          236 136 150 187 142 175 -21 17 rcurveline
          -127 -162 -147 -183 -238 -144 -15 57 -40 28 -60 6 119 67 137 108 118 290 rrcurveto
          167 17 133 96 64 vvcurveto
          32 -30 26 -62 -94 -122 -67 -146 -115 vhcurveto
          -89 22 -51 64 49 70 73 0 64 vvcurveto
          23 -21 16 -32 -58 -38 -55 -57 -32 7 -32 15 -30 vhcurveto
          -30 -57 -19 -44 -77 -90 rrcurveto
          -37 -45 -45 -54 -1 vvcurveto
          -4 3 -1 4 3 26 10 78 67 vhcurveto
          hintmask 11110110
          62 73 35 63 25 46 32 -44 53 -35 78 -15 -29 -39 -29 -44 -27 -49 -160 -297 -34 -37 -118 -52 rrcurveto
          -40 -17 -8 -12 -6 vvcurveto
          -4 20 -12 8 11 -3 7 18 31 vhcurveto
          hintmask 11111010
          34 21 38 17 41 22 rrcurveto
          410 500 rmoveto
          140 60 79 54 60 hhcurveto
          37 22 -16 -20 -58 -117 -80 -141 -20 hvcurveto
          -368 -654 rmoveto
          -268 -64 -382 -333 -154 hhcurveto
          -43 -14 26 26 149 285 183 372 217 hvcurveto
          endchar
        </CharString>
        <CharString name="zero">
          106 -5 27 1362 24 hstem
          179 109 989 55 vstem
          179 310 rmoveto
          -197 81 -118 145 432 495 615 474 191 -71 133 -161 -400 -521 -623 -475 vhcurveto
          109 -85 rmoveto
          376 526 783 287 104 72 -60 -195 -551 -575 -556 -272 -91 -51 67 136 vhcurveto
          endchar
        </CharString>
      <CharString index="0">
        -79 callgsubr
        -87 callsubr
        -102 callgsubr
        return
      </CharString>
      <CharString index="1">
        -90 callgsubr
        -103 callsubr
        return
      </CharString>
      <CharString index="2">
        -83 -85 -95 -100 5 -147 rrcurveto
        -72 3 60 -51 108 hhcurveto
        193 297 252 231 -2 hvcurveto
        18 -7 11 -11 -5 -4 -12 -18 -5 vhcurveto
        -261 -88 -204 -193 -159 hhcurveto
        -81 -24 33 40 hvcurveto
        -1 26 12 33 46 39 180 180 26 77 -5 90 -1 33 -11 26 -18 19 254 75 163 176 -7 169 -4 99 -43 81 -75 61 62 38 58 26 53 11 rrcurveto
        21 3 7 5 8 vvcurveto
        10 -1 -10 0 -9 hhcurveto
        -37 -78 -23 -52 -102 hvcurveto
        59 -92 -128 33 -153 hhcurveto
        -417 -497 -291 -331 11 hvcurveto
        -101 3 98 -66 87 hhcurveto
        347 216 357 236 -9 hvcurveto
        22 0 10 -10 -8 -4 -8 -26 -3 vhcurveto
        -139 -15 -272 -426 -240 hhcurveto
        -64 -88 37 109 -4 hvcurveto
        250 -9 398 339 465 hhcurveto
        151 125 -27 -54 81 hvcurveto
        -13 -7 -13 -7 -13 -8 -226 -149 -212 -175 -213 -298 rrcurveto
        -535 -390 -108 -87 -177 hhcurveto
        -99 -60 42 59 hvcurveto
        6 vlineto
        -9 27 callgsubr
        -24 callgsubr
        return
      </CharString>
      <CharString index="3">
        -106 callsubr
        -63 callgsubr
        return
      </CharString>
      <CharString index="4">
        -60 callsubr
        -47 callsubr
        -50 callsubr
        -105 callgsubr
        -76 67 -61 145 hvcurveto
        -4 callgsubr
        34 27 -5 -11 19 vhcurveto
        -7 -24 -25 -4 -24 hhcurveto
        -31 -16 11 6 hvcurveto
        return
      </CharString>
      <CharString index="5">
        16 -12 13 -4 -4 -5 -12 -18 -7 vhcurveto
        -78 -206 -194 -164 -242 -72 702 928 113 172 51 16 -80 callsubr
        -27 -27 rcurveline
        156 -74 -142 120 -180 hhcurveto
        -194 -107 -128 -139 7 hvcurveto
        7 -142 115 -139 193 -72 -52 -43 -48 -38 -49 -36 rrcurveto
        -70 -101 -93 -40 -89 hhcurveto
        -130 -50 46 64 hvcurveto
        7 16 callsubr
        -1 18 hhcurveto
        return
      </CharString>
      <CharString index="6">
        -107 callgsubr
        -107 callsubr
      </CharString>
      <CharString index="7">
        -104 callsubr
        -77 callgsubr
      </CharString>
      <CharString index="8">
        -98 callsubr
        -85 callgsubr
      </CharString>
      <CharString index="9">
        rmoveto
        8 8 3 15 22 hvcurveto
        67 48 74 52 99 92 2 -29 5 -31 10 -27 rrcurveto
        -82 24 44 -41 22 hhcurveto
        11 5 8 4 7 -5 4 -8 11 hvcurveto
        -21 27 -12 50 63 vvcurveto
        80 13 47 12 27 vhcurveto
        3 11 2 6 17 callgsubr
        2 -4 -11 -9 -7 -42 -39 vhcurveto
        -92 -98 -155 -137 -33 -27 rrcurveto
        -40 -35 -4 -3 -8 vvcurveto
        -4 3 0 3 vhcurveto
        return
      </CharString>
      <CharString index="10">
        1442 rmoveto
        -38 callgsubr
        67 43 80 -59 callsubr
        -93 callsubr
        return
      </CharString>
      <CharString index="11">
        -61 callgsubr
        -70 callsubr
        vhcurveto
        -82 callsubr
        return
      </CharString>
      <CharString index="12">
        861 -98 callgsubr
        return
      </CharString>
      <CharString index="13">
        rmoveto
        331 228 350 45 50 hvcurveto
        -21 -41 callgsubr
        -49 -17 callgsubr
        398 -27 callgsubr
        -2 29 callgsubr
        -127 -199 -88 -206 -148 hvcurveto
        -34 -47 -38 -102 2 -72 rrcurveto
        -99 2 51 -77 131 hhcurveto
        -13 332 rmoveto
        11 17 5 callgsubr
        return
      </CharString>
      <CharString index="14">
        -94 callgsubr
        -55 callgsubr
      </CharString>
      <CharString index="15">
        1459 rmoveto
        11 16 8 15 25 hvcurveto
        -89 callgsubr
        0 3 -12 8 vhcurveto
        return
      </CharString>
      <CharString index="16">
        rmoveto
        10 15 8 15 24 hvcurveto
        -88 callsubr
        -5 49 callsubr
        vhcurveto
        return
      </CharString>
      <CharString index="17">
        rmoveto
        179 230 129 210 215 hvcurveto
        23 hlineto
        322 382 297 383 31 -1 18 -11 -4 -7 1 -31 -373 -387 -298 -282 hvcurveto
        -8 hlineto
        89 90 85 104 79 114 return
      </CharString>
      <CharString index="18">
        113 65 100 104 62 vvcurveto
        38 -19 17 -24 -30 -18 -24 -47 -6 vhcurveto
        -11 -53 -12 -24 -17 -25 -28 -43 -48 -36 -37 -21 rrcurveto
        -17 -13 -9 -5 -6 vvcurveto
        return
      </CharString>
      <CharString index="19">
        376 321 164 206 137 -126 81 -216 -278 -335 -202 -312 4 hvcurveto
        -8 0 -8 1 -7 vhcurveto
        -186 38 -124 90 -59 134 rrcurveto
        17 -7 -7 7 -7 hhcurveto
        -5 -3 -3 -9 -4 1 -12 5 -9 hvcurveto
        57 -128 132 -103 208 -45 return
      </CharString>
      <CharString index="20">
        rmoveto
        -78 callgsubr
        -355 -414 -56 -103 -80 vvcurveto
        -51 54 -32 82 return
      </CharString>
      <CharString index="21">
        62 callgsubr
        7 callgsubr
        -24 -52 callgsubr
        34 callgsubr
        49 50 7 callgsubr
        -21 28 -39 -54 -45 12 callsubr
        25 -26 35 hvcurveto
        return
      </CharString>
      <CharString index="22">
        -31 callsubr
        36 35 -22 -65 4 hvcurveto
        -77 callsubr
        endchar
      </CharString>
      <CharString index="23">
        vstem
        -139 19 rmoveto
        108 165 129 189 185 257 694 965 rcurveline
        -2 -17 -15 -2 -10 hhcurveto
        -54 -2 -26 4 -16 14 callsubr
        39 6 17 hhcurveto
        19 25 -2 -3 14 hvcurveto
        398 86 rmoveto
        -56 27 -51 73 219 295 377 14 16 6 callgsubr
        -14 -13 -281 -367 -205 hhcurveto
        -36 -11 12 19 15 16 19 22 21 hvcurveto
        122 111 15 56 53 vvcurveto
        53 -35 49 -60 28 25 callgsubr
        139 109 57 41 60 hhcurveto
        17 12 -4 -8 10 hvcurveto
        -21 -7 -18 -18 -1 -25 rrcurveto
        -35 -3 31 -25 29 hhcurveto
        37 33 20 49 1 hvcurveto
        44 1 -43 39 -64 hhcurveto
        -121 -82 -117 -82 -71 hvcurveto
        -36 -40 -16 -15 -31 -15 rrcurveto
        7 -24 -28 4 -30 hhcurveto
        -52 -44 -22 -24 -16 20 -15 37 23 45 3 30 54 hvcurveto
        35 -12 24 -23 -23 vvcurveto
        -15 -10 -16 -39 -40 vhcurveto
        -96 -94 -26 -63 -51 vvcurveto
        return
      </CharString>
      <CharString index="24">
        -86 callsubr
        -33 callgsubr
        return
      </CharString>
      <CharString index="25">
        8 4 5 5 8 -8 2 -16 12 hvcurveto
        -40 22 -52 41 -32 51 -20 32 -10 37 -10 75 rrcurveto
        48 -8 -16 23 -31 hhcurveto
        -25 -18 -17 -38 -74 98 -131 127 -78 hvcurveto
        return
      </CharString>
      <CharString index="26">
        -53 callgsubr
        15 callgsubr
        hvcurveto
        -91 callsubr
        hvcurveto
        return
      </CharString>
      <CharString index="27">
        -54 callsubr
        -76 callsubr
        -69 callgsubr
        33 callgsubr
      </CharString>
      <CharString index="28">
        rmoveto
        88 85 24 54 85 hvcurveto
        52 32 70 52 95 80 rrcurveto
        -24 77 89 -14 98 hhcurveto
        21 21 1 1 21 hvcurveto
        -3 -7 -4 -6 -4 -6 return
      </CharString>
      <CharString index="29">
        -23 -50 -1 35 55 79 103 390 459 hvcurveto
        -1 -11 -8 -1 -23 hhcurveto
        -25 -59 1 2 -12 hvcurveto
        return
      </CharString>
      <CharString index="30">
        -79 callsubr
        endchar
      </CharString>
      <CharString index="31">
        10 2 12 0 6 -8 5 -17 13 hvcurveto
        -39 21 -47 36 -27 43 -18 25 -12 24 -10 53 rrcurveto
        47 -8 -16 24 -31 hhcurveto
        -25 -18 -17 -38 return
      </CharString>
      <CharString index="32">
        949 -86 callgsubr
        return
      </CharString>
      <CharString index="33">
        -85 callsubr
        163 254 rmoveto
        -66 callgsubr
        return
      </CharString>
      <CharString index="34">
        62 6 -48 10 -39 hhcurveto
        -105 -123 -196 -83 -77 hvcurveto
        -5 -5 5 -3 3 -4 6 -5 10 -1 2 1 rrcurveto
        89 71 139 173 38 hhcurveto
        20 3 -13 -16 -1 hvcurveto
        -3 -29 -37 -39 -375 -540 rrcurveto
        return
      </CharString>
      <CharString index="35">
        -66 callsubr
        -16 callgsubr
        hvcurveto
        -21 callsubr
        -61 callsubr
        return
      </CharString>
      <CharString index="36">
        -377 -694 rmoveto
        275 27 220 181 166 hhcurveto
        61 47 -31 -55 -140 -269 -232 -211 -14 -14 1 1 -13 hvcurveto
        endchar
      </CharString>
      <CharString index="37">
        -49 83 120 -33 83 hhcurveto
        62 117 38 52 54 hvcurveto
        11 12 3 5 6 vvcurveto
        2 -4 6 -4 -6 -5 -5 -11 -12 vhcurveto
        -32 -37 -58 -22 -49 hhcurveto
        -44 -50 13 19 -45 hvcurveto
        -76 35 -54 27 -68 28 rrcurveto
        43 -104 -80 10 -97 hhcurveto
        -267 -183 -145 -188 return
      </CharString>
      <CharString index="38">
        210 292 36 51 8 31 2 21 rlinecurve
        -73 callgsubr
        return
      </CharString>
      <CharString index="39">
        -62 58 80 -37 59 hhcurveto
        33 19 9 23 hvcurveto
        -1 41 -69 44 -130 14 -15 23 -12 25 -6 27 rrcurveto
        -7 51 54 -3 59 hhcurveto
        return
      </CharString>
      <CharString index="40">
        1492 rmoveto
        7 5 4 12 7 hvcurveto
        -28 callgsubr
        -40 60 22 -7 30 hhcurveto
        -29 callsubr
        return
      </CharString>
      <CharString index="41">
        206 320 151 234 185 293 rrcurveto
        251 159 68 60 43 hhcurveto
        25 20 -20 -37 1 hvcurveto
        9 -259 -498 -592 -369 -250 rrcurveto
        return
      </CharString>
      <CharString index="42">
        -45 3 -37 17 -29 25 71 110 rcurveline
        412 259 539 609 -12 283 rrcurveto
        48 -1 -28 38 -57 hhcurveto
        -102 -173 -183 -273 -191 hvcurveto
        return
      </CharString>
      <CharString index="43">
        -51 callsubr
        -47 callgsubr
        return
      </CharString>
      <CharString index="44">
        207 174 159 89 66 hhcurveto
        35 35 -19 -41 -42 -29 -54 -31 -46 hvcurveto
        return
      </CharString>
      <CharString index="45">
        hhcurveto
        -176 -171 -139 -138 -97 hvcurveto
        -49 -71 -52 -115 4 -91 return
      </CharString>
      <CharString index="46">
        122 -84 89 -187 -552 -640 -602 -498 -206 127 -97 155 return
      </CharString>
      <CharString index="47">
        -6 -94 -89 -85 -72 -21 rrcurveto
        -21 -7 -4 -6 -7 vvcurveto
        -8 6 -2 9 31 50 20 52 64 vhcurveto
        111 88 44 78 56 vvcurveto
        return
      </CharString>
      <CharString index="48">
        34 -50 -27 8 -26 hhcurveto
        -31 -42 -21 -39 -37 hvcurveto
        -36 -39 -17 -35 -23 vvcurveto
        -6 4 -5 6 vhcurveto
        return
      </CharString>
      <CharString index="49">
        -18 -16 -243 -365 -323 hhcurveto
        -68 -48 48 58 58 22 73 73 97 hvcurveto
        205 157 125 97 90 hhcurveto
        54 21 -24 -34 1 hvcurveto
        -4 vlineto
        -15 7 -19 5 -17 -1 -41 -2 -35 -28 1 -37 rrcurveto
        -39 1 33 -20 31 hhcurveto
        52 57 53 57 -3 hvcurveto
        -2 43 -30 47 -89 3 -117 4 -178 -60 -145 -170 rrcurveto
        -84 -100 -40 -98 -87 vvcurveto
        return
      </CharString>
      <CharString index="50">
        61 callgsubr
        -8 -6 -5 -5 -12 -7 vhcurveto
        -51 -21 -33 -25 -38 hhcurveto
        -24 -33 10 33 -49 hvcurveto
        return
      </CharString>
      <CharString index="51">
        -43 callgsubr
        -63 callsubr
        return
      </CharString>
      <CharString index="52">
        182 139 98 99 90 hhcurveto
        33 19 -17 -39 -88 -159 -101 -259 -90 hvcurveto
        endchar
      </CharString>
      <CharString index="53">
        -6 4 -5 5 6 10 6 18 17 vhcurveto
        80 78 126 83 84 46 rrcurveto
        22 12 9 7 8 vvcurveto
        9 -7 23 callsubr
        -32 58 rrcurveto
        14 -7 -4 4 -7 hhcurveto
        -6 -4 -3 -10 -10 3 -14 4 -11 hvcurveto
        13 -45 20 -62 28 -72 -101 -88 3 callgsubr
        endchar
      </CharString>
      <CharString index="54">
        -8 7 -6 7 8 13 6 41 35 vhcurveto
        114 130 243 308 333 364 rrcurveto
        458 418 270 179 224 hhcurveto
        102 60 -61 -105 return
      </CharString>
      <CharString index="55">
        28 -37 -55 -46 12 callsubr
        25 -26 36 hvcurveto
        return
      </CharString>
      <CharString index="56">
        -38 callsubr
        -35 -105 -89 vvcurveto
        return
      </CharString>
      <CharString index="57">
        -513 -47 -282 -343 -115 hhcurveto
        -27 -18 20 22 86 242 352 247 376 hvcurveto
        return
      </CharString>
      <CharString index="58">
        rmoveto
        2 10 12 2 12 hhcurveto
        11 14 -3 -1 6 hvcurveto
        182 293 rlineto
        270 hlineto
        14 23 8 14 18 18 rrcurveto
        -276 hlineto
        172 277 rlineto
        -2 -17 -11 -2 -13 hhcurveto
        -9 -13 3 1 -6 hvcurveto
        -170 -277 rlineto
        -265 hlineto
        -9 -18 -12 -15 -20 -22 rrcurveto
        272 hlineto
        return
      </CharString>
      <CharString index="59">
        rmoveto
        -46 callgsubr
        -5 -42 -363 -463 -117 -147 return
      </CharString>
      <CharString index="60">
        -40 61 22 -8 30 hhcurveto
        32 44 20 40 35 hvcurveto
        36 39 18 35 23 vvcurveto
        return
      </CharString>
      <CharString index="61">
        149 195 95 122 92 118 rrcurveto
        -1 -9 -17 -1 -23 hhcurveto
        -25 -68 0 2 -14 hvcurveto
        return
      </CharString>
      <CharString index="62">
        381 372 229 199 162 99 return
      </CharString>
      <CharString index="63">
        49 50 33 callsubr
        -23 -52 callsubr
        return
      </CharString>
      <CharString index="64">
        rmoveto
        4 12 34 3 24 hhcurveto
        18 40 -3 -1 13 hvcurveto
        162 346 180 322 81 109 rrcurveto
        30 41 41 callgsubr
        vvcurveto
        return
      </CharString>
      <CharString index="65">
        605 22 rmoveto
        1 19 14 1 13 hhcurveto
        9 9 -1 -1 7 hvcurveto
        962 1349 rlineto
        -1 -4 -20 -2 -11 hhcurveto
        return
      </CharString>
      <CharString index="66">
        17 rlineto
        -33 -37 -227 -350 -313 hhcurveto
        -57 return
      </CharString>
      <CharString index="67">
        rlineto
        5 16 11 9 callgsubr
        -115 -37 hvcurveto
        -18 -18 callgsubr
        47 47 56 vvcurveto
        44 -36 24 callsubr
        return
      </CharString>
      <CharString index="68">
        rcurveline
        -398 -602 -70 -126 6 -109 rrcurveto
        -56 1 42 -41 55 hhcurveto
        return
      </CharString>
      <CharString index="69">
        -4 7 0 41 callgsubr
        4 14 22 vhcurveto
        return
      </CharString>
      <CharString index="70">
        345 658 465 410 26 44 -3 -5 35 vhcurveto
        -208 -47 -367 -242 -373 -533 return
      </CharString>
      <CharString index="71">
        rmoveto
        -40 -49 -51 -42 hvcurveto
        -53 callsubr
        vhcurveto
        endchar
      </CharString>
      <CharString index="72">
        16 callgsubr
        -44 callsubr
        vhcurveto
        return
      </CharString>
      <CharString index="73">
        19 -21 1224 -20 hstem
        return
      </CharString>
      <CharString index="74">
        -35 39 -22 117 74 vvcurveto
        10 0 10 1 10 vhcurveto
        return
      </CharString>
      <CharString index="75">
        -131 29 -72 83 85 vvcurveto
        246 379 221 266 vhcurveto
        33 25 -4 15 hhcurveto
        8 5 2 6 10 -37 7 -44 -365 -328 -248 -199 -123 75 -103 153 -35 hvcurveto
        return
      </CharString>
      <CharString index="76">
        222 241 61 116 3 80 rrcurveto
        50 1 -32 51 -86 hhcurveto
        return
      </CharString>
      <CharString index="77">
        rrcurveto
        8 20 4 20 19 vvcurveto
        51 return
      </CharString>
      <CharString index="78">
        8 callgsubr
        822 1141 rlineto
        -2 -17 -9 callgsubr
        -18 2 -773 -1105 rcurveline
        14 callgsubr
        return
      </CharString>
      <CharString index="79">
        52 20 33 26 41 hhcurveto
        26 22 -9 -30 46 hvcurveto
        return
      </CharString>
      <CharString index="80">
        132 114 118 -5 78 rrcurveto
        35 return
      </CharString>
      <CharString index="81">
        rmoveto
        106 133 103 93 43 -29 32 -52 -97 -145 -97 -99 -46 27 -29 57 hvcurveto
        19 26 rmoveto
        -32 -14 17 35 73 87 92 81 22 18 -14 -37 -79 -88 -87 -74 hvcurveto
        return
      </CharString>
      <CharString index="82">
        -46 callsubr
        534 392 -5 callsubr
        hintmask 1100011111000000
        return
      </CharString>
      <CharString index="83">
        26 60 callsubr
        -28 -8 callgsubr
        -59 return
      </CharString>
      <CharString index="84">
        -5 63 35 81 99 124 rrcurveto
        return
      </CharString>
      <CharString index="85">
        -387 -533 -515 -360 return
      </CharString>
      <CharString index="86">
        -74 65 -61 136 vhcurveto
        307 817 rmoveto
        157 158 108 162 return
      </CharString>
      <CharString index="87">
        5 -14 5 -21 -21 vvcurveto
        -44 -98 -96 -71 -24 vhcurveto
        -17 -4 -4 -6 -6 vvcurveto
        -10 8 -2 11 23 68 27 43 55 vhcurveto
        133 105 33 81 62 vvcurveto
        return
      </CharString>
      <CharString index="88">
        -8 -6 -4 -10 -46 -54 31 47 -41 vhcurveto
        return
      </CharString>
      <CharString index="89">
        -6 -3 -6 -5 vvcurveto
        -12 7 -2 10 24 81 30 50 71 vhcurveto
        50 36 return
      </CharString>
      <CharString index="90">
        36 63 43 12 51 47 75 hvcurveto
        return
      </CharString>
      <CharString index="91">
        24 -1 22 -10 -4 -7 -7 -24 -285 -391 -410 -278 return
      </CharString>
      <CharString index="92">
        rmoveto
        -348 -419 -119 -63 -143 -1 rrcurveto
        -43 -16 25 15 115 188 1 callgsubr
      </CharString>
      <CharString index="93">
        rmoveto
        2 9 2 14 6 vvcurveto
        32 -14 17 -24 -25 -15 -20 -20 -49 95 -69 134 221 209 127 159 return
      </CharString>
      <CharString index="94">
        -493 15 -21 1228 -20 hstem
        -91 89 500 66 vstem
        return
      </CharString>
      <CharString index="95">
        104 32 82 60 vvcurveto
        50 25 callsubr
        -26 return
      </CharString>
</ttFont>
